<?xml version="1.0" encoding="UTF-8"?>
<svg xmlns="http://www.w3.org/2000/svg" id="Whale" version="1.1" viewBox="0 0 1468 175.9">
  <defs>
    <style>
      .cls-1 {
        fill: #4d4d4d;
      }

      .cls-1, .cls-2 {
        stroke-width: 0px;
      }

      .cls-3 {
        fill: none;
        stroke: #4d4d4d;
        stroke-miterlimit: 10;
        stroke-width: .8px;
      }

      .cls-2 {
        fill: #646464;
      }
    </style>
  </defs>
  <g>
    <path class="cls-2" d="M963.09,7.4c-3.22.12,1.74,0-2.11.09.44-.03,1.06-.07,2.11-.09Z"></path>
    <path class="cls-2" d="M1179.88,142c5.19.21,11.19.63,17.31,1.14,6.12.5,12.36,1.09,18.04,1.4,1.33.09-.37.27,2.63.46,11.03.5,28.32,2.25,41.64,4.09l-.82.05c2.54.35,5.69.2,8.38.53.01.09-.88.05-.26.23.71-.21,4.89.35,6.05.25,1.06.22.93.43,2.3.7l1.58-.18c4.37-.39,10.42,1.08,16.32,1.22-.29.06-.87.06-.42.19,9.46.4,21.22,1.65,31.75,2.49-.43.1-.85.32-.25.54.56-.37,3.82-.15,6.65.05,1.22.58,4.88.08,8.16.66l-.29.07c2.49-.23,3.6.65,5.64.28l1.51.52c1.14-.54,3.5.71,5.55.59l-.05-.14c1.92.04,2.88.47,4.65.55l.16.1c4.15.26,6.51.9,6.47.37,1.4.58-4.02-.24-1.82.61,3.41.24,6.85.52,10.29.84,3.44.35,6.89.58,10.35.48,6.91-.16,13.81-1.34,20.27-3.58,1.55-.28,2.49-.61,2.9-.53,1.24-.6,4.78-1.99,5.84-2.7-.43.18.93-.06,1.62-.3,2.41-.72,2.33-1.56,4.98-2.32-.97.53-1.25.83-.83.89,2.03-1.25,4.98-2.32,7.52-3.44-.37.24-.98.53-.82.65,2.66-1.54,5.2-1.89,7.57-3.11l-.82.65c4.13-1.16.95-1.06,4.49-2.16-.8.4-.46.41-.57.58,3.03-1.75,8.33-3.51,11.54-4.8-.18.11-.1.17-.1.17.88-.33,1.79-.62,2.7-.93.44-.17.89-.31,1.32-.49.43-.2.87-.38,1.29-.61,1.7-.89,3.28-2.12,4.59-3.65.56-.48.61-.27.84-.31.22-.05.7-.3,1.84-1.94-.28-.12.63-1.52,1.25-2.77.63-1.25,1.01-2.3.21-1.42.81-1.44,1.72-3.39,2.41-5.3.69-1.9,1.16-3.73,1.32-4.84-.14,1.52,1.08-1.44.46,1.3.29-.66.57-1.33.83-2,.17.37-.57,2.13-.13,1.54.36-1.39.86-5.52,1.08-6.77-.01-1.33-.13-2.61-.25-4.07-.11-1.45-.24-3.09-.41-5.18.33,1.97.56-1.16.73.18-.47-1.95-1-3.87-1.54-5.79-.17-1.39.41-.35.05-2.35-.14.12-.32-.75-.5-1.35.02-.53-.83-5.78-.39-6.46.13-.64.41,2.26.4.69-.35-2.58-.55-2.67-.93-5.24l.06-.06c-.17-1.71-1-4.96-.99-3.08.17,1.18.24-.5.36,1.27-.49-1.15-1.04-4.11-1.5-6.66.23.86.35.73.56,1.05-1-3.36-1.81-6.96-2.84-10.69-.25,0,.75,1.3.74,1.89-.76-4.93-2.82-9.89-4.17-13.54.32.55-.13.46-.1.39-.49-1-.71-1.42-.9-1.76-.09-.19-.18-.31-.3-.43-.06-.06-.12-.13-.22-.2-.13-.09-.28-.18-.45-.29-.03-.24-1.69-1.15-2.98-2.12-.74-.41-.27-.33.85.53-.95-.63-3.18-2.35-5.75-4.09-2.58-1.75-5.61-3.4-7.91-4.5.03.06-.73-.15-1.64-.4-.9-.27-1.95-.58-2.5-.75l.52-.11c-.48-.24-1.42-.54-2.25-.81-.84-.22-1.58-.43-1.65-.56-.63-.08-.35.01.36.19.36.09.82.2,1.34.32.51.15,1.07.31,1.62.47,1.12.29,2.17.68,2.76.89.59.21.7.26-.11.02-.72-.59-4.59-1.13-3.79-1.25-1.13-.35-2.28-.53-3.4-.8-1.13-.22-2.25-.42-3.33-.76.63.17,1.95.05.07-.32-3.34-.5-.97-.04-3.69-.37-.57-.06-1.14-.08-1.72-.1-.14.22-3-.33-1.78.05-.37-.25-4.96-.32-4.58-.67l.5-.24c-1.48-.11-2.44.08-3.61.1-.19-.04-.57-.14-.49-.18-.27.4-3.51-.38-5.29-.25-3.08-.46-7.84-.85-9.27-1.24-2.38-.14-4.56-.26-7.25-.64.54.03,1.28.1,1.44.04-1.69-.29-2.11-.24-3.67-.36.35-.01-3.37-.58-5.25-.9-2.36-.17-1.58.09-1.82.17-2.12-.55-6.66-.57-9.33-1.16.82.06,3.45.26,1.5-.04-2.12-.53-4.36-.28-7.82-.83l.83.32c-1.53-.32-5.12-.48-4.74-.66-1.17-.06-4.08-.55-3.72-.3-5.68-.85-13.86-1.58-17.32-2.33-.82-.07-2.85-.35-2.44-.21,1.34.27,1.9.16,2.4.29-.73-.08-.9-.05-.98-.04-1.77-.26-3.16-.44-1.47-.39-3.92-.59-4.1-.19-9.1-.89.24-.04-.14-.12-1.61-.29l-2.8-.22c-3.24-.43-1.82-.39-1.88-.52-1.73-.2-3.85-.47-4.65-.48l-2.08-.41c1.52.3-1.43-.11-2.25-.18l.82.07c-.31-.09-2.32-.32-3.33-.43.23.1,2.27.4,3.38.56-.89-.06-2.27-.25-3.44-.34.4-.07-2.81-.45-4.18-.63-1.58-.23-1.79-.12-2.25-.19-.03-.07-2.57-.34-1.33-.27.54.05,1.22.22,2.12.28-1.04-.18-.9-.27-3.07-.47-1.63-.15.39.29-2.69-.18.82.07.97.04,1.6.08l-2.88-.43-.14.09c-.39-.08-.12-.05-.29-.09-.87,0-4.41-.51-5.08-.46-1.46-.16-3.06-.45-4.45-.63l.27.02c-1.69-.28-3.96-.5-5.4-.58l.08-.02c-.93-.12-3.13-.35-4.3-.41-2.34-.37-.73-.57-3.35-.71-2.39-.27-3.77-.18-2.82.01-4.28-.58-9.17-.86-13.12-1.52-.62,0-.24.08-1.51-.02-6.29-.73-13.32-1.15-18.3-2.02,1.84.11.14-.18.12-.29-1.53.02-1.79-.37-2.37-.13.13.19-.03.26,1.74.51-3.77-.28-9.48-.83-11.55-1.22,1.03.19.22.17-.61.15.31-.28-2.46-.61-4.57-.7l-.32.17-1.34-.34c-.81-.02-.94.34-3-.06-.1-.09-.21-.18-.59-.28-2.19-.05-5.28-.03-7.62-.44l-1.89-.51c-1.01-.06-2.72-.03-.96.24-4-.58-6.58-.86-7.83-1.29-3.5.02-7.76-.18-12.16-.51-4.24-.33-8.75-.32-12.76-.37l.24-.2c-2.16-.18-1.12.36-2.63.22.7-.19-1.65-.42.05-.66-3.1-.19-3.99.4-6,.52-.3.27,1.62-.2,1.23.15-.34.09-4.29-.13-4.76.29-.78-.14-.18-.46.23-.64l-1.89.24c-2.33-.44,5.26-.97,2.82-1.51l-1.75.1c-1.68-.4,4.62-.57.23-.64-1.9.23-3.52.88-1.82,1.02-3.96.22-1.81,1.03-6.07,1.11-1.17-.21,3.41-.15,2.58-.47-2.02-.29-4.02.3-5.81.23,1.99.1.32.57-.96.68-2.17-.13,1.39-.44-1.67-.39-.5.26-3.31.53-.87.62-1.09.58-3.2-.05-4.85.43-1.01-.35,3.13-.99-.25-1.07.55.35-4.15.64-2.34,1.13-1.33-.06-1.47-.35-.52-.61-1.9-.17-4.56.82-5.21.11l-.64.4c-.6-.1-1.45-.17-2.42-.34-1.67.05-5.35.68-5.22.11-.53.07-4.34.16-2.86.51,2.38.17,2.71-.36,4.05.12-1.68-.38-3.41.16-4.78.34l-.23-.21c-.81.1-2.69.11-3.2.35.62-.14.29-.28-.36-.31l-.85.34c-3.33.21-.79-.55-4.04-.42l2.46-.29c-.54.06-1.64-.22-3.2-.11-.6.3-1.74.67-2.27.88-1.86.09-.83-.34-2.65-.09l2.39-.3c.36-.1-1.61-.49-4.05-.6-1.57.05-4,.32-1.55.62-1.23-.06-2.93-.33-1.95-.49-2.77-.05.34.34-2.05.37-.97-.26-3.98-.73-5.79-1.14l2.51-.3-1.65-.12c2.16-.23-1.06-.37.17-.69-1.12-.14-2.49-.09-3.58-.08,3.24.89-3.75.59-2.84,1.24-4.51-.22-2.71-1.62-7.47-1.11.76.21-1.49.46,1.36.53-2.79-.3-1.95.41-5.22-.11,2.46-.02-2.58-.78.98-.82-.25.17,1.96.31,2.5.3-1.14-.31.28-.55-2.58-.78-1.75-.09-4.14-.27-3.82.04.05.32,2.67.19,1.53.41-3.49-.18-4.03-.7-5.51-.27,2.2.14,2.72.51,2.67.72l-2.56-.09.51-.16c-4.08-.49-1.23.27-5.19-.11l-1.83-.54c.97-.28,5.75.61,5.09-.01-2.58-.23-3.45-.01-5.87-.34.54,0,1.28.02,1.82.02-.92-.08-1.8-.9-5.5-.71-1.91.04-.51.16-.57.36-4.13-.2-5.37-.06-8.02-.15.55-.39-4.67-.16-1.74-.47,1.34.21,7.3.52,8.79.24-1.48-.57,3.24.28,4.16-.14-3.32-.23-3.14-.68-3.65-1.01-.92-.08-1.83.01-2.38.03-.4.26.8.32.86.61-3.7-.3-7.28-.24-9.3-.01-1.24-.12-.84-.42.62-.41-4.41.09-9.15.19-13.35.17,2.72.35-4.69.17-2.83.47,2.25.05,4.19.32,2.95.51-1.41-.01.04-.18-.54-.25-1.79.24-2.79-.31-4.54.05,4.04-.17.78-.48,1.53-.8-2.91.22.12-.22-2.76-.16-2.91.23-6.47.41-9.7.52-4.06-.18-10.27.17-13.9.22-1.9-.08-.62-.36-2.68-.36-2.41.05,1.8.23-1.78.19l.34-.05c-1.08.07-6.55-.02-7.61.31l1.1-.25c-.67,0-1.28.06-1.84.09-.03-.07-.81-.12.28-.19-2.21-.1-4.63.14-7.03.19l1.55.08c-4.11.17-6.86.11-10.82.22l.11-.09-2.36.1c.57-.09-1.59-.08-2.84,0l6.14-.35c1.71,0-1.86.16-.79.21.91.05,4.59-.04,5.18-.16-1.41.02-1.48.05-2.56.11-.47-.12,1.67-.17,2.72-.29-.74.03-1.79.02-1.94.06,1.44-.11,2.9-.17,5.32-.25-1.63.11.89.07.27.13.19-.14,2.49-.26,5.47-.31,2.13.12,5.59-.29,9.05-.36-1.4.23-3.18.42-5.28.54,2.17.03,2.41-.07,4.59-.03,1.05-.16,1.79-.4,4.62-.57l.15.14c2.56-.15,2.56-.38,5.82-.44,5.59-.13,11.34-.27,15.61-.37l.16.18c2.37-.47,7.91-.38,11.1-.66,2.72.02,5.67-.12,8.29-.23.66-.02,1.29-.05,1.9-.07.61,0,1.19.01,1.73.02,1.08.02,2.01.09,2.7.21,9.63.13,18.02.6,27.92,1.39l-1.69.25c1.8-.14,1.14.3,2.88.38-1.98-.45,2.44-.21,3.69-.36,4.39.62,10.08.69,14,.62l.14.28c3.98-.3,8.64.4,13.54.41.56.11,1.46.37,2.93.3,2.66-.52,4.06-.53,7.98-.95,2.86-.1,7.52-.15,10.44-.07,10.77-1.04,21.81-1.02,33.06-1.48l.82.33c5.47-.36,11.54-.39,17.56.2,5.86.67,11.46,1.41,16.1,1.8l-.94.38c2.87.48,6.61.64,5.91.23,2.88.49,7.26.66,9.06,1.25,2.96.44,3.65.24,6.12.49,5.91.9,8.12,1.12,13.72,1.76l-1.38-.2c-.62,0-.69.16.69.35,2.09.16,7.66,1.04,5.63.37,5.94.98,13.94,1.61,19.71,2.63-.48-.15.98.02,1.61.04,5.23.67,10.72,1.55,14.91,1.95.83.15-1.34-.04.79.24,1.26.14.04-.09,1.6.06,8.5.97,17.15,2.37,24.87,3.35,13.71,1.71,28.01,3.49,41.16,4.94l-.16.03c4.43.29,10.31,1.35,13.86,1.41,1.04.16,3.98.44,3.19.47,3.53.2,9.81,1.18,14.92,1.45-.47-.05-.73-.06-1.28-.09,5.11.66,9.66.87,15.06,1.52-.55-.02-1.55-.09-1.72-.03,2.07.35,4.99.13,6.1.61,1.2.11.87-.12.13-.17,5.92.6,12.06,1.12,18.25,1.52,1.55.1,3.1.19,4.64.26l4.74.3c3.17.33,6.34.73,9.46,1.48,2.22.58,3.3,1.11,3.84,1.35.54.26.52.35.45.4-.14.11-.47-.02,2.98,1.07.5.32.47-.03.52.12,1.32.49,2.26,1.06,3.06,1.65.4.29.79.55,1.18.79.38.26.78.48,1.24.66-.52-.7,1.23.46,1.37.34,4.59,3.22,5.12,4.38,8.67,6.65l-.37-.03c.27.16.53.3.8.45l.4.23c.13.08.25.14.46.3.38.27.75.57.99.88.28.3.54.62.74.93.87,1.25,1.47,2.54,2,3.8,1.06,2.53,1.84,4.97,2.72,6.98,1.82,6.83,3.08,13.63,4.21,20.4,1.1,6.79,2.07,13.49,2.67,20.37.07.88.13,1.73.16,2.69.02.92,0,1.81-.03,2.7-.06,1.78-.21,3.53-.42,5.28-.42,3.5-1.1,6.97-2.13,10.4-1.05,3.42-2.45,6.82-4.48,10-2.01,3.17-4.78,6.13-8.3,8.14-.43.25-.87.49-1.33.69-.46.21-.9.43-1.37.59-.45.16-.98.37-1.36.49l-1.15.38c-1.54.52-3.09,1.07-4.63,1.64-3.09,1.13-6.19,2.3-9.27,3.48-6.17,2.4-12.32,4.8-18.49,7.21-3.09,1.21-6.18,2.43-9.27,3.64-3.27,1.27-6.64,2.28-10.08,3.05-6.88,1.5-14.03,1.93-21.11,1.21-.82-.17-1.55-.31-2.2-.45-.62-.13-1.18-.25-1.69-.36-1.03-.21-1.89-.36-2.77-.49-1.77-.25-3.62-.39-7.1-.66.29-.07.73-.05.28-.2-.41.49-4.88-.5-5.6-.07-9.94-1.23-19.14-2.1-29.38-3.23,1.63.13,2.48-.19.55-.37l-2.05.1-.31-.17c-1.32-.07-2.79.01-1.44.32-12.89-1.22-25.65-2.78-38.34-4.32-12.69-1.55-25.32-3.07-37.94-4.38-5.98-.78-14.52-1.56-21.04-2.2-9.63-1.21-18.8-2.27-28.02-3.21-4.61-.46-9.23-.9-13.93-1.29-2.35-.2-4.72-.38-7.11-.54-1.2-.08-2.4-.15-3.61-.2-.61-.03-1.21-.05-1.82-.05-.3,0-.61,0-.91.01-.15,0-.3.02-.44.04-.07,0-.13.02-.18.04-.02,0,0,0,0,0,.04.02-.12-.13-.1-.11.03-.02-.08,0,.03-.03.06-.01.12-.1.08-.09-.01.01.04-.02-.01.04-.02.02-.06.05-.11.06,0,0,.02.01.02.03.04.02.08.07.1.1h0s.03,0,.05-.02c.04-.02.12-.03.2-.04.34-.05.92-.08,1.74-.09,1.65-.01,4.33.05,8.39.28Z"></path>
    <path class="cls-2" d="M966.97,7.27c.69.02,2.95-.02,1.15.09-.22-.04-1.39-.05-1.15-.09Z"></path>
    <path class="cls-2" d="M1027.23,7.03c.08-.05.86.05,1.05.07-.74.02-1.44.16-2.03.09.75-.02.64-.09.98-.16Z"></path>
    <path class="cls-2" d="M1042.63,6.89c-.23.16-3.53.33-5.47.37l5.47-.37Z"></path>
    <path class="cls-2" d="M1056.86,8.04c1.22.23.88.29-.78.16-.12-.1.43-.11.78-.16Z"></path>
    <path class="cls-2" d="M1057.9,7.72c1.19.08,1.77.21,2.34.36-.04-.16-2.75-.1-2.34-.36Z"></path>
    <path class="cls-2" d="M1088.91,10.76c.75.05,2.38,0,3.07.27-.77-.2-3.66-.04-3.07-.27Z"></path>
    <path class="cls-2" d="M1103.47,11.4c.47.03.67.08,1.22.04.87.13-.05.24-.79.23l-.43-.27Z"></path>
    <polygon class="cls-2" points="1365.9 30.15 1364.34 30.01 1364.58 29.95 1365.9 30.15"></polygon>
    <path class="cls-2" d="M1459.45,72.45c.41,1.51,0,1.1.02,1.36-.27-1.38.34.46-.02-1.36Z"></path>
    <polygon class="cls-2" points="1456.65 132.29 1456.93 131.92 1457.22 132.33 1456.65 132.29"></polygon>
  </g>
  <g>
    <path class="cls-2" d="M50.02,74.12c-3.19,1.24,1.73-.61-2.08.82.43-.18,1.03-.44,2.08-.82Z"></path>
    <path class="cls-2" d="M949.63,7.67c-5.5.17-11.87.3-18.38.34-6.51.05-13.15.06-19.17.29-1.41.04.36-.31-2.82-.21-11.68.56-30.09.54-44.33.07l.86-.14c-2.71-.09-6.02.38-8.89.34-.03-.09.92-.14.25-.26-.72.28-5.19.16-6.41.38-1.14-.11-1.03-.34-2.49-.46l-1.64.34c-4.56.84-11.1.02-17.34.49.3-.09.91-.16.42-.23-10.01.6-22.54.62-33.73.93.44-.15.86-.41.2-.57-.55.43-4.01.57-7,.69-1.36-.44-5.14.46-8.67.25l.3-.1c-2.6.51-3.86-.24-5.97.36l-1.65-.35c-1.14.67-3.77-.31-5.91.05l.07.14c-2.03.18-3.08-.14-4.96-.01l-.18-.08c-4.4.22-6.96-.13-6.85.39-1.55-.41,4.26-.23,1.84-.82-14.48.67-29.41.71-43.99.86-1.66-.2-2.71-.26-3.09-.47-1.45.12-5.48.15-6.81.45.49-.02-.94-.27-1.71-.29-2.66-.18-2.89.63-5.81.41,1.16-.16,1.55-.34,1.16-.54-2.48.45-5.8.42-8.74.58.46-.1,1.16-.16,1.05-.33-3.21.51-5.86-.04-8.67.29l1.05-.32c-4.54-.33-1.33.67-5.25.48.94-.11.61-.23.78-.35-3.65.6-9.56.48-13.21.71.22-.04.16-.13.16-.13-3.97.11-8.13-.02-12.49.27-1.59-.12.51-.74-3.69-.58.16.59-7.13.33-4.65.98-3.59-.06-9.28-.21-11.67.02,1.61-.24-1.76-.69,1.22-.78l-2.26-.32c.33-.24,2.32.05,1.6-.24-1.5.05-5.85.34-7.19.26-2.76.39-5.3,1.07-9.79,1.21,2.11-.25-1.21-.6.22-.72l-6.24,1.17c-1.49.05-.33-.43-2.49-.26.12.14-.82.25-1.48.38-.56-.05-6.2.22-6.86-.3-.66-.2,2.43-.16.77-.32-2.76.06-2.87.25-5.63.31l-.05-.07c-1.82-.04-5.36.33-3.37.58,1.27,0-.49-.31,1.39-.19-1.27.33-4.48.48-7.23.53.94-.1.82-.24,1.2-.39-3.7.46-7.61.75-11.73,1.01-.05.24,1.52-.48,2.13-.37-1.33-.04-2.67-.02-4.01.04l-.54.03c-.23.01-.46-.03-.61-.03l-1-.07c-.67-.04-1.33-.08-1.99-.12-2.63-.17-5.15-.37-7.32-.87.72.05.35.37.31.3-2.54-.34-2.39-.65-4.06-.75-.14-.21-2.09-.21-3.8-.4-.9.01-.43-.15,1.06.04-1.2-.08-4.18-.4-7.54-.93-3.36-.53-7.09-1.3-9.77-2.14.04.07-.82-.05-1.85-.26-1.02-.2-2.24-.55-2.82-.76l.55-.09c-1.02-.55-3.97-1.27-4.12-1.53-1.33-.2,1.18.38,3.51,1.12,2.39.78,4.77,1.3,2.94.92-.43-.23-1.72-.53-2.75-.81-1.01-.26-1.81-.44-1.39-.49-2.39-.76-4.82-1.1-7.11-1.84.67.19,2.07.12.08-.32-3.53-.69-1.02-.11-3.9-.58l-1.82-.22c-.16.2-3.17-.54-1.89-.08-.2-.13-1.5-.3-2.69-.45-.57-.07-1.11-.15-1.49-.2-.35-.04-.56-.08-.48-.18.15-.1.3-.19.46-.28-1.46,0-2.32.5-3.27,1.01-.18.04-.53.15-.49.08-.03.24-.68.58-1.65,1.26-.95.63-2.06,1.36-2.74,2.02-2.78,1.75-6.87,4.72-8.28,5.41-1.01.76-1.97,1.49-2.97,2.24-.51.36-1.03.74-1.56,1.12-.51.36-1.18.83-1.9,1.14.56-.29,1.29-.79,1.37-.95-.83.51-1.39.78-1.92,1.02-.54.24-1.07.46-1.96.65.1-.03-.1,0-.48.02-.4.03-.95.02-1.54.02-1.2,0-2.7,0-3.71,0-2.5.22-1.63.35-1.88.47-.58-.05-1.31-.04-2.12,0-.78.06-1.84.1-2.81-.08-.99-.16-1.97-.49-2.82-.96-.79-.44-1.52-.92-2.06-1.26.71.32,3.23,1.68,1.44.56-.93-.72-1.91-1.22-3.18-1.41-1.25-.19-2.69-.17-4.36.32.29-.02.59-.02.87-.01-.37.06-.87.17-1.36.39-.47.2-1.02.51-1.52.77-.98.52-1.74.91-1.62.73-1.07.63-3.92,1.91-3.46,1.91-2.77,1.28-6.03,2.97-9.21,4.33-.43.16-.75.33-1.36.44-.65.03-1.02-.1-1.44-.21-.81-.23-1.53-.51-2.21-.77-1.35-.54-2.48-1.07-3.31-1.51-.81-.31-2.8-1.2-2.43-.94,1.29.67,1.89.73,2.35,1.01-.72-.3-.9-.32-.98-.33-1.72-.79-3.08-1.39-1.38-.82-1.91-.88-2.93-1.24-4.09-1.61-.29-.09-.58-.18-.91-.28-.29-.08-.72-.21-.93-.21-.06,0-.26.05-.47.11-.21.07-.44.14-.68.22-.49.17-1.03.36-1.66.58.2-.15-.19-.04-1.64.53l-2.71,1.2c-3.2,1.29-1.87.6-2,.52-1.7.73-3.79,1.59-4.53,1.99-.72.26-1.5.45-2.27.53.84-.12.46,0-.25.12-.71.12-1.77.1-2.22.05.3.02.6.03.91.02-.17-.02-.83-.04-1.54-.17-.7-.11-1.5-.23-2.03-.31.12.06.71.18,1.43.32.69.14,1.59.3,2.22.29-.49.03-1.16-.02-1.79-.12-.63-.09-1.31-.19-1.93-.26.43-.05-2.96-.57-4.4-.82-1.66-.3-1.89-.2-2.38-.29-.03-.07-2.71-.46-1.4-.33.57.07,1.29.27,2.23.37-1.09-.22-.94-.31-3.23-.61-1.72-.22.4.3-2.84-.3.86.11,1.02.09,1.69.15l-3.03-.56-.15.09c-.4-.09-.12-.06-.3-.1-.43-.01-1.55-.09-2.6.13-.53.1-1.03.26-1.44.43-.44.17-.77.32-.93.41-1.46.55-3.11,1.06-4.51,1.55l.27-.11c-1.73.55-4,1.39-5.42,1.96l.07-.05c-.94.31-3.17,1.07-4.35,1.51-1.23.32-1.47.25-1.73.24-.27-.03-.52.02-1.92.37-1.35.15-2.33.15-2.89.23-.56.06-.66.14-.15.19-4.61-.2-9.8-.33-14.01-.86-.66.01-.25.08-1.61.02-3.35-.25-6.89-.52-10.25-.77-.84-.07-1.66-.13-2.48-.2-.71-.05-1.4,0-2.07.11-.62.12-1.43.36-2.12.51-.71.17-1.39.33-2.05.46,1.85-.6.08-.22,0-.31-1.5.6-1.91.34-2.38.78.2.13.07.26,1.91-.19-3.83,1.17-9.68,2.84-11.87,3.27,1.07-.21.33.07-.6.38.13-.2-.63-.06-1.75-.02-.53.02-1.26-.01-1.81-.06-.58-.04-1.19-.07-1.75-.08l-.33.17-1.43-.32c-.86,0-.98.35-3.18-.01-.11-.09-.23-.18-.63-.27-2.32-.02-5.59.04-8.08-.34l-2.02-.49c-1.07-.05-2.88,0-1.01.25-1.06-.13-2.03-.25-2.9-.35-.42-.05-.82-.1-1.19-.14-.32-.03-.62-.04-.91-.03-1.15.03-1.96.26-2.57.38-1.6.93-3.41,1.9-5.35,2.9-.48.25-.98.5-1.47.75l-.79.39c-.31.14-.64.27-.97.39-.33.11-.67.21-1.01.29-.34.08-.71.14-.97.18-.57.09-1.15.18-1.73.27-4.65.74-9.45,1.26-13.73,1.69l.23-.23c-2.31.04-1.16.47-2.77.5.72-.27-1.79-.24,0-.66-3.3.11-4.19.78-6.32,1.07-.3.3,1.7-.33,1.32.05-.36.13-4.56.22-5.03.67-.84-.08-.22-.45.2-.65l-1.99.38c-2.49-.26,5.51-1.37,2.89-1.72l-1.84.23c-1.8-.27,4.84-.92.2-.65-1.99.38-3.66,1.14-1.85,1.15-4.18.49-1.85,1.16-6.36,1.52-1.25-.14,3.6-.37,2.71-.64-2.15-.15-4.24.56-6.14.6,2.11-.02.37.55-.98.74-2.31,0,1.45-.52-1.79-.28-.52.29-3.48.72-.89.67-1.13.64-3.39.13-5.12.7-1.09-.29,3.27-1.16-.31-1.06.6.32-4.36.87-2.43,1.26-1.41,0-1.58-.27-.58-.58-2.02-.06-4.79,1.07-5.51.39l-.65.43c-.63-.07-1.54-.09-2.57-.21-1.76.14-5.63.96-5.51.39-.56.1-4.58.41-2.99.67,2.52.03,2.85-.52,4.28-.11-1.8-.29-3.59.35-5.03.61l-.25-.2c-.85.15-2.83.27-3.35.54.65-.18.29-.3-.4-.29l-.87.4c-3.48.44-.87-.51-4.26-.13l2.56-.47c-.56.1-1.74-.11-3.36.13-.61.35-1.76.8-2.28,1.07-1.9.29-.89-.26-2.74.19l2.44-.56c.36-.13-1.71-.35-4.26-.13-1.62.24-4.12.88-1.53.81-1.28.11-3.09.09-2.09-.21-2.89.35.41.28-2.08.67-1.04-.1-4.26-.11-6.21-.22l2.57-.7-1.74.15c2.22-.58-1.17-.19.06-.71-1.19.04-2.62.32-3.75.53,3.53.32-3.81,1.23-2.74,1.72-4.74.59-3.11-1.14-7.98.25.83.07-1.47.73,1.51.27-2.96.23-1.95.76-5.45.87,2.56-.48-2.83-.29.86-.99-.23.21,2.09-.07,2.66-.18-1.24-.09.19-.59-2.83-.28-1.84.24-4.37.5-3.97.76.11.3,2.82-.32,1.67.12-3.66.48-4.32.1-5.78.81,2.31-.3,2.93-.04,2.91.18l-2.68.42.5-.26c-4.33.32-1.23.51-5.42.9l-2-.15c.94-.49,6.09-.54,5.28-1.02-2.72.27-3.59.66-6.16.85.57-.11,1.33-.25,1.89-.35-.97.1-2.04-.5-5.85.42-1.97.42-.5.26-.52.47-2.16.33-3.55.63-4.75.87-1.19.26-2.23.41-3.58.72.49-.48-4.83.91-1.89-.06,1.4-.15,7.65-1.08,9.12-1.69-1.65-.25,3.42-.4,4.3-.98-3.5.44-3.4-.04-4-.26-.97.13-1.89.41-2.46.55-.36.34.9.14,1.01.41-1.94.27-3.85.58-5.52.92-1.65.4-3.07.79-4.1,1.13-1.3.13-.97-.21.54-.54-4.54,1.04-9.41,2.29-13.73,3.31,2.88-.34-4.78,1.34-2.79,1.17,2.32-.53,4.39-.73,3.16-.25-1.45.34,0-.18-.62-.11-1.78.66-2.94.42-4.65,1.21,4.1-1.21.68-.67,1.36-1.16-2.93.97.07-.24-2.87.56-2.93.97-6.53,2.11-9.8,3.12-4.2.95-10.43,3.1-14.08,4.26-1.95.49-.73-.17-2.82.47-2.43.8,1.89-.34-1.75.73l.33-.16c-1.08.39-6.64,2.04-7.6,2.69l1.03-.59c-.68.21-1.28.46-1.83.67-.05-.06-.85.15.22-.28-2.26.63-4.63,1.63-7.02,2.49l1.58-.43c-4.08,1.52-6.86,2.39-10.8,3.86l.09-.12-2.33.9c.55-.28-1.62.48-2.84.99l6.03-2.45c1.71-.58-1.81.79-.72.47.93-.27,4.59-1.6,5.14-1.91-1.41.5-1.47.55-2.54.97-.51.05,1.62-.72,2.64-1.2-.73.27-1.79.62-1.93.72,1.41-.59,2.86-1.15,5.26-2.02-1.61.65.92-.23.31.03.15-.2,2.42-1.08,5.41-2.1,2.19-.58,5.56-2.09,9.04-3.22-1.35.65-3.1,1.39-5.18,2.18,2.2-.66,2.41-.84,4.63-1.47,1.01-.48,1.7-.94,4.51-1.97l.2.09c2.56-.91,2.49-1.14,5.8-2.16,5.66-1.75,11.51-3.49,15.86-4.74l.22.13c2.31-1.09,8.03-2.44,11.26-3.48,2.81-.67,5.83-1.47,8.52-2.2,2.69-.71,5.12-1.16,6.6-1.3,10.02-1.98,18.85-3.16,29.34-4.24l-1.72.56c1.85-.48,1.24.08,3.08-.17-2.15-.07,2.51-.67,3.79-1.04,4.7-.17,10.66-1.1,14.78-1.76l.19.26c4.14-.91,9.18-.92,14.4-1.29.61.06,1.58.24,3.13.07,2.79-.7,4.27-.79,8.4-1.44,3.03-.26,7.96-.56,11.05-.64,11.34-1.62,23.02-2.16,34.82-3.59l.88.25c5.7-.88,12.09-1.45,18.23-2.14.77-.08,1.53-.17,2.29-.25l1.14-.12c.31-.04.6-.09.89-.16.29-.07.57-.16.85-.27.33-.14.66-.28.99-.42.68-.29,1.36-.58,2.02-.87,1.33-.58,2.61-1.14,3.85-1.68.31-.14.61-.27.92-.41.32-.14.71-.31,1.07-.43.74-.25,1.49-.41,2.22-.5-.36.2-.71.41-1.03.65.88-.14,1.82-.2,2.73-.14.84.07,1.56.11,2.21.13,1.28.03,2.08-.04,1.7-.24,3.07.45,7.7.57,9.62,1.13,3.14.4,3.87.19,6.49.41,1.55.17,2.99.44,3.89.42.5,0,.97-.07,1.42-.17.53-.13,1.04-.26,1.55-.39,2.05-.54,4.06-1.07,6.95-1.83l-1.44.34c-.61.24-.63.41.82.06,2.13-.65,7.95-1.95,5.7-1.8.78-.18,1.59-.36,2.42-.55.39-.09.9-.23,1.39-.29.5-.08,1.01-.11,1.52-.11,1.08.01,1.92.16,2.84.23.91.09,1.83.18,2.75.27,3.67.35,7.32.69,10.39,1.1-.52-.14,1.04-.01,1.7-.02,2.78.24,5.62.52,8.33.71,1.35.1,2.67.17,3.91.19.61,0,1.24,0,1.74-.05.51-.04,1.04-.19,1.56-.33.85-.17-1.31.46.85-.07,1.27-.38,0-.1,1.56-.59,4.28-1.35,8.62-2.82,12.85-4.29.53-.18,1.06-.37,1.58-.55.53-.19,1.15-.37,1.74-.47,1.18-.21,2.43-.17,3.54.05,2.14.37,4.23.72,6.26,1.07,1.81.29,3.62.58,5.45.87l2.74.44,1.35.22c.42.06.84.08,1.26.07.84-.02,1.68-.17,2.48-.46.78-.3,1.69-.7,2.53-1.05,1.72-.71,3.43-1.43,5.15-2.14,1.72-.69,3.44-1.38,5.21-2,.45-.15.88-.3,1.41-.42.12-.03.33-.07.54-.06.21.01.39.05.51.08.27.07.5.14.73.22.91.32,1.75.66,2.6,1.01,3.36,1.39,6.65,2.91,9.87,3.96h-.16c.27.08.55.15.82.21.26.06.56.1.69.1.04.02.32-.08.6-.2.28-.12.57-.24.86-.36,1.17-.52,2.39-1.09,3.58-1.65,2.37-1.13,4.62-2.25,6.2-3.27,1.01-.46,3.76-1.94,3.08-1.46.41-.23.86-.48,1.34-.75.45-.25,1.1-.58,1.74-.79,1.31-.46,2.86-.64,4.42-.42.78.11,1.56.32,2.31.62.37.15.74.33,1.09.52l.96.53c.66.37,1.18.65,1.79.84.59.19,1.2.3,1.79.33-.43-.05-.67-.08-1.17-.17.58.16,1.16.26,1.75.28.55.02,1.23-.04,1.89-.08,1.31-.09,2.6-.18,3.9-.26,1.3-.09,2.61-.18,3.96-.27,1.18-.07,2.35-.4,3.44-1.02-.41.31-1.26.69-1.38.79.48-.12.97-.35,1.43-.65.24-.15.44-.3.68-.49.24-.19.48-.38.72-.57.94-.74,1.79-1.39,2.4-1.59,1.04-.75.63-.69,0-.22,2.59-1.81,5.2-3.68,7.84-5.58,1.31-.95,2.64-1.91,3.96-2.87.69-.49,1.27-.95,2.04-1.47.8-.51,1.67-.92,2.59-1.19.92-.28,1.88-.42,2.85-.42,1.02,0,1.8.13,2.64.21,1.66.18,3.32.38,4.98.62,3.32.48,6.62,1.09,9.89,1.91,2.31.7,3.47,1.21,4.04,1.49.53.27.51.36.44.41-.13.07-.51.11,3.04.85.55.25.47-.1.54.04,2.76.51,4.17,1.56,6.17,1.64-.74-.49,1.33.04,1.43-.16,5.58,1.15,6.69,1.62,11.21,1.91l-.36.15c2.67.05,5.51.3,8.27.5,1.38.1,2.73.18,4.02.23.65.02,1.27.03,1.88.02.3,0,.6-.01.9-.02l.44-.02c.06-.01.05-.04.12-.06,3.68-.16,7.34-.33,10.99-.49,3.64-.12,7.26-.25,10.87-.37,7.22-.23,14.38-.46,21.53-.69,14.28-.43,28.48-.84,42.79-1.13,28.3-.33,56-1,84.74-.7,6.74.64,7.24.61,14.63.31-.3.11-.76.13-.27.23.37-.54,5.21-.07,5.91-.59,10.62.07,20.41-.09,31.34-.09-1.73.05-2.59.46-.54.43l2.15-.32.35.14c1.4-.08,2.93-.32,1.48-.48,13.73-.2,27.35,0,40.89.2,13.55.21,27.03.43,40.47.46,6.39.17,15.48.1,22.41.1,20.57.55,39.11.7,60,.6,0,0-.7.02-2.44.09-1.76.05-4.59.17-8.9.24Z"></path>
    <path class="cls-2" d="M53.86,72.63c.7-.23,2.94-1.04,1.18-.31-.24.04-1.4.44-1.18.31Z"></path>
    <path class="cls-2" d="M114.78,53.69c.07-.07.89-.17,1.1-.2-.76.21-1.43.53-2.06.61.77-.22.63-.25.96-.41Z"></path>
    <path class="cls-2" d="M130.6,49.78c-.2.22-3.56,1.13-5.55,1.65l5.55-1.65Z"></path>
    <path class="cls-2" d="M145.53,47.76c1.32-.01.97.09-.77.33-.14-.07.43-.21.77-.33Z"></path>
    <path class="cls-2" d="M146.54,47.24c1.25-.16,1.88-.14,2.5-.12-.07-.14-2.88.45-2.5.12Z"></path>
    <path class="cls-2" d="M179.35,44.33c.79-.09,2.48-.4,3.24-.25-.84-.08-3.82.59-3.24.25Z"></path>
    <path class="cls-2" d="M194.6,42.71c.5-.03.7,0,1.27-.11.91.02-.03.24-.79.32l-.48-.21Z"></path>
    <path class="cls-2" d="M466.2,14.57c-.51-.03-1.02-.02-1.52.04l.22-.1c.44-.02.87.01,1.3.06Z"></path>
    <path class="cls-2" d="M582.63,13.22c1.65-.16,1.16.17,1.43.2-1.49.05.54-.26-1.43-.2Z"></path>
    <polygon class="cls-2" points="648.6 11.2 648.1 11.21 648.27 10.73 648.6 11.2"></polygon>
  </g>
  <g>
    <path class="cls-2" d="M126.91,88.71c-4.97-1.87,2.64,1.1-3.25-1.23.68.26,1.63.62,3.25,1.23Z"></path>
    <path class="cls-2" d="M1186.94,143.65c4.26.4,8.87.83,13.65,1.37,4.79.51,9.77,1.09,14.8,1.72,10.06,1.22,20.29,2.63,29.62,3.72,2.18.27-.61.22,4.32.83,18.08,2.04,46.41,6.51,68.11,10.97l-1.34-.1c4.14.83,9.29,1.29,13.67,2.18.02.1-1.43-.13-.43.18,1.16-.08,7.97,1.35,9.87,1.52,1.71.45,1.5.64,3.72,1.2l2.58.17c3.25.3,7.07,1.01,11.15,1.94,1.98.46,4.03.93,6.11,1.41.49.09.99.33,1.27.77.3.42.39.97.3,1.47-.11.5-.42.97-.88,1.21-.45.24-.93.43-1.4.65-.74.31-1.48.57-2.31.79.46-.18,1.26-.48.56-.37-1.81.54-3.83.76-5.86.58-1.02-.09-2.03-.32-3.07-.51-1.03-.2-2.08-.41-3.13-.62-4.22-.79-8.59-1.58-13.03-2.36-8.87-1.55-17.97-3.12-26.58-4.45.71-.03,1.39-.18.41-.51-.92.27-6.25-.52-10.86-1.19-2-.8-7.97-.89-13.34-2.01l.48-.03c-4.07-.18-5.89-1.22-9.22-1.17l-2.48-.76c-1.86.36-5.73-1.24-9.09-1.43l.09.15c-3.14-.33-4.71-.91-7.62-1.23l-.26-.12c-6.8-.86-10.69-1.81-10.6-1.26-2.31-.77,6.6.78,2.96-.38-11.19-1.39-22.54-2.92-33.92-4.24-11.37-1.22-22.86-1.98-34.15-1.07-2.58,0-4.22.09-4.82-.05-2.24.32-8.47,1.08-10.49,1.6.75-.1-1.49-.1-2.68,0-4.13.26-4.42,1.11-8.96,1.3,1.79-.3,2.37-.56,1.75-.69-1.9.39-4.15.7-6.48.94-1.17.11-2.36.23-3.54.34-1.24.08-2.38.01-3.54.04.71-.08,1.82-.1,1.65-.28-5.01.37-9.11-.31-13.51-.1l1.65-.28c-7.04-.54-2.1.61-8.2.24,1.47-.06.96-.2,1.23-.32-5.71.44-14.9.04-20.59.1.34-.03.26-.12.26-.12-6.19-.07-12.64-.39-19.45-.31-2.47-.19.84-.71-5.71-.75.22.6-11.12,0-7.28.75-5.59-.23-14.42-.65-18.15-.54,2.52-.16-2.7-.77,1.95-.72l-3.5-.43c.53-.23,3.61.16,2.51-.16-2.34-.03-9.13.05-11.2-.09-4.32.26-8.31.82-15.29.72,3.29-.14-1.85-.66.39-.71l-9.78.85c-2.32-.03-.49-.45-3.86-.38.17.15-1.29.21-2.32.3-.87-.08-9.66-.1-10.66-.65-1.01-.23,3.79-.03,1.22-.27-4.29-.09-4.49.08-8.78,0l-.08-.07c-2.83-.14-8.36.03-5.29.39,1.97.06-.74-.33,2.17-.11-2.01.26-7,.22-11.29.13,1.47-.05,1.29-.19,1.89-.32-5.78.27-11.9.25-18.34.25-.11.24,2.42-.38,3.36-.23-8.25-.53-17.06.04-23.92-.61,1.13-.01.6.34.52.27-3.98-.13-3.79-.46-6.38-.4-.25-.2-3.26-.02-5.93-.03-1.38.1-.69-.11,1.63-.07-3.72.08-18.6-.05-27.18-.54.16.12-5.29.27-7.26.2l.78-.24c-1.8-.2-6.62-.16-6.94-.39-4.23.2,16.25.16,10.53.25-1.47-.26-7.96.2-6.71-.12-3.97-.09-7.82.08-11.6-.26,1.1.07,3.23-.26.03-.32-5.64-.1-1.61.08-6.18.04l-2.87.02c-.2.22-5.04-.17-2.95.14-.69-.21-8.2-.12-7.6-.47l.79-.27c-2.44-.04-4,.2-5.92.27-.32-.04-.96-.11-.83-.15-.4.41-5.82-.19-8.72.04-5.11-.28-12.99-.38-15.39-.68-3.93,0-7.52.03-12-.17.9,0,2.12.02,2.37-.05-2.81-.18-3.51-.1-6.08-.12.58-.04-5.62-.35-8.74-.54-3.91,0-2.58.2-2.97.3-3.56-.4-11.03-.11-15.49-.5,1.35,0,5.7,0,2.46-.15-3.56-.37-7.2.03-12.96-.26l1.41.26c-2.56-.2-8.48-.1-7.88-.3-1.93.03-6.78-.24-6.15-.02-4.72-.21-10.47-.33-15.76-.46-2.64-.07-5.18-.09-7.44-.37-2.23-.24-4.15-.52-5.58-.76-1.35-.13-4.71-.55-4.03-.38,2.23.36,3.13.3,3.96.46-1.21-.13-1.48-.12-1.61-.11-2.92-.39-5.21-.67-2.44-.49-6.48-.87-6.73-.5-14.99-1.49.38-.03-.24-.13-2.66-.38l-4.61-.36c-5.35-.58-3.02-.48-3.14-.61-2.86-.27-6.37-.6-7.67-.64l-3.46-.47c2.52.33-2.36-.14-3.71-.23l1.35.09c-.53-.09-3.84-.37-5.51-.48.39.1,3.77.42,5.61.6-1.47-.07-3.74-.3-5.69-.38.65-.07-4.66-.45-6.94-.64-2.61-.21-2.95-.1-3.72-.15-.06-.07-4.27-.3-2.22-.25.89.04,2.03.2,3.51.25-1.72-.16-1.51-.26-5.09-.42-2.7-.11.68.26-4.43-.11,1.35.05,1.6.01,2.64.03l-4.79-.34-.21.1c-.64-.06-.2-.05-.5-.08-.72.02-2.54-.08-4.33-.17-1.79-.07-3.53-.13-4.08-.09-2.42-.09-5.09-.32-7.4-.4h.44c-2.82-.15-6.58-.22-8.95-.21l.13-.02c-1.54-.05-5.19-.07-7.12-.03-3.9-.15-1.31-.51-5.62-.4-3.96-.04-6.21.18-4.62.28-7.12-.15-15.2-.03-21.79-.37-1.02.05-.38.09-2.49.1-10.45-.26-22.07-.23-30.37-.83,3.03,0,.21-.18.15-.3-2.5.1-3-.28-3.9,0,.24.18,0,.26,2.93.42-6.23-.08-15.71-.37-19.16-.68,1.73.15.39.16-.98.17.47-.3-4.13-.51-7.61-.54l-.5.18-2.25-.3c-1.34.01-1.5.37-4.94.03-.17-.09-.37-.18-1-.26-3.61,0-8.69.08-12.59-.33l-3.19-.53c-.44-.03-.87-.02-1.42-.06-.55-.04-1.09-.09-1.29-.08-.25,0-.37.01-.27.06.14.05.31.11,1.29.27-.44-.07-.87-.14-1.29-.21-.35-.06-.69-.13-1.03-.19-.74-.11-1.45-.21-2.12-.31-1.35-.19-2.56-.35-3.63-.5-2.15-.3-3.73-.55-4.76-.8-11.48-.44-28.05-1.94-41.32-3.29l.41-.16c-3.54-.54-1.88.17-4.36-.21,1.17-.08-2.67-.68.15-.65-5.08-.71-6.61-.29-9.93-.52-.53.22,2.68.09,2.01.37-.58.04-7.03-.9-7.87-.57-1.26-.29-.24-.49.47-.59l-3.14-.11c-3.76-.86,8.77,0,4.83-.98l-2.88-.22c-2.69-.7,7.65.28.45-.59-3.15-.11-5.89.22-3.12.68-6.52-.54-3.11.68-10.11-.05-1.89-.43,5.61.5,4.3.03-3.27-.66-6.64-.47-9.56-.89,3.24.48.44.63-1.67.49-3.54-.55,2.35-.16-2.69-.71-.86.16-5.51-.13-1.52.44-1.88.36-5.23-.68-8.02-.54-1.61-.55,5.28-.36-.24-1.11.84.46-6.89-.19-4.01.65-2.16-.33-2.36-.64-.75-.7-3.08-.54-7.59-.1-8.54-.94l-1.1.26c-.96-.22-2.34-.46-3.9-.82-2.74-.29-8.86-.41-8.55-.95-.88-.03-7.12-.71-4.75-.07,3.86.64,4.49.18,6.59.93-2.69-.71-5.6-.53-7.86-.62l-.34-.25c-1.34-.06-4.41-.43-5.27-.28,1.03-.02.52-.22-.54-.38l-1.43.18c-5.44-.41-1.22-.71-6.51-1.17l4.04.17c-.88-.04-2.65-.53-5.19-.7-1.01.19-2.89.35-3.76.48-2.99-.19-1.3-.47-4.26-.49l3.87.06c.59-.04-2.54-.76-6.51-1.18-2.55-.17-6.54-.19-2.54.41-2-.22-4.78-.7-3.17-.74-2.27-.2-2.12-.11-1.91,0,.23.12.47.23-1.39.14-.75-.17-2.32-.4-4.06-.55-1.76-.15-3.66-.21-5.16-.22,1.34-.27,2.62-.49,3.96-.67-.88,0-1.77.04-2.65.09,3.42-.56-1.76-.2.15-.71-1.83.06-4.08.39-5.85.62,5.46.22-5.99,1.35-4.38,1.8-7.4.73-4.75-1.03-12.4.5,1.28.04-2.33.77,2.32.23-4.61.31-3.08.82-8.54,1.03,4.01-.56-4.37-.21,1.42-1.02-.38.22,3.26-.13,4.15-.26-1.92-.06.34-.6-4.38-.2-2.87.3-6.82.64-6.23.88.15.3,4.4-.4,2.58.07-5.73.59-6.73.2-9.06.94,3.62-.34,4.56-.1,4.51.12l-4.21.47.8-.27c-6.77.4-1.96.54-8.53,1l-3.11-.16c1.54-.46,9.55-.6,8.34-1.07-4.26.32-5.65.72-9.69.89.89-.1,2.11-.24,2.99-.34-1.53.09-3.1-.49-9.17.35-3.15.36-.82.24-.89.45-1.73.12-3.14.22-4.42.27-.32.01-.63.03-.92.04-.33,0-.65,0-.97-.01-.62-.01-1.13-.11-1.66-.15-2.06-.29-3.74-.7-5.94-1.48.51-.01-1.41-.71-2.77-1.36-1.37-.64-2.25-1.08.11-.19,1.01.57,3.9,1.89,7.1,2.57.8.17,1.61.31,2.41.38.77.1,1.7.08,2.33.04,1.37-.07,2.43-.21,3.04-.33-2.54-.32,5.42-.25,6.85-.87-5.5.39-5.27-.12-6.18-.35-1.53.07-3,.27-3.93.32-.65.29,1.37.25,1.5.53-.79,0-1.53.05-2.36.01-.84,0-1.59-.15-2.35-.25-1.51-.27-2.93-.62-4.25-1.02-2.63-.8-4.82-1.73-6.43-2.39-1.79-1.1-1.09-.99,1.13.08-3.36-1.58-6.65-3.57-9.69-5.84l-.28-.21-.04-.03h0c-.16.2.22-.3.16-.23l-.03.04-.12.14c-.07.07-.05.01-.07.02l-.09-.03c-.07-.02-.09-.05-.19-.08l-.31-.09c-.4-.13-.83-.23-1.28-.33-.87-.21-1.78-.37-2.66-.54-1.78-.33-3.54-.63-5.24-.9,4.36,1.05-7.65-1.05-4.68-.27,3.66.62,6.76,1.41,4.72,1.27-2.28-.38.1-.16-.84-.39-2.94-.24-4.49-1.02-7.4-1.1,6.61.83,1.35-.28,2.6-.41-4.78-.5.23-.19-4.47-.84-4.78-.49-10.63-1.14-15.92-1.8-6.6-1.14-16.8-2.3-22.71-3.17-3.08-.57-.95-.51-4.3-1.04-3.94-.58,2.89.7-2.93-.28l.57.04c-1.77-.2-10.66-1.79-12.43-1.8l1.83.07c-1.08-.2-2.1-.32-3-.45-.03-.08-1.29-.36.49-.11-3.56-.75-7.54-1.26-11.41-2.05l2.47.61c-3.34-.61-6.1-1.21-8.82-1.89-1.36-.36-2.71-.7-4.09-1.15-.7-.2-1.4-.46-2.12-.73-.67-.28-1.49-.4-2.27-.62l.21-.03-3.78-.93c.94.17-2.51-.78-4.5-1.3,3.26.87,6.55,1.65,9.85,2.38.71.24.81.31.7.28-.12-.02-.53-.19-.97-.26-.88-.18-1.89-.4-1.04-.15.35.12,1.02.24,1.74.52.74.28,1.62.6,2.5.85,1.75.53,3.47.92,3.96.99-2.24-.59-2.37-.57-4.1-1.07-.35-.17.32,0,1.29.26.98.22,2.25.56,3.11.7-1.18-.27-2.84-.76-3.1-.78,2.31.55,4.66,1.1,8.55,1.88-2.65-.48,1.42.38.41.22.34-.07,4.07.62,8.91,1.47,3.43.77,9.13,1.35,14.76,2.19-2.31-.14-5.25-.43-8.69-.91,3.52.65,3.93.61,7.46,1.23,1.73.11,2.99.09,7.62.64l.23.18c4.2.5,4.23.28,9.56,1.02,9.13,1.27,18.54,2.45,25.52,3.37l.24.22c3.94.1,12.96,1.52,18.21,2.17,1.11.21,2.24.42,3.39.64.57.11,1.15.25,1.73.38l.89.25c.27.08.78.32,1,.48,1.83,1.36,3.76,2.58,5.61,3.63,3.71,2.12,7.15,3.53,9.23,4.38,1.85.57,3.72.98,5.56,1.11,1.79.04,3.73-.13,5.59-.26,3.75-.29,7.46-.65,11.18-1,7.45-.71,14.97-1.43,23.14-2.11l-2.71.62c2.9-.53,1.92.05,4.78-.26-3.32-.01,3.94-.74,5.95-1.15,3.65-.17,7.8-.53,11.85-.94,2.03-.21,4.04-.43,5.94-.63,1.94-.17,3.79-.25,5.45-.25l.24.28c1.67-.06,3.46.06,5.21.22,1.77.16,3.6.36,5.48.59,3.76.46,7.72.95,11.76,1.45.92.21,2.36.63,4.78.84,4.44,0,6.74.26,13.22.63,4.71.47,12.34,1.37,17.11,2.03,17.78,1.13,35.84,3.37,54.29,4.89l1.3.47c17.92,1.16,39.8,4.08,55.08,5.55l-1.53.31c2.38.35,5.1.65,7.1.82.99.07,1.91.2,2.43.21.45,0,.53-.09.34-.19.23.03.47.07.72.11.31.03.63.06.95.1.65.06,1.32.12,2.02.17,1.39.09,2.83.17,4.22.26,2.77.17,5.33.32,6.84.6,4.91.37,6.02.16,10.1.33,9.82.7,13.48.83,22.76,1.2l-2.3-.13c-1.02.03-1.12.19,1.19.32,3.46.06,12.72.64,9.29.08,9.9.67,23.11.76,32.74,1.31-.82-.12,1.61-.06,2.64-.09,8.69.26,17.83.6,24.78.59,1.39.07-2.21.08,1.34.17,2.1.02.05-.1,2.63-.08,14.12.17,28.56,1.2,41.35,2.07,11.38.75,22.99,1.77,34.45,2.95,5.73.59,11.43,1.22,17.05,1.86,2.81.32,5.6.63,8.37.95,2.75.29,5.53.64,8.17.77l-.24.04c7.3-.03,17.14.55,22.98.34,1.73.09,6.6.14,5.31.23,5.83-.06,16.3.45,24.72.36-.77-.02-1.21-.01-2.11,0,8.49.29,16,.2,24.97.49-.91.02-2.57.02-2.83.09,3.46.21,8.22-.2,10.11.22,1.98.03,1.42-.17.2-.18,19.64.47,40.62.53,61.07.69,14.64.55.86.92,12.44.7.94.12.69-.2.85-.08,4.48-.09,6.94.75,10.06.51-1.27-.37,2.07-.16,2.17-.37,8.95.38,10.73.76,17.81.6l-.54.19c8.31-.4,17.89.08,24.91-.47,45.7.64,89.51,1.25,134.07,1.87,11.01.23,21.96.46,32.9.68,5.47.11,10.93.21,16.39.32l1.02.02h.26s.11,0,.11,0c-.03,0-.05,0-.04,0l.3-.02,2.02-.16c1.35-.11,2.7-.21,4.05-.34,2.7-.24,5.39-.52,8.08-.81,5.39-.6,10.8-1.32,16.34-1.9,5.54-.6,11.22-.89,16.86-.81,5.64.07,11.25.46,16.84,1,5.61.6,11.16,1.33,16.71,2.16,10.32,2.11,11.09,2.21,22.53,3.66-.47.04-1.19-.05-.45.17.65-.46,8.03,1.19,9.19.85,16.34,2.67,31.4,5.01,48.18,7.92-2.66-.41-4.06-.23-.9.28l3.35.26.51.23c2.17.3,4.56.48,2.36-.07,8.68,1.44,17.32,2.99,25.93,4.65,4.3.83,8.59,1.69,12.9,2.66l3.23.74c.87.21,1.75.34,2.64.38.89.03,1.78-.01,2.67-.15.22-.04.44-.07.66-.12l.32-.07s.01,0,.02,0c0,0,.03,0,.03,0,.12.03.16-.16-.02-.16l-4.3-.99c-1.5-.36-3.02-.67-4.53-1.01-6.04-1.34-12.09-2.59-18.14-3.82-12.1-2.45-24.23-4.65-36.35-6.73-9.76-1.85-23.74-3.97-34.41-5.6-31.56-5.28-60.16-9.15-92.51-12.46,0,0,1.07.09,3.79.32,2.73.26,7.13.58,13.81,1.28Z"></path>
    <path class="cls-2" d="M132.99,90.7c1.07.38,4.64,1.44,1.78.67-.34-.14-2.16-.74-1.78-.67Z"></path>
    <path class="cls-2" d="M230.47,109.48c.13-.03,1.39.26,1.7.33-1.21-.16-2.37-.19-3.32-.41,1.23.16,1.05.06,1.62.08Z"></path>
    <path class="cls-2" d="M254.09,115.92c-.21-.03-1.51-.76-3.05-1.79-.39-.26-.79-.53-1.19-.83l-.3-.22-.08-.05h0s0-.01,0-.01c1.12-1.48.3-.4.55-.73l-.02.02-.13.15-.25.31-.19.26h-.01s-.02,0-.02,0c-.03,0-.02,0-.08-.03l-.3-.08c-.38-.11-.83-.21-1.26-.3-.42-.1-.84-.18-1.23-.25.73.11,1.44.26,2.12.4.83.24.71.07,1.55.68,1.27.88,2.58,1.7,3.91,2.47Z"></path>
    <path class="cls-2" d="M277.25,123.1c2.07.02,1.51.14-1.27.29-.21-.08.71-.17,1.27-.29Z"></path>
    <path class="cls-2" d="M278.92,122.61c1.97-.14,2.96-.1,3.92-.08-.09-.13-4.56.41-3.92.08Z"></path>
    <path class="cls-2" d="M330.22,119.07c1.23-.11,3.88-.47,5.05-.34-1.3-.05-5.97.69-5.05.34Z"></path>
    <path class="cls-2" d="M353.6,119.38c.77.1,1.08.17,1.98.21,1.4.24-.1.23-1.3.12l-.68-.33Z"></path>
    <polygon class="cls-2" points="787.38 148.54 784.79 148.52 785.18 148.44 787.38 148.54"></polygon>
    <path class="cls-2" d="M977.88,153.67c2.58-.07,1.79.24,2.22.28-2.33-.04.87-.23-2.22-.28Z"></path>
    <polygon class="cls-2" points="1080.65 155.02 1079.87 155.01 1080.15 154.54 1080.65 155.02"></polygon>
  </g>
  <g>
    <path class="cls-2" d="M160.79,70.51c.21-.03-.09-.22.14-.07-.04.09-.09.16-.14.07Z"></path>
    <path class="cls-2" d="M104.35,71.66c.96-.11,1.47-.17,2.3-.27.09-.01-.02.02.17,0,.71-.11,1.84-.23,2.72-.28l-.05.02c.17-.01.37-.07.54-.08,0,0-.06.02-.01.02.04-.03.32-.04.39-.06.07,0,.07.02.16.02l.1-.03c.27-.09.68-.06,1.06-.13-.02,0-.06.02-.02.02.61-.1,1.38-.17,2.07-.26-.03.02-.05.04,0,.05.03-.04.24-.07.42-.1.09.04.31-.07.53-.07h-.02c.16-.05.24.02.36-.05l.1.03c.06-.07.23.01.36-.04h0c.12-.04.19-.01.31-.04h.01c.27-.04.43-.01.42-.07.1.04-.26.04-.11.09.89-.13,1.8-.19,2.7-.26.1.02.17.02.19.05.09-.02.34-.04.42-.08-.03,0,.06.03.11.03.17.01.17-.09.35-.07-.07.03-.09.05-.07.07.15-.07.35-.08.53-.11-.03.01-.07.03-.06.05.19-.08.36-.01.53-.07l-.06.05c.28.03.08-.1.32-.09-.06.02-.04.03-.04.05.22-.1.58-.1.81-.15-.01,0,0,.02,0,.02.24-.03.5-.01.77-.07.1.02-.02.12.23.09-.02-.1.44-.07.28-.17.22,0,.57.02.72-.03-.1.05.12.12-.07.14l.14.06s-.14,0-.1.04c.09,0,.36-.07.44-.05.17-.07.32-.21.59-.24-.13.05.08.12,0,.14l.37-.24c.09-.01.02.09.16.05,0-.03.05-.05.09-.08.04.01.38-.06.43.06.04.04-.15.03-.04.07.17-.01.18-.05.34-.06v.02c.12.01.33-.07.21-.13-.08,0,.03.07-.08.04.08-.07.27-.11.44-.12-.06.02-.05.05-.07.09.22-.11.46-.16.72-.21,0-.06-.09.11-.13.08.33.06.67-.15.95-.05-.04.01-.03-.08-.02-.07.16,0,.15.09.26.05.01.05.13-.02.23-.04.05-.04.03.02-.06.03.15-.05.73-.17,1.07-.11,0-.03.2-.14.28-.14l-.03.09c.07.05.26-.02.28.05.16-.11-.64.12-.42.03.06.07.31-.15.27-.03.16-.01.31-.12.46-.04-.04-.01-.12.13,0,.11.22-.03.06-.04.24-.08l.11-.04c0-.08.2,0,.11-.09.03.07.32-.06.31.08l-.03.11c.1-.01.15-.13.23-.18.01,0,.04.03.04.05,0-.17.23,0,.34-.14.2.05.52-.03.61.08.15-.06.29-.13.47-.1-.03.02-.08.03-.09.07.11.05.14,0,.24-.03-.02.03.23.1.35.16.15-.06.1-.16.11-.22.15.18.43-.14.62.02-.05.03-.22.1-.09.14.15.18.28-.15.51-.07l-.06-.15c.1.09.33-.11.31.06.08-.06.27.04.24-.11.38.12.91-.12,1.15.16.05-.03.19,0,.16-.09-.09-.09-.12.07-.16,0,.05,0,.06-.05.06-.07.12.03.21.04.1.18.26.09.26-.29.59-.24-.01.07.01.09.11.08l.18-.12c.21.02.12.15.13.27.11-.02.25-.02.3-.11l.14.15c-.1-.11.09-.07.15-.1l-.05.03s.15.02.22,0c-.02-.07-.15-.1-.23-.12.06-.05.15-.04.22-.11-.02.12.19.08.28.09.1.02.12-.11.15-.11,0,.06.17,0,.09.09-.04.02-.08-.06-.14,0,.07.04.06.15.2.07.11-.06-.03-.24.17-.16-.05.03-.06.08-.1.12l.19.06v-.11s.02.04.03.05c.06-.12.29-.04.33-.17.1-.01.2.07.3.08h-.02c.11.07.26.03.36-.05v.02c.06,0,.2-.01.28-.08.16.08.05.43.22.28.16,0,.25-.22.18-.29.28.07.6-.13.87.05.04-.05.01-.08.1-.11.41.04.88-.16,1.21.08-.12.05,0,.12,0,.19.1-.11.12.11.16-.07,0-.11,0-.16-.12-.21.25-.06.62-.07.76.03-.07-.05-.02-.09.04-.12-.02.18.16.2.3.14l.02-.11.09.11c.05-.04.06-.23.2-.13,0,.04.01.09.04.12.14-.09.35-.25.5-.16l.13.16c.07-.02.18-.12.06-.16.26.09.43.11.52.25.46-.35,1.12-.37,1.65-.34l-.02.09c.14.08.08-.16.18-.09-.05.08.1.18,0,.29.2.09.27-.15.4-.19.02-.12-.11.08-.08-.07.02-.04.28.09.32-.09.05.07,0,.2-.02.27l.13-.09c.15.21-.36.37-.2.63l.12-.03c.1.19-.31.21-.02.28.13-.09.24-.35.13-.43.26-.05.13-.43.41-.41.07.11-.22.03-.17.17.13.15.27-.08.38-.03-.13-.07-.01-.25.07-.29.14.09-.1.17.1.19.04-.1.22-.18.07-.26.08-.24.21.07.32-.12.06.17-.22.39,0,.48-.03-.16.28-.22.17-.46.09.05.09.18.02.28.12.1.31-.3.34.03l.05-.17c.04.06.09.1.15.19.11,0,.36-.23.34.03.04-.03.29-.01.2-.19-.15-.11-.18.13-.26-.11.1.2.22-.02.32-.09v.1c.07-.04.19-.02.23-.12-.04.06-.02.13.02.15l.06-.15c.22-.08.04.27.25.23l-.17.12s.1.12.21.07c.04-.14.13-.31.16-.42.12-.06.05.16.17.02l-.16.17s.09.24.25.23c.1-.05.27-.25.11-.33.08,0,.19.09.12.19.18-.05-.02-.15.14-.24.06.1.25.24.37.38l-.17.24h.11c-.15.19.06.16-.02.36.07.04.16-.03.24-.08-.2-.34.26-.44.21-.74.3-.08.15.74.48.28-.05-.08.11-.31-.08-.23.18.04.14-.3.35-.17-.17.12.16.31-.08.49.02-.1-.13-.08-.16-.05.07.12-.03.31.16.31.12-.03.27-.03.26-.19,0-.18-.18.01-.09-.16.23-.05.26.21.37-.09-.15.02-.17-.16-.16-.28l.17-.07-.04.12c.27.09.09-.21.35-.17l.11.24c-.07.2-.38-.1-.35.23.17.02.23-.15.39-.06-.04.03-.09.03-.12.06.06.01.1.45.35.2.13-.09.04-.12.05-.24.28-.03.36-.15.54-.16-.05.24.31.04.1.28-.08-.15-.48-.15-.59.08.08.29-.21-.05-.29.24.22.01.19.3.22.48.06.02.12-.06.16-.08.04-.17-.04-.17-.04-.35.24.06.48-.03.63-.19.08.09.04.27-.06.28.29-.04.6,0,.87.07-.16-.3.31-.05.21-.3-.14-.07-.26-.28-.17-.41.09.02-.01.13.02.19.13-.15.17.26.3.02-.27.08-.08.35-.14.58.2-.12-.02.16.17.17.2-.12.44-.2.65-.24.25.24.67.05.91.05.11.13,0,.39.14.45.16,0-.09-.3.13-.16l-.03.05c.08-.06.41.22.51-.17l-.1.29s.09-.03.13-.06c0,.1.04.19-.04.24.13.22.3,0,.46,0l-.09-.18c.28-.11.44.07.71.03l-.02.17.16-.09c-.05.16.08.29.17.15l-.44.38c-.1-.11.14-.2.09-.37-.04-.16-.29-.13-.34.03.09.03.1-.01.17-.07,0,.24-.13.22-.21.37.05,0,.11.07.13,0-.1.11-.2.12-.36.11.11-.08-.04-.15,0-.22-.03.21-.19.26-.37.18-.12-.25-.38.12-.59.03.11-.2.24-.36.38-.43-.13-.12-.16,0-.29-.13-.08.15-.15.39-.34.47v-.15c-.17.06-.19.29-.4.23-.36-.11-.73-.14-1.01-.18v-.15c-.18.31-.52.08-.74.21-.34-.17-.78.08-.94-.18-.63.06-1.18.14-1.82.05l.12-.2c-.12.14-.07-.12-.18-.1.12.17-.17.2-.25.32-.28-.17-.66-.02-.92.1v-.14c-.27.24-.57,0-.89-.05-.03-.06-.09-.19-.18-.17-.18.21-.27.19-.53.31-.19,0-.49-.08-.68-.17-.71.25-1.42.04-2.16.18l-.05-.15c-.71.28-1.58-.03-2.19.1l.06-.23c-.19-.08-.43.05-.39.22-.19-.08-.48.1-.59-.09-.19-.05-.24.1-.4.13-.39-.1-.53-.08-.9-.05l.09.02s.04-.14-.05-.16c-.14.06-.5-.07-.37.2-.39-.16-.91.1-1.29-.12.03.07-.06.08-.1.13-.34,0-.71-.15-.98-.04-.05-.03.09-.11-.05-.12-.08.02,0,.09-.1.13-.56.12-1.13-.14-1.64-.12-.9.11-1.84.03-2.7.06v-.04c-.28.17-.67-.17-.9.08-.07-.04-.26-.02-.21-.1-.23.11-.65-.1-.98.04.03,0,.05,0,.08-.02-.34-.09-.63.04-.99-.04.04-.02.1-.03.11-.07-.14-.07-.32.17-.4-.02-.08,0-.05.1,0,.09-.78-.07-1.6.08-2.41.13-.58-.09-.05-.29-.5-.15-.04-.03-.02.07-.03.03-.17.05-.28-.18-.4-.09.06.1-.08.06-.08.12-.36-.06-.43-.15-.71-.06l.02-.05c-.32.16-.7.09-.97.26-1.81.09-3.53.23-5.29.29-1.74.05-3.44.18-5.22.22-.42-.05-.45-.05-.9,0,.02-.01.05-.02.01-.03-.02.06-.32.03-.36.08-.66.05-1.25.09-1.93.14.11-.01.16-.05.03-.04l-.13.04h-.02c-.09,0-.18.03-.09.04-1.68.15-3.36.16-5.01.33-.41.04-.95.09-1.38.12-1.27.09-2.4.2-3.69.32,0,0,.39-.04.7-.08Z"></path>
    <path class="cls-2" d="M160.54,70.51c-.03-.13-.17-.22-.04-.38,0,.12.06.27.04.38Z"></path>
    <path class="cls-2" d="M156.71,68.92s-.05-.05-.06-.07c.05,0,.1-.11.14-.04-.05,0-.05.06-.07.11Z"></path>
    <path class="cls-2" d="M155.71,68.8c.02-.1.24-.18.37-.19l-.37.19Z"></path>
    <path class="cls-2" d="M154.79,68.33c-.08-.09-.05-.14.06-.13,0,.06-.03.08-.06.13Z"></path>
    <path class="cls-2" d="M154.71,68.56c-.08,0-.11-.06-.15-.12,0,.09.18-.05.15.12Z"></path>
    <path class="cls-2" d="M152.67,68.22s-.16.09-.2-.02c.05.08.25-.12.2.02Z"></path>
    <path class="cls-2" d="M151.72,68.35s-.04-.02-.08,0c-.05-.04,0-.12.06-.12l.02.12Z"></path>
    <polygon class="cls-2" points="134.43 68.92 134.53 68.89 134.52 68.95 134.43 68.92"></polygon>
    <path class="cls-2" d="M126.88,69.33c-.1.04-.07-.04-.09-.04.09-.01-.03.06.09.04Z"></path>
    <polygon class="cls-2" points="122.83 69.83 122.86 69.82 122.85 69.9 122.83 69.83"></polygon>
  </g>
  <g>
    <path class="cls-2" d="M124.04,49.91c1.56,0-.84-.05,1.02-.02-.21.02-.51.03-1.02.02Z"></path>
    <path class="cls-2" d="M155.79,70.32c-2.5.29-5.36.89-8.19,1.79-2.84.89-5.55,2.33-7.76,3.97-.52.37-.03-.35-1.21.51-2.09,1.68-4.77,3.81-7.62,5.98-2.85,2.17-5.89,4.33-8.62,6.11l.23-.34c-1.04.68-1.96,1.95-3.04,2.7-.07-.07.25-.36-.07-.27-.09.42-1.8,1.54-2.12,2.04-.48.23-.58.01-1.19.31l-.4.71c-1.19,1.89-4.08,3-6.14,5,.06-.15.25-.37.02-.3-1.7,1.55-3.69,3.18-5.83,4.72-2.13,1.57-4.32,3.16-6.41,4.63.09-.23.1-.55-.24-.52.03.49-1.23,1.46-2.33,2.28-.76-.03-1.74,1.64-3.24,2.28l.06-.16c-.75,1.04-1.64.7-2.15,1.71l-.83.09c-.1.83-1.63.63-2.3,1.42l.1.1c-.71.62-1.3.58-1.98,1.12l-.11-.02c-1.63,1.19-2.83,1.46-2.52,1.89-.82,0,1.57-1.17.31-1.13-2.68,1.95-5.57,3.67-8.46,5.4-2.93,1.66-5.87,3.3-8.82,4.85-.77.16-1.23.33-1.47.23-.53.41-2.16,1.27-2.57,1.79.19-.11-.51-.05-.84.09-1.17.37-.9,1.14-2.19,1.53.4-.37.48-.61.23-.71-.81.9-2.19,1.54-3.32,2.27.14-.18.41-.37.29-.5-1.09,1.09-2.44,1.11-3.45,1.96l.29-.5c-2.02.59-.25.86-1.95,1.46.34-.28.15-.32.16-.47-1.24,1.25-3.75,2.26-5.17,3.17.07-.08.01-.15.01-.15-1.6.85-3.39,1.51-5.09,2.59-.71.19-.1-.76-1.79.16.32.51-2.84,1.61-1.53,1.74-1.53.61-3.97,1.5-4.88,2.14.57-.51-1.02-.31.19-.93l-1.08.12c.04-.28.99-.38.57-.51-.61.31-2.31,1.37-2.9,1.54-.99.86-1.77,1.94-3.58,2.88.77-.62-.76-.32-.22-.69l-2.09,2.22c-.61.32-.33-.33-1.16.23.11.11-.24.38-.47.61-.26.06-2.56,1.29-3.05.9-.36-.07.98-.54.21-.42-1.16.5-1.14.69-2.31,1.17l-.05-.06c-.8.24-2.21,1.11-1.26,1.05.55-.19-.32-.21.54-.38-.43.5-1.79,1.11-2.99,1.54.38-.22.28-.34.4-.53-.73.48-1.52.9-2.35,1.28-.42.19-.83.37-1.29.55l-.36.14-.47.16c-.33.11-.66.22-.99.33-.03.13.24-.05.53-.26.29-.21.59-.44.79-.42-1.6.3-3.19.81-4.71,1.01-.74.09-1.4.09-1.95-.03-.53-.13-1.05-.32-1.28-.89.25.28-.16.34-.12.29-.21-.28-.24-.55-.21-.74.02-.19.08-.33.13-.46.11-.25.22-.43.28-.74.25-.15.29-.78.73-1.52.08-.36.25-.2-.14.41.09-.23.32-.66.79-1.25.54-.62,1.23-1.39,2-2.22.28-.32.57-.65.86-.97.28-.31.56-.61.84-.91.52-.59.98-1.13,1.42-1.57-.11-.02.59-1.45.93-1.9l.08.33c.45-.32,1.1-1.56,1.33-1.52.47-1.15-2.52,3.96-1.76,2.48.43-.22,1.02-2.08,1.1-1.59.64-.96,1.06-2,1.85-2.81-.21.25-.22.97.27.18.85-1.4.16-.45.81-1.61l.36-.76c-.17-.17.8-1.23.26-.84.28-.07,1.15-2.09,1.38-1.77l.13.34c.34-.62.34-1.15.51-1.7.07-.07.21-.2.23-.15-.31-.31.89-1.45,1.04-2.34.88-1.22,1.95-3.29,2.52-3.78.5-1.05.94-2.02,1.76-3.1-.12.24-.32.55-.29.65.56-.64.58-.87.98-1.53-.06.17,1.16-1.27,1.9-1.88.62-.9.24-.71.23-.86.23-.12.42-.36.6-.66.19-.29.37-.63.51-1,.16-.36.3-.73.41-1.1.13-.36.28-.69.41-.98-.03.39-.39,1.55,0,.72.59-.89.38-2.02.72-3.62l-.28.37c.27-.7.12-2.42.33-2.23-.03-.55.14-1.96-.07-1.77.12-1.37,0-3.02-.03-4.61-.03-.83.11-1.62.23-2.26.12-.65.26-1.21.41-1.62.03-.4.24-1.37.11-1.19-.22.64-.09.92-.2,1.16.05-.35.02-.44,0-.48.19-.85.33-1.51.33-.68.46-1.87.06-2.01.63-4.39.05.12.11-.05.26-.76l.18-1.35c.4-1.54.37-.84.49-.85.18-.83.45-1.83.46-2.22l.42-.95c-.31.69.12-.69.22-1.08l-.09.39c.09-.14.35-1.08.5-1.56-.11.09-.45,1.03-.62,1.55.07-.43.29-1.07.41-1.64.05.22.52-1.29.81-1.92.33-.71.26-.86.37-1.07.05,0,.63-1.16.4-.56-.12.25-.35.53-.48.96.27-.45.3-.36.79-1.34.21-.37.13-.36.12-.41,0-.05,0-.21.66-.81-.34.35-.31.45-.5.74.32-.39.72-.8,1.25-1.02v-.13c.2-.06.08,0,.17-.02.34-.31,2.01-.87,2.25-1.11.66-.27,1.41-.47,2.01-.73l-.11.06c.77-.26,1.7-.8,2.13-1.26v.04c.34-.23.98-.92,1.08-1.37.19-.4.35-.44.44-.52.05-.04.09-.08.13-.19.04-.1.06-.27,0-.56.02-.58-.21-.73-.33-.71-.13,0-.14.07-.13.15-.07-.1-.57-.15-1.05-.09-.49.04-1.04.15-1.58.23-1.09.18-2.26.29-3.31.09-.34.02-.13.12-.82.04-.43-.06-.85-.21-1.29-.34-.46-.23-.97-.45-1.32-.83-.42-.33-.66-.75-.95-1.15-.2-.41-.45-.82-.57-1.23-.59-1.64-.72-3.2-.62-4.46.14.91.19.05.3.03-.22-.75.14-.9-.17-1.16-.17.08-.27,0-.29.89-.22-1.87-.17-4.78-.06-5.54-.07.35-.14.02-.21-.08h0c.15-.01.27-.16.18-.36-.06-.18-.46-.58-.84-.81l-.23.07c-.11-.18-.22-.36-.34-.53-.34-.17-.58.09-1.25-.61,0-.09,0-.19-.11-.34-.94-.43-2.34-.93-3.22-1.64l-.63-.74c-.44-.21-1.25-.43-.56.06-.4-.27-.76-.52-1.09-.75-.08-.06-.16-.11-.24-.16-.08-.06-.25-.15-.37-.22-.25-.15-.48-.3-.7-.43-.85-.55-1.49-.93-1.7-1.24-.83-.29-1.43-.72-1.91-1.12-.23-.2-.42-.4-.59-.59-.16-.19-.32-.31-.4-.66-.07-.33-.05-.77.08-1.08.11-.31.29-.44.45-.67l.25-.31c.14-.11.31-.21.46-.32l.47-.32c.17-.1.28-.23.57-.29.72-.27,1.46-.56,2.2-.8.71-.23,1.41-.45,2.1-.67.88-.28,1.74-.55,2.57-.79l-.05.23c1.06-.13.42-.5,1.17-.58-.27.28.89.17.16.64,1.5-.23,1.76-.9,2.68-1.27.07-.3-.71.39-.62,0,.13-.14,2.06-.39,2.18-.85.41.05.21.42.05.64l.84-.45c1.21.16-2.24,1.53-.94,1.78l.8-.29c.89.2-2.03,1.07.06.64.83-.44,1.44-1.23.6-1.19,1.83-.62.6-1.2,2.63-1.7.61.09-1.61.48-1.13.71,1.03.07,1.86-.69,2.76-.77-1,.07-.29-.53.34-.75,1.17-.04-.65.53.95.25.26-.33,1.98-.59.47-.66.33-.33.82-.27,1.36-.22.54.05.92.15,1.36-.05.48.4-1.58.84.07,1.08-.25-.38,2.06-.43,1.21-1.01.64.14.69.43.22.64.91.27,2.25-.57,2.52.18l.33-.36c.28.14.69.25,1.15.48.81.05,2.62-.37,2.52.19.26-.05,2.1.08,1.41-.35-1.13-.3-1.33.21-1.94-.35.79.47,1.65.03,2.32-.07l.1.22c.4-.06,1.3.04,1.56-.18-.31.11-.16.26.15.33l.43-.3c1.61-.07.35.6,1.91.59l-1.19.18c.26-.04.78.29,1.52.24.3-.28.86-.6,1.12-.82.88-.08.38.35,1.25.11l-1.15.29c-.17.09.74.53,1.91.59.75-.06,1.93-.41.76-.64.59.03,1.4.26.92.44,1.33-.02-.16-.32,1-.43.46.22,1.9.59,2.77.92l-1.22.41.8.05c-1.05.32.51.32-.09.69.54.09,1.21,0,1.74-.08-1.56-.73,1.83-.77,1.39-1.38,2.18,0,1.29,1.48,3.61.73-.36-.17.73-.53-.65-.46,1.35.15.95-.51,2.53-.16-1.2.15,1.24.65-.48.87.12-.18-.95-.2-1.21-.16.55.25-.14.56,1.24.64.85,0,2.01.05,1.86-.24-.02-.32-1.29-.05-.74-.33,1.69,0,1.95.49,2.67-.02-1.07-.03-1.32-.37-1.29-.58l1.24-.04-.25.19c1.97.29.6-.33,2.52-.14l.88.46c-.47.31-2.79-.35-2.47.24,1.25.1,1.68-.15,2.85.07-.27.03-.62.02-.89.05.45.05.86.81,2.66.5.93-.1.25-.18.29-.38,2.01.07,2.62-.09,3.91-.02-.28.36,2.28.2.84.48-.65-.26-3.55-.45-4.28-.12.71.51-1.57-.17-2.03.29,1.61.11,1.51.57,1.75.88.45.04.89-.06,1.15-.09.2-.27-.38-.3-.4-.59,1.79.18,3.53.13,4.53-.07.59.17.39.42-.32.41,2.14.05,4.42.22,6.45.42-1.29-.48,2.27.04,1.39-.34-1.08-.16-2-.51-1.4-.65.68.08-.03.17.25.28.87-.15,1.33.44,2.19.16-1.96-.01-.4.45-.77.72,1.42-.09-.07.21,1.32.29,1.41-.09,3.14-.12,4.7-.08,1.95.37,4.96.29,6.71.39.91.17.28.39,1.27.48,1.17.05-.85-.31.87-.11l-.17.04c.52-.02,3.16.29,3.68.01l-.54.21c.32.03.62,0,.89-.02,0,.07.38.15-.14.18,1.06.19,2.24.06,3.4.1l-.74-.15c1.99,0,3.31.16,5.23.2l-.06.08h1.14c-.28.06.77.14,1.37.09l-2.97.12c-.82-.07.9-.08.39-.18-.44-.09-2.21-.13-2.5-.04.68.03.71,0,1.24,0,.22.13-.81.1-1.33.19.36,0,.86.05.94.01-.7.05-1.41.05-2.58.04.79-.05-.43-.1-.13-.14-.1.13-1.21.16-2.65.09-1.02-.21-2.71.06-4.38-.02.68-.17,1.55-.29,2.57-.32-1.04-.12-1.17-.03-2.21-.16-.51.12-.88.32-2.25.37l-.07-.15c-1.24.03-1.25.26-2.83.18-2.7-.12-5.48-.24-7.54-.33l-.07-.19c-1.16.37-3.83.01-5.38.15-2.62-.3-5.72,0-7.05-.43-4.64-.01-8.71.02-13.5-.27l.83-.34c-.87.24-.55-.24-1.39-.22.95.35-1.19.34-1.8.55-2.12-.39-4.88-.19-6.79.01l-.06-.28c-1.94.43-4.21-.12-6.59-.32-.27-.13-.69-.41-1.4-.41-1.32.4-1.99.33-3.9.54-1.38-.06-3.63-.28-5.02-.52-1.31.11-2.62.15-3.92.17h-.96s-.81.03-.81.03c-.46.07-1.09.2-1.71.36-2.5.61-5.1,1.33-7.65,2.24l-.47-.22c-1.19.51-2.47.97-3.79,1.39-.57.17-1.14.35-1.71.52-.29.09-.54.15-.78.21-.21.09-.49.14-.73.22-.13.02-.25.11-.25.24-.02.13.09.22.2.27.42.23.88.45,1.26.58-.17.09-.36.17-.57.23.12.11.29.22.46.3.13.07.26.13.38.19.15.07.3.14.44.2.55.23.94.29.87.05,1.14.87,3.13,1.78,3.67,2.63,1.16.95,1.59.91,2.61,1.74.44.44.82.85,1.17,1.32.17.22.35.55.49.83.15.28.18.59.24.85,0,.24.02.59.02.73,0,.17,0,.34,0,.51,0,.32-.02.64-.03.97-.01.63-.03,1.31-.04,2.14l.05-.66c-.07-.3-.23-.32-.28.35.03,1.01-.09,3.63.31,2.63-.09,1.37.11,3.02.69,4.21.3.58.66.98,1.07,1.18.58.25,1.23.41,1.84.54-.21-.11.43-.09.7-.14,1.16.01,2.39-.15,3.78-.2h.55c.19.03.41.07.62.1.24.08.47.14.71.29.24.17.48.35.62.61.07.12.16.25.2.37l.09.34c.02.11.05.23.06.33v.26c.02.34.04.66-.03.99-.14.5.03-.81-.24.45-.27.72.12.06-.27.95-.65,1.17-1.7,1.89-2.68,2.41-1,.52-2.01.87-2.98,1.21-.97.34-1.92.65-2.78,1.02-.56.22-1.09,1.06-1.48,1.83-1.34,2.9-2.15,6.24-2.91,9.49-.72,3.27-1.34,6.56-1.7,9.68l-.04-.08c-.02.55-.02.98,0,1.58.02.59.03,1.21.05,1.8.03,1.21.03,2.38.19,3.26-.05.52-.07,1.99-.17,1.6.09,1.78-.56,4.93-1.57,7.46.11-.22.15-.36.24-.63-.15.3-.3.6-.45.9-.17.29-.35.57-.52.85-.15.29-.39.54-.58.81l-.57.75c-.34.43-.67.86-1,1.36-.33.49-.68.99-1.03,1.52.11-.24.34-.65.31-.76-.66.75-.93,2.2-1.53,2.48-.28.5-.03.45.13.14-2.9,4.91-5.36,10.61-8.56,15.86-2.7,3.49-.86-.29-2.51,2.8-.26.16.04.29-.08.26-.69,1.18-1.76,1.3-2.09,2.12.51-.06-.22.56-.06.71-.11.11-.22.21-.32.31-.1.09-.22.22-.25.22-.11.07-.21.12-.3.18-.2.12-.39.24-.56.36-.34.24-.67.52-.71.82l-.32.05c.06.18.05.34.14.56.05.11.2.2.37.21.17.02.33,0,.48-.03.6-.11,1.19-.36,1.56-.81l.78-.26c.74-.25,1.51-.53,2.26-.82,1.51-.57,3-1.19,4.47-1.84,1.47-.65,2.93-1.33,4.36-2.04,1.45-.71,2.74-1.44,4.28-2.24,5.88-3.04,11.61-5.91,17.42-8.86,11.58-5.58,22.56-11.67,34.13-17.64,2.99-.92,3.2-1.02,5.95-2.95-.06.16-.23.29.01.26-.13-.55,2.01-1.23,2.03-1.83,2.12-1.15,4.08-2.37,6.06-3.59,1.99-1.21,3.96-2.48,6.03-3.81-.63.46-.74,1.02.03.49l.65-.79.21.03c.5-.4.95-.97.3-.76,10.23-6.94,20.71-13.43,30.45-20.87,2.42-1.63,5.69-4.22,8.29-6.09,4.01-2.54,8.08-4.84,12.5-6.15,4.41-1.34,8.99-1.65,13.76-1.61,0,0-.34.03-1.11.09-.8.09-2.1.1-4.06.36Z"></path>
    <path class="cls-2" d="M122.16,49.92c-.33-.04-1.42-.08-.55-.13.11.05.67.1.55.13Z"></path>
    <path class="cls-2" d="M93.09,47.64s-.41-.09-.5-.12c.36.01.7-.1.98,0-.36-.01-.31.06-.48.12Z"></path>
    <path class="cls-2" d="M85.66,47.06c.12-.15,1.72-.16,2.65-.12l-2.65.12Z"></path>
    <path class="cls-2" d="M78.77,45.91c-.59-.19-.42-.25.38-.19.05.09-.21.12-.38.19Z"></path>
    <path class="cls-2" d="M78.26,46.26c-.58-.04-.86-.16-1.13-.27.02.15,1.34,0,1.13.27Z"></path>
    <path class="cls-2" d="M63.25,44.73c-.36,0-1.15.1-1.48-.14.37.17,1.77-.13,1.48.14Z"></path>
    <path class="cls-2" d="M56.24,44.59c-.23-.03-.32-.07-.58-.03-.41-.12.03-.24.39-.23l.19.26Z"></path>
    <polygon class="cls-2" points="24.78 115.66 24.88 114.93 24.95 115.05 24.78 115.66"></polygon>
    <path class="cls-2" d="M11.48,153.87c.68-.37.57,0,.7,0-.65.25.16-.32-.7,0Z"></path>
    <polygon class="cls-2" points="38.68 140.57 38.47 140.67 38.33 140.2 38.68 140.57"></polygon>
  </g>
  <g>
    <path class="cls-2" d="M1067.45,106.94c.75.03-.4-.05.49.02-.1,0-.25,0-.49-.02Z"></path>
    <path class="cls-2" d="M1076.91,129.19c-2.3.77-5.39,1.55-7.9,2.41-.28.13.04-.15-.62.09-2.41.89-6.46,1.51-9.6,1.39l.18-.09c-.6,0-1.3.33-1.93.32,0-.05.2-.09.04-.15-.15.17-1.13.14-1.39.28-.25-.05-.24-.19-.56-.24l-.35.22c-.97.55-2.43.11-3.79.41.06-.05.2-.1.09-.14-1.09.21-2.33.32-3.6.34-1.27.04-2.57.08-3.8.11.05,0,.1-.02.11-.03.02,0,0-.11-.07-.14-.06.17-.28.16-.57.17-.29,0-.64.02-.97.03-.3-.03-1.13.05-1.9.04h.07c-.57.04-.85-.02-1.31.03l-.36-.03c-.25.06-.83-.02-1.3.01h.02c-.45.03-.68,0-1.09,0h-.04c-.97,0-1.53-.02-1.51.02-.34-.05.94.01.41-.09-3.18.11-6.47.03-9.67-.01-.36-.05-.6.02-.68-.1-.32.08-1.21.03-1.5.06.11,0-.21-.02-.38-.04-.58-.03-.64.05-1.28.01.26-.03.34.05.26-.15-.28.18-.59.11-.93.12-.33,0-.67,0-1-.01.1,0,.26,0,.23-.02-.71.02-1.29-.04-1.91-.03.08-.01.15.01.23-.09-.49-.17-.57,0-.63.07-.06.01-.1.03-.53.01.21-.01.13,0,.17-.05-.81.07-2.1-.02-2.91-.02.05,0,.04-.01.04-.01-.87-.03-1.78-.05-2.75-.08-.17-.01-.15-.03-.19-.04-.04.02-.15-.15-.62-.11,0,.08-.02.08-.06.08-.05,0-.1,0-.17,0-.14,0-.32,0-.48,0-.33,0-.59,0-.32.03-.79-.04-2.04-.12-2.56-.12.36-.03-.38-.04.28-.11l-.48-.32c.08-.2.51.09.36-.17-.33,0-1.29.15-1.58.05-.16.07-.31.15-.47.24-.08.04-.16.1-.24.13-.08,0-.16,0-.25,0-.34,0-.73-.01-1.22-.04.23,0,.17-.01.09-.03-.04-.01-.08-.02-.1-.03-.01-.04,0-.08.09-.1-.06.03-.13.08-.18.09h-.17s-.34,0-.34,0l-.69.03c-.33,0-.07-.05-.54-.05.02.02-.18.02-.33.03-.12,0-1.36-.03-1.51-.09-.14-.03.54,0,.17-.03-.6-.01-.64-.02-1.24-.03h-.01c-.4-.03-1.18-.04-.75.01.28.02-.1-.04.31,0-.28.02-.99-.01-1.59-.05.21,0,.18-.01.27-.02-.82,0-1.68-.06-2.59-.13-.02.03.34-.02.48,0-1.16-.14-2.41-.19-3.36-.38.16.02.08.05.07.04-.56-.08-.53-.11-.89-.16-.03-.03-.46-.07-.83-.12-.2-.01-.1-.03.23.02-.52-.06-2.61-.41-3.77-.78.02.03-.74-.15-1-.23h.12c-.24-.09-.9-.28-.93-.33-.59-.13,2.21.66,1.43.45-.19-.09-1.1-.27-.91-.27-.53-.18-1.07-.31-1.55-.55.14.07.44.13.02-.04-.74-.3-.22-.07-.82-.32l-.37-.17s-.64-.32-.39-.16c-.08-.05-1.02-.58-.92-.58l.12.02c-.31-.16-.49-.28-.73-.42-.03-.03-.1-.09-.08-.09-.1.04-.64-.54-.98-.78-.49-.55-1.17-1.49-1.21-1.87-.26-.51-.41-1.02-.47-1.67.01.13.03.31.06.34-.04-.42-.04-.51-.08-.88-.02.08.08-.81.16-1.25.11-.55.03-.37.02-.43.16-.49.41-1.54.75-2.09-.1.17-.28.77-.1.34.29-.42.37-.96.85-1.64l-.16.14c.23-.29.61-1.05.63-.94.15-.23.59-.76.49-.73.85-1.04,2.14-2.49,2.84-2.94.14-.14.5-.45.4-.41-.26.19-.31.32-.42.38.13-.12.14-.15.15-.17.31-.28.57-.49.3-.19.73-.57.66-.7,1.61-1.41-.03.05.05,0,.32-.21l.5-.43c.63-.44.38-.21.42-.19.33-.24.74-.52.87-.65.14-.08.29-.16.44-.23-.32.17.27-.2.42-.31l-.16.11c.07-.03.46-.29.66-.43-.06,0-.47.26-.69.4.19-.13.42-.3.66-.47-.06.08.58-.33.86-.49.32-.18.34-.25.43-.3.02.01.52-.31.29-.14-.11.07-.26.13-.43.26.22-.11.21-.07.63-.35.32-.2-.12-.02.52-.35-.16.1-.18.13-.31.22l.6-.32v-.04c.09-.04.04,0,.08-.02.16-.14.9-.51,1.02-.62.3-.16.65-.32.94-.46l-.05.03c.36-.17.84-.41,1.13-.58h-.01c.19-.08.63-.31.9-.45.51-.21.22.04.76-.26.51-.24.77-.42.56-.35.93-.39,1.96-.89,2.85-1.18.13-.07.04-.04.31-.16,1.38-.52,2.91-1.14,4.05-1.44-.4.15-.02.04,0,.06.33-.14.41-.1.52-.19-.04-.02-.01-.04-.41.08.83-.3,2.12-.68,2.6-.79-.24.05-.06,0,.12-.07-.05.06.58-.11,1.05-.25l.06-.05.32-.05c.18-.06.19-.11.67-.2.03,0,.06,0,.15,0,.49-.14,1.18-.34,1.73-.43l.45-.04c.23-.05.62-.15.21-.08.93-.16,1.54-.23,1.84-.25,1.58-.32,4.02-.51,5.88-.05h-.06c.49.12.26.02.61.1-.16,0,.37.11-.02.06.71.15.92.12,1.39.18.07-.02-.38-.04-.28-.06.08,0,.98.18,1.1.16.18.04.03.05-.07.05l.44.05c.53.13-1.23-.11-.68.04l.4.06c.38.1-1.07-.12-.06.05.44.05.83.05.44-.03.91.12.44-.03,1.42.12.26.06-.79-.11-.6-.05.46.1.93.12,1.34.19-.45-.08-.06-.06.23-.03.5.09-.33,0,.38.1.12,0,.77.07.21-.03.26-.01.74.12,1.13.13.23.07-.74-.02.03.11-.12-.05.97.09.56-.02.3.05.33.08.11.07.43.08,1.07.08,1.2.17h.15c.14.01.32.05.55.1.38.05,1.24.12,1.2.17.12.01,1,.13.67.05-.54-.09-.63-.06-.93-.15.38.09.79.1,1.1.13l.05.03c.19.02.62.08.74.07-.15,0-.07.02.08.04h.2c.77.08.17.07.92.16l-.57-.05c.12.01.37.07.73.11.16,0,.4,0,.53-.01.42.04.18.05.6.08l-.54-.04c-.08,0,.36.09.92.16.36.04.92.07.36-.02.28.04.67.1.45.09.64.07-.08-.04.47.01.24.04.9.16,1.34.24l-.58-.03.38.05c-.5-.03.25.06-.04.06.26.04.58.06.83.09-.75-.15.86.02.65-.06,1.04.11.64.21,1.73.26-.18-.04.34-.01-.32-.08.65.09.45,0,1.21.12-.57-.05.6.13-.22.06.06-.01-.45-.07-.58-.08.27.05-.06.05.6.13.41.04.96.11.88.07-.01-.03-.62-.07-.36-.07.81.09.94.15,1.28.13-.51-.06-.63-.1-.62-.12l.59.06h-.12c.95.13.28,0,1.21.12l.43.09c-.22,0-1.34-.18-1.18-.1.6.07.8.07,1.36.15-.13-.01-.29-.03-.42-.04.21.03.42.12,1.28.18.44.03.12,0,.13-.02.96.1,1.26.13,1.87.19-.13.02,1.09.13.41.09-.31-.06-1.7-.22-2.05-.22.35.09-.75-.09-.97-.07.77.09.73.13.85.17.21.03.42.04.55.05.09-.02-.19-.05-.2-.08.86.11,1.69.19,2.17.21.29.05.19.06-.15.03,1.03.11,2.12.24,3.09.34-.62-.11,1.09.11.66.03-.52-.07-.97-.15-.68-.13.33.04-.01.02.12.04.42.02.64.11,1.05.12-.94-.09-.19.03-.36.05.68.05-.03.02.64.09.69.06,1.51.13,2.25.2.94.13,2.38.24,3.22.32.44.06.14.06.61.12.56.05-.41-.08.42.02h-.08c.25.01,1.52.16,1.77.14h-.26c.15.02.3.03.43.04,0,.01.18.04-.07.02.51.08,1.08.09,1.63.14l-.36-.05c.97.08,1.59.13,2.51.21l-.03.02.55.03c-.14,0,.37.06.66.06-.48-.02-.96-.02-1.43-.02-.39-.05.44-.03.19-.07-.21-.03-1.06-.1-1.2-.09.33.03.34.02.6.04.1.05-.39.02-.64.05.17,0,.41.05.45.03-.34,0-.68,0-1.24-.04.38,0-.2-.06-.06-.07-.05.07-.59.05-1.28-.02-.49-.13-1.31-.04-2.11-.12.33-.07.76-.11,1.25-.1-.5-.08-.56-.06-1.06-.13-.25.03-.43.14-1.09.13l-.03-.08c-.6-.01-.61.11-1.37.02-1.3-.13-2.63-.26-3.62-.36l-.03-.11c-.57.17-1.84-.08-2.6-.05-1.25-.23-2.75-.13-3.38-.41-2.24-.12-4.19-.2-6.49-.49l.41-.19c-.43.12-.25-.16-.66-.17.44.23-.59.18-.89.29-1-.29-2.34-.23-3.28-.15v-.18c-.97.23-2.04-.17-3.17-.36-.12-.09-.31-.29-.65-.31-.66.23-.98.17-1.92.26-.67-.08-1.73-.28-2.39-.49-2.57.16-5.08-.45-7.73-.53l-.15-.29c-.65.05-1.34.01-2.03-.06l-.86-.06c-.3,0-.59-.03-.9-.02-1.22,0-2.49.12-3.48.46l.12-.51c-.67-.05-1.45.4-1.22.71-.67-.02-1.54.6-2.04.29-.68.07-.74.44-1.26.65-1.35.18-1.82.38-3,.86l.31-.07c.1-.15.05-.36-.27-.3-.41.28-1.71.43-1.06.87-1.41.1-2.87,1.38-4.27,1.43.17.12-.13.28-.21.44-1.09.47-2.38.66-3.11,1.35-.21,0,.15-.4-.3-.21-.23.19.09.21-.18.46-1.58,1.15-3.62,1.48-5.08,2.46-2.46,1.9-5.15,3.63-7.09,5.67l-.08-.12c-.13.53-.63.81-1.03,1.14-.42.32-.79.67-.67,1.2-.24.09-.52.61-.65.33-.01.41-.39.75-.67,1.18-.14.21-.31.43-.41.68-.08.24-.13.5-.1.75.04-.08.03-.13.01-.25-.34.4-.37.82-.44,1.24,0,.2,0,.39-.03.59,0,.19,0,.37-.07.59-.06-.07-.11-.22-.25-.24-.12.18.02.37.17.51.14.14.2.26-.1.45.09.17.37,0,.31-.08.15.84.86,1.64,1.86,2.22,1,.59,2.23.99,3.48,1.34,1.67.96-.24,1.13,1.36,1.08.09.16.15-.22.14-.09.62-.03.72.97,1.22.71-.08-.44.32-.16.39-.4,1.12.51,1.31.92,2.31.77l-.11.2c1.21-.41,2.47.07,3.5-.52,1.55.14,3.11.21,4.66.24.78,0,1.56.02,2.33.02h1.18c.43,0,.75,0,1.37.04,3.08.1,6.13.2,9.22.3,6.18.42,12.25.43,18.54.93,1.47.48,1.58.46,3.2.33-.07.07-.17.08-.06.15.08-.34,1.14,0,1.29-.33,2.33.12,4.47.06,6.86.11-.38.03-.56.28-.11.26l.47-.19.08.09c.31-.04.64-.19.32-.29,5.99-.14,11.93.4,17.76-.11.69-.04,1.52-.12,2.37-.23.42-.06.85-.09,1.26-.17.4-.08.79-.17,1.15-.24.54-.08,1.08-.14,1.62-.24.54-.12,1.08-.24,1.61-.35,1.07-.25,2.12-.49,3.17-.74,1.05-.25,2.1-.51,3.17-.77.54-.13,1.08-.25,1.62-.38.28-.06.55-.12.83-.18l.43-.08c.07-.01.14-.02.22-.03.03,0,.08,0,.13,0,0,0,.02-.02.11.06.05.09.02.11,0,.15-.05.05-.06.04-.09.06,0,0,.01,0,.04-.02,0,0,.04-.02.07-.1.02-.02-.05-.15-.11-.14h-.04c-.12,0-.24.04-.43.08-.38.09-.98.26-1.89.52Z"></path>
    <path class="cls-2" d="M1066.55,106.9c-.16-.03-.68-.08-.26-.08.05.03.32.06.26.08Z"></path>
    <path class="cls-2" d="M1052.59,105.43s-.2-.03-.24-.04c.17.02.33.02.47.04-.17-.02-.15,0-.23,0Z"></path>
    <path class="cls-2" d="M1049.02,105.03c.06-.01.82.06,1.27.11l-1.27-.11Z"></path>
    <path class="cls-2" d="M1045.71,104.58c-.29-.05-.21-.05.18,0,.03.01-.1,0-.18,0Z"></path>
    <path class="cls-2" d="M1045.47,104.59c-.28-.03-.41-.06-.55-.08,0,.02.64.06.55.08Z"></path>
    <path class="cls-2" d="M1038.27,103.67c-.17-.02-.55-.05-.71-.09.18.04.85.08.71.09Z"></path>
    <path class="cls-2" d="M1034.92,103.28c-.11-.01-.15-.02-.28-.03-.2-.03.01-.02.18,0l.1.04Z"></path>
    <path class="cls-2" d="M979.25,119.71c.05-.11.1-.23.16-.33v.06s-.16.28-.16.28Z"></path>
    <path class="cls-2" d="M996.79,133.2c.37.01.25.04.31.05-.33-.02.12-.02-.31-.05Z"></path>
    <polygon class="cls-2" points="1011.3 133.78 1011.18 133.77 1011.22 133.73 1011.3 133.78"></polygon>
  </g>
  <g>
    <path class="cls-1" d="M1151.64,103.58c0,.05.02-.03,0,.03,0,0-.02-.02,0-.03Z"></path>
    <path class="cls-1" d="M1151.62,103.77c.04.18-.13.35-.17.54,0,.02-.06-.04-.07,0-.01.2-.25.42-.53.37v-.04c-.06-.01-.03.13-.07.13-.02-.02-.01-.04-.04-.07.04.08-.04.07-.02.13-.03-.03-.07-.09-.11-.12l.03.11c.07.28-.16.04-.18.21,0-.03,0-.05-.03-.08-.06.23-.26.27-.41.4,0-.06-.02-.17-.05-.23.03.17-.01.23-.05.28-.05-.18-.05.19-.12.1v-.04c-.01.22-.08-.11-.08.15l-.04-.15c.01.29-.07-.14-.09.01v.06c-.02.08-.05-.07-.08-.01v-.03c-.07.09-.12-.08-.11.16-.03-.19.07-.09.02-.37-.21.26-.47.2-.69.17,0-.11-.02-.14,0-.24-.03.05-.09.03-.14.16,0,0,.01-.13,0-.15-.02-.11-.11.27-.13.15.04-.06.06-.15.08-.24-.09.19-.13.14-.19.2.02-.04.04-.06.06-.14-.11.21-.07-.07-.16.06l.06-.14c0-.2-.12.3-.14.17.03-.04.04-.1.07-.16-.15.24-.2.12-.29.19,0-.02.03-.06.03-.06-.07,0-.1-.1-.21-.02,0-.07.17-.33.09-.31-.14.27-.16.05-.29.38-.03-.08-.05-.22-.14-.16.08-.08.18-.32.23-.32l.07-.17c.07-.1,0,.05.08-.08-.02,0-.14.06-.13.01-.14.13-.37.38-.45.36.1-.07.19-.27.24-.29-.14.13-.28.25-.43.36-.03,0,.15-.18.07-.15-.05.06-.09.08-.14.12.01-.03-.13-.03.06-.24.07-.09.07-.01.12-.1-.03-.03-.1.04-.14,0l.03-.03s-.15.01-.24.14c0,.02.12-.12.08-.04-.13.09-.21.08-.24.03.04-.01.1-.06.16-.11-.2.09-.3.06-.42.04-.1.07.21-.11.16-.06.09-.18-.32-.06-.14-.27.03,0-.15.09-.12.08,0-.06.15-.14.08-.14.09-.05-.05-.02-.09-.04-.08.02.04-.03.06,0-.1,0-.32-.14-.2-.3-.06.02-.25,0-.25-.04l.15-.03c.08-.05-.03-.09.1-.12-.19-.01.19.17.04.14.12-.05-.26-.04-.05-.08-.01-.05-.19-.07-.06-.15-.02.02.21,0,.2-.03-.04-.07-.07,0-.13-.06l-.06-.03c-.15.01.02-.07-.15-.03.12-.02-.08-.12.16-.12h.19s-.2-.04-.28-.07c.02,0,.06-.01.09-.01-.29,0,.03-.08-.19-.13.1-.07.03-.19.22-.2-.07-.06-.16-.14-.09-.19.02.02.03.04.08.05.09-.02.02-.04-.01-.09.04.02.18-.03.29-.04-.06-.07-.21-.1-.29-.14.27.04-.1-.21.15-.17.02.03.09.12.17.11.26.07-.14-.16.01-.18l-.2-.08c.13.03-.05-.16.14-.05-.05-.06.11-.04-.07-.14.21-.01.12-.32.45-.14-.01-.03.04-.04-.04-.1-.11-.06.03.08-.03.04,0-.01-.03-.05-.05-.07.06,0,.09,0,.19.13.15.03-.19-.3-.05-.31.05.06.08.08.1.05l-.05-.14c.08-.02.15.12.25.22.01-.04.05-.06,0-.15l.14.11c-.1-.08-.03-.08-.04-.12v.04s.06,0,.06-.03c-.05-.07-.11-.07-.14-.08-.02-.06.01-.06,0-.13.07.11.1.05.14.04.04,0-.03-.12-.02-.12.04.06.05-.02.08.08,0,.02-.06-.04-.04.02.05.03.11.13.1.04,0-.07-.14-.22-.04-.17,0,.04.03.08.04.13l.09.03-.06-.1s.02.03.03.05c-.05-.12.06-.07,0-.2.02-.02.1.05.13.05h0c.06.06.08,0,.08-.08v.02s.06-.03.06-.1c.08.06.18.39.17.24.04-.02,0-.21-.05-.28.11.05.14-.15.27,0,0-.04-.02-.07,0-.1.13.02.23-.17.37.03-.03.05.02.1.03.16.01-.09.05.09.03-.07-.02-.09-.02-.14-.06-.17.06-.06.18-.07.23.02-.03-.04-.01-.07,0-.1.01.14.07.16.1.11v-.09s.03.09.03.09c.01-.03,0-.18.05-.1,0,.03,0,.07.02.09.04-.07.09-.18.14-.11l.04.12s.05-.08.02-.12c.08.08.13.09.15.2.13-.23.34-.21.48-.15v.05c.02.06.02-.09.04-.04-.02.05.01.12-.03.18.05.07.09-.08.13-.09.02-.07-.04.03-.01-.05.01-.02.07.08.1-.02,0,.05-.02.12-.04.16l.04-.04c.01.13-.14.19-.12.35h.03c0,.11-.1.1-.04.15.04-.05.1-.19.08-.24.07,0,.09-.23.16-.2,0,.07-.06,0-.07.08.01.09.08-.02.1.02-.02-.05.03-.14.06-.14.02.06-.05.08,0,.11.02-.05.08-.07.05-.13.05-.11.04.06.1-.02,0,.09-.11.17-.07.24.02-.09.1-.07.11-.21.02.04,0,.1-.04.14.02.06.12-.1.08.06l.04-.07s0,.06,0,.11c.03.02.12-.05.08.06.01,0,.07.04.08-.05-.02-.07-.07.03-.05-.09,0,.1.06.02.09.01v.04s.03.02.06-.01c-.02.01-.03.05-.02.06l.04-.05c.06.01-.04.11.02.13l-.06.02s0,.06.03.06c.04-.04.08-.09.11-.12.04,0-.02.06.04.04l-.06.03s-.02.1.02.12c.03,0,.1-.03.08-.09.02.02.03.07,0,.08.05.02.02-.05.07-.05,0,.04.01.12.01.18l-.08.04.02.02c-.06.03-.01.05-.06.1,0,.02.04.01.06.01.01-.12.12-.08.16-.16.07.05-.09.21.05.16,0-.03.07-.05.02-.07.03.05.07-.04.09.03-.05,0-.02.1-.09.09.02-.02-.01-.04-.02-.04,0,.04-.05.06-.02.1.03.01.05.05.08,0,.03-.03-.03-.03,0-.05.05.04.01.09.08.06-.03-.03,0-.07.01-.09l.04.03h-.02c.03.09.05,0,.08.06v.06c-.05.02-.06-.1-.11-.03.03.04.06.02.08.07-.01,0-.02,0-.03-.01,0,.02-.04.09.03.11.03.01.02,0,.04-.03.05.06.08.06.1.1-.03.02.04.08-.02.06,0-.04-.05-.12-.1-.11-.02.06-.03-.05-.08-.02.03.05,0,.08-.03.11,0,.01.03.01.04.02.03-.02.01-.03.04-.06.03.06.08.09.12.1,0,.03-.02.04-.04.02.05.06.09.12.12.19.01-.06.05.06.06.02-.01-.04,0-.09.02-.08,0,.02-.01,0-.02.02.03.02,0,.06.03.07-.04-.06-.04.01-.07.02.04.03-.02,0,0,.05.04.03.07.08.1.13.01.07.07.16.08.21,0,.03-.03.02-.02.05.01.04.01-.04.02.02h0s0,.1.05.11h-.03s0,0,.01.02c0,0-.01.02-.02,0-.01.04.02.07.03.11v-.03c.03.06.02.11.03.17h-.02s.01.04.01.04c-.01,0-.03.03-.01.05-.01-.03-.02-.07-.04-.1,0-.03.02.03.04.01.01-.02,0-.07-.01-.08,0,.02,0,.02.01.04-.02,0-.02-.02-.04-.04,0,.01,0,.03,0,.03-.01-.02-.02-.04-.02-.08.01.02.01-.02.02,0-.02,0-.03-.04-.03-.08.01-.04-.03-.08-.04-.13.03.01.04.04.06.07,0-.04,0-.04,0-.07-.02-.01-.04-.02-.07-.06h.01s-.04-.03-.06-.08c-.03-.08-.07-.16-.11-.22h.01c-.05-.02-.08-.1-.13-.13-.04-.08-.14-.12-.14-.18-.15-.09-.25-.15-.37-.23l.05-.03s0-.03-.02-.04c0,.05-.07.03-.1.05-.03-.07-.14-.07-.22-.04l.02-.04c-.1.05-.13-.03-.19-.07,0-.02.01-.07-.01-.07-.08.07-.09.05-.17.1-.04,0-.1-.04-.12-.09-.2.11-.33.01-.5.1v-.09c-.17.19-.33.02-.46.14v-.17s-.08.06-.06.18c-.04-.05-.09.1-.12-.04-.04-.02-.04.09-.07.13-.08-.05-.11-.03-.17.03h.02s-.01-.12-.03-.12c-.02.06-.1-.02-.04.19-.1-.11-.13.17-.24.02.02.06.01.08.02.13-.05.03-.16-.07-.15.07-.02-.03-.03-.11-.05-.11,0,.03.03.08.04.13-.02.17-.21,0-.26.07-.03.21-.14.25-.17.36l-.04-.04c.16.16-.22-.05.05.15-.05-.02-.03.01-.13-.05.13.09-.15,0,.03.12,0,0,0,0-.03-.02-.13,0,.04.07-.07.07-.03,0-.05-.02-.1-.04-.12,0,.26.09-.03.04,0,0,.15.03.14.02-.12.07.1.16.21.18-.16.09-.52.14-.26.12-.06.02.12-.03.06-.01.1-.02-.32.15-.15.11.18-.08.11-.03.22-.08-.1.08-.25.17-.09.14l-.1.05c.29-.11.19.01.51-.17.22.07.54-.08.72-.07.15.13.35.03.55.34.05.33.06.32.12.23,0,.05,0,.06,0,.1,0-.24.05,0,.04-.23.1.1.18.07.29.13-.01,0,.01.17.03.17v-.12s.01.06.01.06c0-.02,0-.11-.03-.18.12,0,.28.16.47.25.19.09.4.14.57.11.11.02.21-.03.28-.08.31-.06.51-.3.53-.59,0,0,.06.04.05.17Z"></path>
    <path class="cls-1" d="M1151.64,103.52s.02-.05.04-.02c-.01,0-.03.02-.04.02Z"></path>
    <path class="cls-1" d="M1151.51,102.55v-.02s.02.01.02.03c0-.01-.01,0-.02,0Z"></path>
    <path class="cls-1" d="M1151.39,102.32s.06.03.07.06l-.07-.06Z"></path>
    <path class="cls-1" d="M1151.31,102.06s.01-.03.03,0c0,0-.02,0-.03,0Z"></path>
    <path class="cls-1" d="M1151.27,102.07s0-.03,0-.05c-.01.01.04.03,0,.05Z"></path>
    <path class="cls-1" d="M1150.95,101.57s-.05,0-.04-.05c0,.03.07.02.04.05Z"></path>
    <path class="cls-1" d="M1150.73,101.43s0-.02-.02-.01c0-.02.02-.04.03-.03l-.02.04Z"></path>
    <polygon class="cls-1" points="1146.2 102.32 1146.18 102.26 1146.26 102.31 1146.2 102.32"></polygon>
    <path class="cls-1" d="M1146.43,104.84c.07-.02-.06.09-.07.1-.03-.02.11-.08.07-.1Z"></path>
    <polygon class="cls-1" points="1147.69 105.21 1147.68 105.21 1147.8 104.99 1147.69 105.21"></polygon>
  </g>
  <g>
    <path class="cls-2" d="M1145.62,107.53s0,0-.02,0c.01,0,.01,0,.02,0Z"></path>
    <path class="cls-2" d="M1154.11,108.57c-.1.04-.24.04-.35.09-.01,0,0-.04-.03-.03-.1.07-.28.09-.42.01v-.02s-.04.05-.07.05c0-.01,0-.02,0-.04,0,.04-.05.02-.05.05-.01-.02-.02-.05-.03-.07v.05c-.04.13-.11,0-.17.07,0-.01,0-.02,0-.04-.09.09-.21.09-.31.13,0-.02,0-.07,0-.09,0,.07-.03.09-.06.11-.02-.07-.04.07-.08.04v-.02c-.02.08-.04-.04-.05.06l-.02-.06c0,.11-.04-.06-.06,0v.02s-.03-.03-.05,0h0s-.07-.04-.06.05c-.02-.07.04-.04.01-.14-.13.1-.28.1-.41.1-.02-.04-.03-.05-.03-.09-.01.02-.05.02-.06.07,0,0,0-.05-.02-.06-.03-.04-.03.12-.05.07.01-.03.01-.06.01-.1-.02.08-.05.07-.08.1,0-.02.01-.03,0-.06-.03.1-.06-.02-.08.04v-.06c-.03-.08,0,.13-.04.09,0-.02,0-.05,0-.07-.04.12-.09.08-.13.12,0,0,0-.03,0-.03-.04.01-.08-.02-.12.03-.01-.03,0-.16-.03-.14,0,.13-.07.05-.05.21-.03-.02-.09-.07-.11-.03.02-.05-.01-.17.02-.18l-.02-.08c0-.06.02.02.02-.05-.01,0-.06.06-.07.03-.03.08-.06.24-.1.26.02-.05,0-.15.01-.18l-.07.27s0-.11-.02-.08c0,.04-.01.06-.02.09,0-.02-.06.03-.06-.11,0-.06.02-.03.01-.08-.03,0-.03.05-.06.05v-.02s-.05.06-.04.14c.01,0,0-.08.02-.04-.02.08-.05.1-.08.1.01-.02.01-.06.02-.1-.04.11-.08.14-.13.19,0,.07.02-.12.03-.09-.04-.1-.12.13-.15-.01,0-.01,0,.1,0,.08-.02,0-.02-.11-.03-.07,0-.06-.02.02-.04.03-.01.04,0-.03.01-.03-.03.05-.13.13-.17.04,0,.04-.05.14-.06.13v-.09c0-.05-.03,0-.02-.07-.04.11.11-.08.07,0,0-.08-.06.14-.04.02-.02,0-.06.1-.07.01,0,.02.03-.12.01-.12-.04.01-.01.04-.05.07l-.02.04c-.01.09-.03-.01-.03.08,0-.07-.06.04-.04-.11l.02-.11s-.04.12-.06.17c0-.01,0-.03,0-.05-.02.18-.03-.02-.07.12-.02-.06-.08-.01-.08-.13-.03.05-.06.11-.08.07,0-.02.02-.02.02-.06-.01-.05-.02,0-.04.02,0-.03-.02-.11-.03-.17-.03.05-.04.14-.05.2,0-.18-.08.1-.09-.06.01-.02.05-.08.03-.13,0-.18-.06.12-.09.03v.14c-.01-.09-.08.07-.05-.07-.02.05-.03-.05-.05.09-.04-.13-.15.05-.15-.21-.01.02-.03,0-.04.07,0,.08.03-.05.02,0,0,0-.02.04-.02.06-.01-.03-.03-.05.01-.16-.03-.09-.08.22-.12.16.01-.06.01-.08,0-.07l-.04.09s0-.13.02-.23c-.02.01-.04,0-.06.07v-.12c0,.09-.02.05-.04.08v-.02s0-.02-.02-.01c0,.06,0,.09.02.11-.02.04-.03.03-.05.07.02-.09-.02-.07-.03-.08-.01-.02-.03.08-.04.07,0-.05-.02-.01,0-.08,0-.01,0,.05.02,0,0-.04.01-.12-.02-.06-.02.04-.03.18-.05.12.01-.02.02-.06.03-.09l-.02-.05-.02.08s0-.03,0-.04c-.03.09-.05.02-.08.11-.02,0-.02-.06-.03-.08h0c0-.06-.04-.03-.06.02v-.02s-.03,0-.05.04c-.01-.07.05-.31,0-.21-.02,0-.07.14-.07.19-.03-.07-.11.05-.12-.09-.01.03-.01.05-.03.07-.06-.05-.15.05-.17-.12.03-.03.02-.08.03-.12-.03.06,0-.08-.03.04-.01.07-.02.1-.01.13-.05.03-.1,0-.11-.06,0,.03-.01.05-.02.07.03-.11,0-.13-.02-.1l-.02.06v-.07s-.04.13-.04.06c0-.03.01-.05.01-.07-.03.05-.09.12-.1.06v-.1s-.04.05-.03.09c-.02-.07-.05-.09-.04-.17-.12.16-.22.12-.29.08v-.04s-.02.07-.02.03c.02-.04,0-.09.04-.14-.02-.06-.06.06-.08.07-.02.05.03-.03,0,.04,0,.02-.03-.06-.06.02,0-.04.03-.09.04-.12l-.03.03c0-.1.1-.15.11-.28h-.02c0-.08.07-.08.04-.12-.03.04-.08.15-.07.19-.04,0-.07.19-.11.16,0-.05.04,0,.05-.07,0-.07-.05.02-.06,0,0,.04-.03.11-.05.12,0-.05.04-.07,0-.09-.02.04-.06.06-.04.11-.04.1-.02-.04-.06.03.01-.07.08-.15.06-.2-.02.07-.07.07-.08.18,0-.03,0-.08.03-.12,0-.05-.08.1-.05-.04l-.03.06s0-.04,0-.09c-.02,0-.08.06-.05-.03,0,0-.04-.01-.05.06,0,.05.04-.04.02.06,0-.08-.03,0-.06,0v-.04s-.02,0-.03.03c.01-.02.02-.04.01-.06l-.03.05s.02-.1-.01-.1l.04-.03s0-.05-.02-.04c-.02.04-.05.1-.07.13-.02.01.01-.06-.02-.02l.04-.05s.01-.09-.01-.1c-.02,0-.07.06-.05.1-.01,0-.02-.04,0-.07-.03,0-.01.05-.05.07,0-.04-.01-.09-.01-.15l.05-.06h-.02c.04-.06,0-.06.04-.12,0-.01-.03,0-.04.01,0,.11-.08.12-.1.21-.05,0,.05-.23-.04-.12,0,.03-.04.08-.01.07-.02-.02-.05.07-.06.02.03-.02,0-.1.06-.13-.01.03.01.03.02.03,0-.04.03-.08,0-.1-.02,0-.04-.01-.05.03-.02.05.03,0,0,.05-.04,0-.02-.08-.06,0,.02,0,0,.06,0,.09h-.03s.02-.02.02-.02c-.03-.05-.03.05-.06.01v-.07s.05.06.07-.03c-.02-.02-.04.02-.06-.02,0,0,.01,0,.02,0,0,0,.02-.12-.03-.08-.03.01-.01.02-.03.05-.04-.02-.06,0-.08-.01.02-.05-.04-.03,0-.07,0,.04.05.07.09.03.01-.07.03.03.06-.03-.03-.02,0-.08,0-.12,0,0-.02,0-.03.01-.02.04,0,.04-.02.08-.03-.03-.07-.02-.1,0,0-.02.01-.06.03-.05-.04-.01-.08-.04-.12-.07,0,.06-.05-.01-.05.04.02.02.02.07,0,.08-.01-.01,0-.02,0-.04-.03.02,0-.06-.04-.03.04,0,.03-.05.05-.09-.03,0,.01-.03-.01-.04-.03,0-.07,0-.1,0-.02-.05-.09-.05-.12-.07-.01-.02.01-.04,0-.06-.02-.01,0,.04-.02,0h0s-.05-.05-.08-.02l.02-.02s-.01,0-.02,0c0,0,0-.02.01-.02-.01-.02-.04-.02-.07-.03v.02s-.05-.03-.09-.05h0s-.02-.01-.02-.01c0,0-.01-.01-.02-.02.02,0,.04,0,.06.01.01,0-.02,0-.01.01,0,0,.04.02.05.02-.01,0-.01,0-.03,0,0-.01.02,0,.03,0,0,0-.02,0-.02,0,.02,0,.03,0,.05,0-.02,0,0,.01,0,.01,0-.01.03,0,.06,0,.01.03.06,0,.09.02-.02.02-.05.02-.07.02.02.02.02,0,.04.03.02,0,.03-.03.06-.03v.02s.03-.02.06,0c.05.03.1.04.14.06v.02s.08,0,.12-.01c.04.04.13,0,.13.06.1,0,.19,0,.28.03l-.04.05s0,.04.02.03c0-.05.04-.05.07-.08.03.06.1.02.15-.02v.04c.05-.07.08,0,.12.03,0,.02,0,.07,0,.06.05-.07.06-.06.12-.1.03,0,.07.03.08.07.14-.1.22,0,.36-.06v.07c.14-.13.23.02.34-.04l-.04.13s.07-.02.09-.12c.02.04.09-.05.08.06.02.03.05-.06.08-.07.04.06.07.05.13.03h-.01s-.03.08-.02.09c.03-.04.07.05.08-.12.04.11.15-.06.18.08,0-.05.02-.05.03-.09.05,0,.08.11.14.03,0,.03-.03.08-.01.09.02-.02.01-.06.03-.09.1-.08.15.11.23.1.15-.08.28,0,.41-.01v.04c.06-.14.07.16.14-.05,0,.04.04.02.02.09.05-.1.08.11.15-.02,0,0,0,0-.02.02.04.09.1-.02.14.06,0,.02-.02.03-.03.06.01.08.07-.16.06.03.01,0,.02-.09.01-.09.11.08.24-.02.36-.05.07.12-.03.31.06.18,0,.04.01-.07,0-.03.03-.05.02.21.05.12,0-.11.02-.06.02-.13.05.08.05.18.1.1v.06c.05-.16.1-.07.16-.26.27,0,.52-.08.78-.06.25.06.5.04.77.16.07.13.07.12.14.08,0,.02,0,.02,0,.04,0-.09.05,0,.05-.09.1.03.19.02.29.03-.02,0-.02.07,0,.07l.02-.05v.02s.03-.05.01-.08c.25-.01.51.16.77.19.06.03.15.02.21.02.21.08.38.08.59.1,0,0-.03,0-.11.01Z"></path>
    <path class="cls-2" d="M1145.66,107.54s.03.01,0,.01h0Z"></path>
    <path class="cls-2" d="M1146.16,107.91s0,.02,0,.02c0,0-.02,0-.02,0,0,0,0,0,.02-.01Z"></path>
    <path class="cls-2" d="M1146.29,108.01s-.04.02-.06,0h.06Z"></path>
    <path class="cls-2" d="M1146.38,108.18s0,.04-.02.02c0-.01.01-.02.02-.02Z"></path>
    <path class="cls-2" d="M1146.41,108.14s.01.02.01.04c0-.02-.03,0-.01-.04Z"></path>
    <path class="cls-2" d="M1146.65,108.4s.03-.01.03.02c0-.03-.05.02-.03-.02Z"></path>
    <path class="cls-2" d="M1146.8,108.43s0,.01.01,0c0,.02-.01.04-.02.04v-.04Z"></path>
    <polygon class="cls-2" points="1149.44 109.09 1149.42 109.12 1149.43 109.06 1149.44 109.09"></polygon>
    <path class="cls-2" d="M1150.63,109.2s0,.05,0,.06c-.01,0,0-.07,0-.06Z"></path>
    <polygon class="cls-2" points="1151.27 108.94 1151.27 108.94 1151.27 108.84 1151.27 108.94"></polygon>
  </g>
  <path class="cls-3" d="M748.72,9.07c17.58-.61,248.59-2.54,256.1-2.72"></path>
</svg>
