<?xml version="1.0" encoding="UTF-8"?>
<svg xmlns="http://www.w3.org/2000/svg" id="a" version="1.1" viewBox="0 0 158.4 82.7">
  <defs>
    <style>
      .cls-1 {
        fill: #000;
        stroke-width: 0px;
      }
    </style>
  </defs>
  <path class="cls-1" d="M19.1,10.8v60.6c0,2.5.3,4.3.9,5.6.6,1.2,1.7,2.1,3.3,2.5,1.6.4,4,.7,7.2.7h17c4.7,0,8.2-1.5,10.7-4.6,2.5-3.1,4.1-7.1,4.8-12.2,0-.3.2-.4.7-.3.5,0,.7.2.7.5-.3,2.3-.5,5.1-.8,8.3-.3,3.2-.4,6.2-.4,8.9s-.7,2-2,2H.3c-.2,0-.3-.3-.3-.8s0-.8.3-.8c3.4,0,5.9-.2,7.5-.7s2.8-1.3,3.4-2.6c.6-1.3.9-3.3.9-5.8V10.7c0-2.6-.3-4.5-.9-5.8-.6-1.3-1.7-2.2-3.4-2.6-1.7-.5-4.2-.7-7.5-.7s-.3-.3-.3-.8,0-.8.3-.8c2.1,0,4.5,0,7.1.2,2.6.1,5.3.2,8.1.2s5.8,0,8.4-.2c2.6-.1,4.9-.2,7-.2s.3.3.3.8,0,.8-.3.8c-3.4,0-5.9.2-7.5.7-1.7.5-2.8,1.4-3.4,2.7-.6,1.3-.9,3.3-.9,5.8h0Z"></path>
  <path class="cls-1" d="M158.2,81.1c.2,0,.3.3.3.8s0,.8-.3.8h-89.6c-1.3,0-2-.7-2-2,0-2.7-.1-5.7-.4-8.9-.3-3.2-.5-6-.8-8.3,0-.3.2-.4.7-.5.5,0,.7,0,.7.3.7,5,2.3,9.1,4.8,12.2,2.5,3.1,6,4.6,10.7,4.6,0,0,72.5.9,75.8.9h0Z"></path>
  <path class="cls-1" d="M66.9,38.2l-11.9,29.4c0,.2-.4.4-1,.4s-.9-.1-1-.4L30.6,18.5c-.7-1.6-1.4-2.8-2.1-3.8-.8-.9-1.6-1.6-2.5-2-.9-.4-2-.6-3.3-.6s-.3-.2-.3-.5,0-.5.3-.5c.9,0,1.7,0,2.6,0,.9,0,1.8.1,2.6.1s1.7,0,2.5,0c1.5,0,2.8,0,4,0,1.2,0,2.3,0,3.3-.1,1,0,2,0,2.9,0s.3.2.3.5,0,.5-.3.5c-2.3,0-3.9.4-4.9,1.1-1,.8-1,2.2,0,4.4l20.9,45-3.1,3.9,12.2-30.1,1.3,1.8h0ZM108,11c.2,0,.3.2.3.5s0,.5-.3.5c-1.9,0-3.5.4-4.9,1.2s-2.7,2.5-3.8,5.1l-19.9,49.2c0,.2-.4.4-1,.4s-.9-.1-1-.4l-22.4-49c-1-2.4-2.1-4-3.3-5-1.2-1-2.7-1.4-4.6-1.4s-.3-.2-.3-.5,0-.5.3-.5c.8,0,1.7,0,2.6,0,.9,0,1.8.1,2.6.1s1.7,0,2.5,0c1.6,0,2.9,0,4-.1s2.1-.1,3-.1.3.2.3.5,0,.5-.3.5c-1.9,0-3,.3-3.2.9-.2.6.3,2.1,1.4,4.6l20.8,45-3.1,3.9,19.8-48.7c.8-2.1.8-3.6-.1-4.4-.9-.9-3.1-1.3-6.5-1.3s-.3-.2-.3-.5,0-.5.3-.5c1.4,0,2.7,0,4,.1,1.3,0,3,.1,5,.1s3.2,0,4.2-.1,2.3-.1,3.8-.1h0ZM66,36.3l7.5-18.6c.8-2.1,1-3.6.5-4.4-.5-.9-1.9-1.3-4-1.3s-.2-.2-.2-.5,0-.5.2-.5c.7,0,1.3,0,1.9,0,.6,0,1.2.1,1.9.1.7,0,1.4,0,2.3,0,1.7,0,3.1,0,4.2-.1,1.1,0,2.4-.1,3.9-.1s.2.2.2.5,0,.5-.2.5c-1.9,0-3.5.4-5,1.2s-2.7,2.5-3.7,5.1l-8.1,19.9-1.3-1.8h0Z"></path>
</svg>
