<?xml version="1.0" encoding="UTF-8"?>
<svg xmlns="http://www.w3.org/2000/svg" id="b" version="1.1" viewBox="0 0 1443.1 224.2">
  <defs>
    <style>
      .cls-1 {
        fill: #4d4d4d;
      }

      .cls-1, .cls-2 {
        stroke-width: 0px;
      }

      .cls-3 {
        fill: none;
        stroke: #4d4d4d;
        stroke-miterlimit: 10;
      }

      .cls-2 {
        fill: #646464;
      }
    </style>
  </defs>
  <g>
    <path class="cls-2" d="M839.5,12c-3.8.1,2.1,0-2.5.1.5,0,1.2,0,2.5-.1Z"></path>
    <path class="cls-2" d="M1111.3,181.2c6.2.3,13.3.9,20.5,1.7,7.2.7,14.6,1.5,21.4,2,1.6.1-.4.3,3.1.6,13.1.8,33.6,3.2,49.3,5.6h-1c3,.5,6.8.4,9.9.8,0,.1-1,0-.3.3.8-.3,5.8.5,7.2.4,1.2.3,1.1.6,2.7.9l1.9-.2c5.2-.4,12.3,1.5,19.3,1.7-.3,0-1,0-.5.2,11.2.6,25.1,2.3,37.6,3.4-.5.1-1,.4-.3.7.7-.5,4.5-.2,7.9.1,1.4.7,5.8.1,9.7.9h-.3c3-.2,4.2.9,6.7.5l1.8.7c1.4-.7,4.1.9,6.6.8v-.2c2.2,0,3.3.6,5.4.7h.2c2.5.3,4.4.6,5.7.7,1.3.1,2,.1,1.9-.2.8.3-.3.3-1.4.3-1.1,0-2,0-.7.5,8.1.4,16.3-.3,24.4-2,4-.9,7.9-2,11.8-3.4,3.8-1.4,7.7-3,11.4-4.5,1.8-.4,3-.8,3.4-.7,1.5-.7,5.7-2.3,6.9-3.2-.5.2,1.1,0,1.9-.3,2.9-.8,2.8-1.9,5.9-2.8-1.2.6-1.5,1-1,1.1,2.4-1.5,5.9-2.7,8.9-4.1-.4.3-1.2.6-1,.8,3.2-1.8,6.2-2.2,9-3.6l-1,.8c4.9-1.3,1.1-1.3,5.3-2.5-.9.5-.6.5-.7.7,1.8-1,4.3-2,6.8-2.9,2.4-.9,4.7-2.3,6.2-3.6-.2.2,0,.2,0,.2,3.4-2.7,6.4-6.4,8.3-10.8.5-.8.6-.5.9-.6.2-.1.7-.6,1.5-2.8-.4,0,.3-1.9.7-3.6.4-1.6.7-2.9-.1-1.7.6-1.9,1.3-4.3,1.8-6.7.5-2.4.8-4.6.8-5.9,0,1.8,1.1-1.8.8,1.5.2-.8.5-1.6.7-2.5.3.4-.4,2.6,0,1.8,0-.8.2-2.5.2-4.1,0-1.6,0-3.2,0-4-.5-3.1-1.6-5.9-2.1-10.9.5,2.3.6-1.4.9.2-.7-2.3-1.4-4.6-2.1-6.8-.2-1.7.5-.4,0-2.8-.2.2-.4-.9-.7-1.6,0-.6-1.1-6.8-.6-7.7.2-.8.5,2.7.5.8-.5-3.1-.7-3.2-1.2-6.2h0c-.2-2.1-1.3-5.9-1.3-3.7.2,1.4.3-.6.5,1.5-.6-1.3-1.3-4.8-1.9-7.8.3,1,.4.8.7,1.2-1.3-3.9-2.4-8.2-3.8-12.5-.3,0,1,1.5,1,2.2-.5-2.9-1.5-5.8-2.6-8.4-.6-1.3-1.2-2.5-1.8-3.7-.2-.3-.3-.5-.5-.8-.2-.3-.3-.4-.5-.7-.2-.2-.3-.4-.4-.5,0-.2-.4-.4-.6-.6.7.4.1.6.1.5-1.2-.9-1.7-1.4-2.1-1.8-.4-.4-.7-.7-1.5-1.3,0-.3-1.9-1.4-3.4-2.5-.9-.5-.3-.4,1,.6-1.1-.7-3.8-2.7-6.9-4.5-3.2-1.9-6.9-3.7-9.6-4.8,0,.1-.9-.2-2-.4-1.1-.2-2.3-.6-3-.8l.6-.2c-1.2-.6-4.5-1.2-4.7-1.5-.8,0-.4,0,.4.2.8.2,2.2.5,3.6.8,2.6.7,5.1,1.4,3.2,1-.4-.3-1.8-.6-3-.8-1.2-.2-2.1-.3-1.6-.5-1.4-.4-2.7-.6-4.1-.8-1.3-.2-2.7-.5-4-.8.8.2,2.3,0,0-.4-4-.5-1.2,0-4.4-.4h-2c-.2.2-3.6-.5-2.1,0-.5-.3-5.9-.4-5.4-.8l.6-.3c-1.8-.1-2.9.1-4.3.1-.2,0-.7-.2-.6-.2-.3.5-4.2-.5-6.3-.3-3.7-.5-9.3-1-11-1.5-2.8-.2-5.4-.3-8.6-.8.6,0,1.5.1,1.7,0-2-.3-2.5-.3-4.3-.4.4,0-4-.7-6.2-1.1-2.8-.2-1.9.1-2.2.2-2.5-.7-7.9-.7-11.1-1.4,1,0,4.1.3,1.8,0-2.5-.7-5.2-.3-9.3-1l1,.4c-1.8-.4-6.1-.6-5.6-.8-1.4,0-4.8-.7-4.4-.3-6.7-1-16.4-1.9-20.5-2.8-1,0-3.4-.4-2.9-.2,1.6.3,2.3.2,2.8.3-.9,0-1.1,0-1.2,0-2.1-.3-3.7-.5-1.7-.5-4.7-.7-4.9-.2-10.8-1,.3,0-.2-.1-1.9-.3l-3.3-.3c-3.8-.5-2.2-.5-2.2-.6-2.1-.2-4.6-.5-5.5-.5l-2.5-.5c1.8.4-1.7-.1-2.7-.2h1c-.4,0-2.8-.3-3.9-.4.3.1,2.7.5,4,.7-1.1,0-2.7-.3-4.1-.4.5,0-3.3-.5-5-.8-1.9-.3-2.1-.1-2.7-.2,0,0-3.1-.4-1.6-.3.6,0,1.4.3,2.5.3-1.2-.2-1.1-.3-3.6-.6-1.9-.2.5.4-3.2-.2,1,0,1.2,0,1.9,0l-3.4-.5h-.2c-.5,0-.1,0-.3,0-1,0-5.2-.6-6-.6-1.7-.2-3.6-.6-5.3-.8h.3c-2-.3-4.7-.6-6.4-.7h0c-1.1-.2-3.7-.5-5.1-.6-2.8-.5-.8-.7-4-.9-2.8-.4-4.5-.3-3.3,0-5.1-.8-10.9-1.3-15.5-2.2-.7,0-.3,0-1.8,0-7.4-1.1-15.8-1.9-21.6-3.1,2.2.2.2-.2.2-.4-1.8,0-2.1-.5-2.8-.2.2.2,0,.3,2,.7-4.5-.5-11.2-1.4-13.6-2,1.2.3.2.2-.7.2.4-.3-2.9-.9-5.4-1.1l-.4.2-1.6-.5c-1,0-1.1.4-3.6-.2-.1-.1-.2-.2-.7-.4-2.6-.1-6.3-.3-9-.9l-2.2-.7c-1.2-.1-3.2-.1-1.2.3-4.7-.9-7.7-1.3-9.2-1.8-8.1.2-20,.6-29.6.8l.3-.3c-2.6-.2-1.3.5-3.1.4.8-.3-2-.5,0-.8-3.7-.2-4.7.6-7.1.8-.3.4,1.9-.3,1.5.2-.4.1-5.1-.1-5.7.4-.9-.2-.2-.6.3-.8l-2.2.3c-2.8-.5,6.2-1.3,3.3-1.9h-2.1c-2-.3,5.5-.6.3-.7-2.2.3-4.2,1.1-2.1,1.3-4.7.3-2.1,1.3-7.2,1.4-1.4-.3,4-.2,3.1-.6-2.4-.3-4.8.4-6.9.3,2.4.1.4.7-1.1.9-2.6-.2,1.7-.6-2-.5-.6.3-3.9.7-1,.8-1.3.7-3.8,0-5.8.5-1.2-.4,3.7-1.2-.3-1.4.7.4-4.9.8-2.8,1.4-1.6,0-1.8-.4-.6-.8-2.2-.2-5.4,1-6.2.1l-.8.5c-.7-.1-1.7-.2-2.9-.4-2,0-6.4.8-6.2,0-.6.1-5.2.1-3.4.6,2.8.3,3.2-.4,4.8.2-2-.5-4.1.2-5.7.3l-.3-.3c-1,.1-3.2,0-3.9.3.8-.1.4-.3-.4-.4l-1,.4c-4,0-.9-.8-4.8-.8l2.9-.2c-.6,0-2-.4-3.8-.3-.7.3-2.1.7-2.7,1-2.2,0-1-.5-3.1-.2l2.8-.3c.4,0-1.8-.7-4.7-.9-1.8,0-4.7.3-1.8.7-1.5-.1-3.5-.5-2.3-.6-3.3-.1.4.4-2.4.4-1.1-.3-4.7-.9-6.8-1.5l3-.4-2-.2c2.6-.3-1.2-.5.2-.9-1.3-.2-3-.1-4.2-.1,3.8,1.1-4.5.8-3.4,1.6-5.3-.3-3.2-2-8.8-1.4.9.3-1.8.6,1.6.7-3.3-.4-2.3.5-6.2-.1,2.9,0-3-1,1.2-1-.3.2,2.3.4,3,.4-1.3-.4.3-.7-3.1-1-2.1-.1-4.9-.3-4.5,0,0,.4,3.2.2,1.8.5-4.1-.2-4.8-.8-6.5-.3,2.6.1,3.2.6,3.2.9h-3c0,0,.6-.3.6-.3-4.8-.6-1.5.3-6.2,0l-2.2-.6c1.1-.4,6.8.7,6,0-3-.3-4.1,0-7-.3.7,0,1.5,0,2.2,0-1.1-.1-2.1-1.1-6.5-.8-2.2.1-.6.2-.7.5-2.4,0-4,0-5.4,0-1.4,0-2.5,0-4.1.1.7-.5-5.6,0-2.1-.5.8.1,3,.1,5.2.2,2.2,0,4.4,0,5.2-.2-.9-.3,0-.3,1.4-.2,1.3,0,3,.2,3.5,0-3.9-.2-3.7-.8-4.3-1.2-1.1,0-2.2,0-2.8,0-.5.3,1,.4,1,.8-2.2-.1-4.3-.1-6.2,0-1.9.1-3.6.3-4.8.4-1.5-.1-1-.5.7-.6-5.2.2-10.9.2-15.8.2,3.2.4-5.6.2-3.4.6,2.7,0,5,.4,3.5.6-1.7,0,0-.2-.7-.3-2.1.3-3.3-.4-5.4,0,4.8-.2.9-.6,1.8-1-3.5.3.1-.3-3.3-.2-3.5.3-7.7.5-11.5.6-4.8-.2-12.2.2-16.5.3-2.2-.1-.7-.4-3.2-.5-2.9,0,2.1.3-2.1.2h.4c-1.3,0-7.8,0-9,.3l1.3-.3c-.8,0-1.5,0-2.2.1,0,0-1-.1.3-.2-2.6-.1-5.5.2-8.3.2h1.8c-4.9.3-8.1.2-12.8.4h.1c0-.1-2.8,0-2.8,0,.7-.1-1.9-.1-3.4,0,2.4-.1,4.8-.3,7.3-.4,2,0-2.2.2-.9.3,1.1,0,5.4,0,6.1-.2-1.7,0-1.8,0-3,.1-.6-.1,2-.2,3.2-.4-.9,0-2.1,0-2.3,0,1.7-.1,3.4-.2,6.3-.3-1.9.1,1.1,0,.3.2.2-.2,3-.3,6.5-.4,2.5.2,6.6-.4,10.7-.4-1.7.3-3.8.5-6.3.7,2.6,0,2.9,0,5.4,0,1.2-.2,2.1-.5,5.5-.7l.2.2c3-.2,3-.5,6.9-.5,6.6-.2,13.5-.3,18.5-.4l.2.2c2.8-.6,9.4-.5,13.2-.8,6.5,0,14-.7,17.3-.3,5.7-.2,11.1,0,16.5.2,5.4.2,10.8.6,16.7,1l-2,.3c2.1-.2,1.3.4,3.4.4-2.3-.6,2.9-.3,4.4-.5,5.2.8,12,.9,16.6.8l.2.4c4.7-.3,10.3.6,16.1,1,.7.2,1.7.5,3.4.6,3.2-.5,4.8-.4,9.4-.9,3.4,0,8.9,0,12.4,0,12.8-1.3,25.9-1.2,39.2-2l1,.4c6.4-.6,13.7-.7,20.7-.6,1.8,0,3.5,0,5.2.1,1.7,0,3.4.1,5,.2.8,0,1.6,0,2.4.1.8,0,1.6.1,2.4.2,1.6.1,3.1.3,4.4.4l-1.2.5c3.4.7,7.8,1.1,7,.5,3.4.7,8.6,1.1,10.7,2,3.5.7,4.3.5,7.2.9,7,1.4,9.6,1.8,16.2,2.8l-1.6-.3c-.7,0-.8.2.8.5,2.5.3,9,1.6,6.7.7,7,1.4,16.4,2.5,23.2,3.9-.6-.2,1.2,0,1.9,0,6.2,1,12.7,2.2,17.6,2.8,1,.2-1.6,0,.9.3,1.5.2,0-.1,1.9.1,10.1,1.3,20.3,3.1,29.4,4.2,16.3,2,33.2,4.1,48.8,5.8h-.2c5.2.4,12.2,1.7,16.4,1.7,1.2.2,4.7.5,3.8.6,4.2.2,11.6,1.4,17.7,1.7-.6,0-.9,0-1.5,0,6.1.8,11.5,1,17.9,1.8-.7,0-1.8,0-2,0,2.5.4,5.9.1,7.2.7,1.4.1,1-.2.2-.2,7,.7,14.3,1.3,21.7,1.8,3.7.2,7.3.4,11.1.6,3.8.2,7.5.8,11.2,1.5,5.2,1.4,5.3,1.9,5.1,2-.2.2-.6,0,3.6,1.1.6.4.6,0,.6,0,.8.2,1.5.5,2.1.8.6.3,1.1.7,1.6,1,.5.3,1,.6,1.4.9.5.3,1,.5,1.5.7-.6-.8,1.5.5,1.7.3,1.4.9,2.5,1.6,3.4,2.3.9.7,1.7,1.2,2.4,1.8,1.4,1.1,2.7,2.1,4.8,3.5h-.5c1.3.7,2.6,1.6,3.8,2.4l.9.6c.2.1.8.5,1.2.9.8.8,1.4,1.5,1.8,2.3.9,1.5,1.7,3,2.3,4.3.7,1.4,1.2,2.7,1.8,3.9,2.6,8.1,4.2,16.1,5.7,24.2,1.5,8,2.7,16,3.7,24,.2,2,.5,4,.7,6.1.2,2,.4,4.1.4,6.3,0,4.3-.4,8.4-1,12.6-.7,4.1-1.6,8.2-3.1,12.3-1.4,4.1-3.3,8-6,11.7-2.6,3.6-6.2,6.9-10.4,9l-1.6.8c-.5.2-1.1.4-1.7.6-.6.2-1,.3-1.4.5l-1.4.5c-1.8.6-3.7,1.3-5.5,2-7.3,2.7-14.6,5.5-21.9,8.4s-14.7,5.7-22,8.6c-1.8.7-3.8,1.5-5.8,2.1-2,.7-4,1.2-6,1.8-4.1,1-8.2,1.7-12.4,2.1-4,0-6.1-.1-8.3-.2-2.2,0-4.5,0-8.8-.1.4-.1.9-.1.3-.3-.2.3-1.8.2-3.3,0-1.5-.2-3-.4-3.5,0-11.8-1.6-22.7-2.7-34.8-4.2,1.9.2,2.9-.2.7-.5h-2.4c0,.1-.4-.1-.4-.1-1.6-.1-3.3,0-1.7.4-15.3-1.6-30.4-3.7-45.4-5.8-15-2.1-30-4.1-44.9-5.9-7.1-1.1-17.2-2.1-24.9-3-11.4-1.6-22.2-3.1-33.2-4.4-5.5-.6-10.9-1.2-16.5-1.8-2.8-.3-5.6-.5-8.4-.8-1.4-.1-2.8-.2-4.3-.3-.7,0-1.4,0-2.2,0h-1.1c-.2,0-.3,0-.5,0,0,0-.2,0-.2,0h0s0,0,0,0c0,0-.1,0,0,0,0,0,0,0,0,0s0,0,0,0h0s0,0-.1,0c0,0,0,0,0,0,0,0,.1,0,.1.1h0s.1,0,.2,0c.4,0,1.1-.1,2.1-.1,2,0,5.1.1,9.9.5h0Z"></path>
    <path class="cls-2" d="M844.2,11.8c.8,0,3.5,0,1.4.1-.3,0-1.7,0-1.4-.1Z"></path>
    <path class="cls-2" d="M915.6,11.6c0,0,1,0,1.2.1-.9,0-1.7.2-2.4.1.9,0,.8-.1,1.2-.2h0Z"></path>
    <path class="cls-2" d="M933.9,11.5c-.3.2-4.2.4-6.5.5l6.5-.5Z"></path>
    <path class="cls-2" d="M950.8,12.5c1.5.2,1,.3-.9.2-.1-.1.5-.1.9-.2Z"></path>
    <path class="cls-2" d="M952,12c1.4,0,2.1.2,2.8.4,0-.2-3.3,0-2.8-.4Z"></path>
    <path class="cls-2" d="M988.8,15.5c.9,0,2.8,0,3.6.4-.9-.3-4.3,0-3.6-.4Z"></path>
    <path class="cls-2" d="M1006,16.5c.6,0,.8.1,1.4,0,1,.2,0,.3-.9.3l-.5-.4Z"></path>
    <polygon class="cls-2" points="1316.9 40.8 1315.1 40.7 1315.4 40.6 1316.9 40.8"></polygon>
    <path class="cls-2" d="M1431.1,88c.5,1.8,0,1.3,0,1.6-.4-1.6.4.5,0-1.6Z"></path>
    <polygon class="cls-2" points="1433.6 160.2 1433.8 159.6 1434.3 160.1 1433.6 160.2"></polygon>
  </g>
  <g>
    <path class="cls-2" d="M62,96.1c-2.7,1.1,1.5-.5-1.8.7.4-.2.9-.4,1.8-.7Z"></path>
    <path class="cls-2" d="M827.3,12.4c-4.7.3-10.2.6-15.8.7-5.6.2-11.3.3-16.5.7-1.2,0,.3-.4-2.4-.2-10,.9-25.8,1.3-38.1,1l.7-.2c-2.3,0-5.2.6-7.6.6,0-.1.8-.2.2-.3-.6.4-4.5.3-5.5.6-1-.1-.9-.4-2.2-.5l-1.4.5c-3.9,1.2-9.5.3-14.9,1,.2-.1.8-.2.3-.3-8.6,1-19.3,1.3-28.9,1.9.4-.2.7-.5.1-.7-.5.5-3.4.8-6,1-.3-.1-.7-.1-1.2-.1-.2,0-.5,0-.9,0-.3,0-.6,0-1,0-1.3,0-2.9.1-4.4-.2h.3c-2.3.3-3.3-.8-5.2-.2l-1.4-.6c-1.1.7-3.2-.8-5-.6v.2c-1.7,0-2.6-.5-4.2-.6h-.1c-3.8-.4-5.9-1.2-5.9-.5-1.2-.7,3.7.3,1.7-.8-6.2-.6-12.5-1.5-18.7-3.1-1.5-.4-3.1-.9-4.6-1.4-1.5-.5-3-1-4.5-1.4-3-.9-6.1-1.6-9.1-2.2-1.3-.5-2.2-.8-2.5-1.1-1.2,0-4.7-.6-5.8-.4.4,0-.8-.5-1.4-.6-1.1-.3-1.8-.2-2.4,0-.7.2-1.3.3-2.5.4.9-.3,1.2-.6.9-.8-1.1.4-2.2.8-3.4,1.3-1.1.6-2.2,1.4-3.2,2.2.3-.3.7-.7.5-.8-1.9,2.1-4.2,2.8-6,4.5l.5-.8c-3.5,1.9-.5,1.3-3.4,3,.6-.6.3-.5.3-.7-2.2,2.4-6.5,5.1-8.9,7.1.1-.1,0-.2,0-.2-.7.5-1.4,1-2.1,1.5-.7.5-1.5,1-2.3,1.4-.8.4-1.8.7-2.7.9-.5.1-1,.2-1.4.2-.5,0-.9.1-1.4.2-1.4,0,.4-.9-3.2-.6.2.7-6.1.6-3.9,1.4-.8,0-1.7,0-2.6,0-.9,0-2,0-3-.2-1-.2-1.9-.5-2.7-.8-.8-.3-1.4-.7-1.9-.9,1.3.4-.9-1.5,1.4-.3l-1.5-1.3c.4-.1,1.7,1.1,1.3.4-.6-.3-1.7-.9-2.9-1.4-1.2-.5-2.5-.6-3.1-.8-1.3,0-2.5.4-3.7,1-.6.3-1.2.6-1.9,1-.6.4-1.4.9-2.2,1.3,1.5-1.1-1.3-.2-.2-.9l-4.2,3.6c-1.1.6-.5-.4-2.1.6.2.1-.5.6-.9,1-.5.1-4.7,2.5-5.5,2.2-.6,0,1.8-1,.4-.6-2.1,1-2.1,1.3-4.3,2.3h0c-.3,0-.6.2-1,.3-.4.1-.8.3-1.2.5-.6.1-1.1,0-1.4.1-.2,0-.2.2.5.4.6,0,.6,0,.5,0,0,0-.1-.1.4-.1.1,0,.3,0,.5,0-.1,0-.3.2-.5.2-.7.3-2.1,0-3-.2-1-.3-2.2-.7-3.2-1.1.8.2.8,0,1.2,0-3.2-.7-6.4-1.9-9.7-3.1-.2.3,1.4,0,1.8.4-1-.5-2.1-1-3.1-1.4-.5-.2-1.1-.4-1.6-.6l-.8-.2h-.4c0-.1-.3-.2-.3-.2-.2,0-.3,0-.5,0-.2,0-.3,0-.5.1-.5.2-.9.3-1.4.5-1,.3-1.9.6-2.9.8.6-.3.5.3.4.2-2,.7-2.1.3-3.4,1-.2-.2-1.6.7-3,1.4-.6.4-.4,0,.8-.5-.9.5-3.2,1.6-5.9,2.7-.3.1-.7.3-1,.4-.4.2-.8.3-1.2.5-.8.3-1.7.4-2.5.5-.8,0-1.7,0-2.4,0-.8-.1-1.4-.3-2-.4,0,.2-3,0-4-.2l.5-.2c-1-.4-3.6-.6-3.7-.9-2.4,0,8.9,1.2,5.7,1-.8-.4-4.4-.2-3.7-.6-2.2-.4-4.3-.4-6.3-1,.6.2,1.8-.1,0-.4-3.1-.5-.9,0-3.4-.3h-1.6c-.1.1-2.7-.7-1.6-.1,0,0-.4-.2-.8-.2-.4,0-.9-.1-1.3-.1-.9,0-1.7,0-1.6-.2.1-.1.2-.3.3-.4-.6,0-1.1.3-1.5.5-.4.2-.8.5-1.3.7-.2,0-.5,0-.5,0,0,.6-3,1-4.4,1.9-2.7.8-6.8,2.3-8.2,2.4-2,.8-3.9,1.5-6.3,2.1.5-.2,1.1-.4,1.2-.5-1.5.3-1.9.5-3.3.9.1,0-.6,0-1.8.1-1.1,0-2.4,0-3.3-.2-2.2,0-1.4.3-1.7.4-2-.5-6.1-.1-8.6-.7.8,0,3.1,0,1.4-.2-1.9-.5-4,0-7.1-.5l.8.3c-1.4-.3-4.7-.3-4.3-.5-1.1,0-3.7-.4-3.4-.1-2.6-.3-5.8-.6-8.7-.9-1.5-.1-2.9-.3-4.1-.4-1.1-.2-2.1-.1-2.9,0-.7.2-2.5.7-2.1.7,1.2-.2,1.6-.5,2.1-.5-.6.1-.7.2-.8.3-1.6.4-2.8.7-1.4,0-3.5.8-3.5,1.3-8,2.4.2-.1-.2,0-1.5.3l-2.4.8c-2.9.7-1.7.2-1.8.1-1.5.4-3.4.9-4.1,1.2-.6,0-1.3.2-1.9.3.7,0,.4,0-.2.1-.6.1-1.5.2-1.9.2.3,0,.5,0,.8,0-.2,0-.7,0-1.3,0-.6,0-1.3,0-1.8-.1.1,0,.6.1,1.2.2.6,0,1.4,0,2,0-.4,0-1,.1-1.6,0-.6,0-1.2,0-1.7,0,.4-.1-2.6-.3-3.8-.5-1.4-.2-1.6,0-2.1,0,0,0-2.4-.2-1.2-.2.5,0,1.1.2,1.9.2-1-.1-.8-.3-2.8-.3-1.5,0,.4.3-2.5,0,.8,0,.9,0,1.5,0l-2.6-.3h-.1c-.4,0-.1,0-.3,0-.8,0-4-.3-4.6-.2-1.3,0-2.8-.3-4.1-.5h.2c-1.5-.2-3.6-.3-4.9-.3h0c-.4,0-1.1-.1-1.9-.2-.7,0-1.4,0-1.9,0-1,0-1.2,0-1.4,0-.2,0-.5-.1-1.5.4-2,.8-3,1.7-2.1,1.4-1.8.8-3.7,1.7-5.6,2.5-1,.4-1.8.9-2.8,1.3-1,.4-2.1.6-3,.6-.5.2-.2.2-1.3.4-5.7.7-12,2-16.6,2.1,1.6-.3,0-.2,0-.4-1.4.4-1.7,0-2.1.4.2.2,0,.3,1.7.2-3.4.5-8.6,1.2-10.5,1.2,1,0,.2.2-.5.3.2-.4-2.3-.2-4.2.2l-.2.3h-1.3c-.7,0-.8.5-2.7.5-.1,0-.2-.2-.6-.2-2,.4-4.7,1.2-6.9,1.2l-1.8-.2c-.9.2-2.4.6-.8.5-3.7.2-6,.4-7.2.2-6.2,1.7-15.3,2.8-22.6,3.6l.2-.3c-2,0-1,.6-2.4.5.6-.3-1.6-.4,0-.8-2.8,0-3.6.8-5.4,1.2-.2.4,1.4-.4,1.1,0-.3.2-3.9.2-4.3.7-.7-.1-.2-.6.1-.8l-1.7.4c-2.2-.4,4.7-1.6,2.4-2.1l-1.6.2c-1.6-.4,4.1-1.1.1-.8-1.7.4-3.1,1.3-1.5,1.4-3.6.5-1.5,1.4-5.4,1.8-1.1-.2,3.1-.4,2.3-.8-1.9-.2-3.6.7-5.2.7,1.8,0,.4.7-.8.9-2,0,1.2-.6-1.6-.4-.4.3-2.9.9-.7.8-.9.8-2.9.1-4.4.8-1-.4,2.7-1.5-.4-1.3.5.4-3.7,1.1-2,1.6-1.2,0-1.4-.3-.5-.7-1.7,0-4,1.3-4.7.5l-.5.5c-.6,0-1.3,0-2.2-.2-1.5.2-4.8,1.2-4.7.5-.5.1-3.9.5-2.5.8,2.2,0,2.4-.7,3.7-.2-1.6-.3-3.1.5-4.3.8l-.2-.2c-.7.2-2.4.4-2.8.7.5-.2.2-.4-.4-.4l-.7.5c-2.9.6-.8-.6-3.7-.1l2.1-.6c-.5.1-1.5-.1-2.9.2-.5.4-1.4,1-1.8,1.4-1.6.4-.8-.3-2.3.3l2-.8c.3-.2-1.5-.4-3.7,0-1.4.3-3.4,1.2-1.2,1-1.1.2-2.6.2-1.8-.2-2.4.5.4.3-1.7.9-.9,0-3.6,0-5.3,0l2.1-1-1.5.2c1.8-.8-1-.2,0-.9-1,.1-2.2.5-3.1.8,3.1.2-3,1.8-2,2.3-3.9,1-2.9-1.2-6.8.9.7,0-1.1,1,1.4.2-2.5.5-1.5,1.1-4.5,1.5,2.1-.8-2.5-.1.5-1.3-.1.3,1.8-.2,2.2-.4-1.1,0,0-.7-2.5-.1-1.5.4-3.6,1-3.2,1.3.2.4,2.4-.6,1.5,0-3,.9-3.7.5-4.8,1.4,1.9-.5,2.5-.3,2.6,0l-2.2.7.4-.4c-3.7.7-.9.7-4.5,1.5h-1.8c.7-.7,5.1-1.2,4.3-1.7-2.3.5-2.9,1.1-5.1,1.5.5-.2,1.1-.4,1.6-.6-.8.2-1.9-.5-5,.9-1.6.6-.4.3-.4.6-3.6,1-4.6,1.6-7,2.3.4-.6-4.2,1.1-1.7,0,1.3,0,6.5-1.5,7.7-2.3-1.5-.2,2.9-.7,3.5-1.5-2.9.8-2.9.2-3.5,0-.8.2-1.6.6-2,.8-.2.4.8.1,1,.5-3.3.8-6.4,1.9-8.1,2.7-1.1.2-.9-.3.4-.7-3.8,1.2-8,2.3-11.7,3.4,2.5-.2-4.1,1.3-2.3,1.2,2-.5,3.8-.6,2.8,0-1.2.3,0-.2-.6-.2-1.5.7-2.6.3-4,1.2,3.5-1.2.5-.8,1-1.3-2.5,1,0-.3-2.5.5-2.5,1-5.5,2.1-8.3,3.1-3.6.8-8.9,2.9-12,3.9-1.7.4-.7-.3-2.5.3-2.1.7,1.7-.2-1.5.7l.3-.2c-.9.4-5.7,1.8-6.5,2.5l.8-.6c-.6.2-1.1.4-1.6.6,0,0-.8,0,.2-.3-1.9.5-4,1.5-6,2.2l1.4-.3c-3.5,1.4-5.9,2.1-9.3,3.4h0c0-.1-2,.7-2,.7.5-.3-1.4.4-2.4.8,1.7-.7,3.4-1.4,5.2-2.2,1.5-.5-1.5.7-.6.5.8-.2,3.9-1.4,4.4-1.7-1.2.4-1.3.5-2.2.9-.4,0,1.4-.7,2.2-1.1-.6.2-1.5.5-1.7.6,1.2-.5,2.4-1,4.5-1.8-1.4.6.8-.2.3,0,.1-.2,2.1-1,4.6-1.9,1.9-.4,4.7-1.9,7.7-2.9-1.1.7-2.6,1.4-4.4,2.1,1.9-.6,2.1-.8,4-1.3.8-.5,1.4-1,3.8-1.9h.2c2.2-.7,2.1-1,4.9-2,4.8-1.6,9.8-3.3,13.5-4.5l.2.2c1.9-1.2,6.8-2.4,9.5-3.5,4.8-1.2,10.2-3.4,12.8-3.7,8.3-2.7,15.6-5,24.4-7.1l-1.4.8c1.5-.7,1.1,0,2.6-.5-1.9,0,2-1,3-1.6,2-.3,4.3-.8,6.5-1.4,2.2-.6,4.3-1.1,6.1-1.6l.2.3c1.7-.7,3.7-1,5.8-1.3,2.1-.2,4.3-.5,6.5-.7.5,0,1.4.3,2.7,0,2.3-.9,3.6-1.1,7.1-1.9,2.6-.3,6.8-.8,9.5-.9,9.7-2,19.7-2.6,29.8-4.1l.8.3c9.8-1.9,22-2.2,30.4-3.3l-.8.7c2.7,0,6-.7,5.3-1.1,2.7,0,6.6-.8,8.3-.5,2.7-.1,3.3-.5,5.5-.8,5.4-.3,7.5-.5,12.5-1h-1.3c-.5.2-.6.4.7.4,1.9-.3,7-.5,5.1-.9,5.5-.2,12.7-1.4,18-1.7-.4,0,.8-.2,1.2-.5.9-.3,2.1-.8,3.2-1.2,1.1-.5,2.2-.9,3.3-1.3,1.1-.5,2.1-.9,3.1-1.3.5-.2,1-.4,1.5-.7.5-.2,1-.4,1.6-.6.8-.1-1.3.5.8,0,1.2-.2,0-.2,1.6-.3.5,0,1.1,0,1.6,0h1.5c0,.1,2.9.4,2.9.4,1.9.2,3.9.4,5.8.6,3.8.4,7.6.8,11.1,1.2,1.6.1,3.1.3,4.7.4l2.4.2c.8,0,1.5,0,2.2,0,.7,0,1.4-.2,2.2-.5l2.3-.6c1.5-.4,3.1-.8,4.6-1.3,3.1-.8,6.1-1.7,9.1-2.5.8-.2,1.5-.4,2.2-.6.8-.2,1.5-.4,2.3-.6.8-.2,1.7-.2,2.5-.2.9,0,1.6.1,2.4.2h-.1c4,.1,9.4,1.1,12.6.9.9.1,3.6.3,2.9.4,3.2,0,9,.8,13.6.7-.4,0-.7,0-1.2,0,2.3.2,4.5.3,6.7.2,1.1,0,2.2,0,3.1-.2,1-.2,2.2-.5,3.3-.8-.5.2-1.3.5-1.4.6,1.9-.3,4.1-1.7,5.3-1.6,1-.4.7-.5,0-.2,5.1-1.7,10.3-3.6,15.6-5.8,1.5-.6,3.2-.8,4.9-.8.4,0,.8,0,1.2.1h1.1c0,.1,2.1.4,2.1.4,2.8.4,5.6.7,8.4,1.1,7.9,1.6.3,1.2,6.7,1.6.5.2.4-.2.5,0,1.3.1,1.9.4,2.7.5.7.1,1.4.2,2.1-.1-.7-.3.9-.5.8-.8,2.3-.8,3.7-1.2,5-1.7,1.3-.4,2.4-.9,4.2-1.8l-.2.3c2-1.2,4.2-2.2,6.5-3.2.3-.1.6-.2.9-.4l.4-.2.5-.2c.5-.1.9-.3,1.4-.3.5,0,.9,0,1.4.1.7.2,1.3.3,2,.5.5.1,1.1.2,1.6.3,2.6,1.1,5.3,2.1,7.9,3.2,1.3.5,2.6,1,3.8,1.4.6.2,1.2.4,1.8.6.1,0,.3,0,.4.1,0,0,0,0,.1,0,0,0,.1,0,.2,0,0,0,.1,0,.1,0l.7-.3,1.5-.7c1-.5,2.1-1,3.2-1.6,2.1-1.1,4.2-2.2,6.3-3.3s4.2-2.3,6.3-3.4c.5-.3,1-.5,1.8-.9.7-.3,1.5-.6,2.2-.8,1.5-.4,3.2-.6,4.8-.5,1.6,0,3.2.4,4.7,1,.4.2.8.3,1.1.5l.5.3.4.2,1.5.8c.7.3,1.4.6,2.1.7.4,0,.7,0,1.1,0s.3,0,.6,0h.9c2.4-.2,4.7-.4,7.1-.6l3.5-.2c.7,0,1.4-.2,2.1-.5.4-.2.8-.4,1.2-.7l1.8-1.3,3.7-2.6c2.5-1.8,4.9-3.5,7.4-5.3l7.4-5.3.9-.7c.4-.3.9-.6,1.3-.8.9-.5,1.9-.9,3-1.2,2-.6,4.3-.8,6.3-.5,6.2.7,12.3,1.7,18.4,3.3,1.5.4,3.1.8,4.6,1.3,1.5.5,3.2,1.1,4.4,1.5,2.7.9,5.5,1.7,8.5,2.3,2.7,1,4.1,1.5,5.7,1.8,1.6.3,3.2.5,6.3.9-.3,0-.7,0-.3.2.4-.6,4.4.6,5.1,0,4.5.7,8.8,1.2,13.1,1.7,2.2.2,4.4.4,6.6.7h.7c0,0,0,0,0,0h.4c.6,0,1.1,0,1.7,0,1.2,0,2.3,0,3.5-.1-1.5.1-2.2.6-.4.6l1.8-.4.3.2c1.2-.1,2.5-.5,1.2-.6,11.8-.6,23.5-.6,35.1-.6,11.7,0,23.2,0,34.8-.3,5.5,0,13.3-.2,19.3-.4,8.8.1,17.2.1,25.7,0,8.4-.1,16.9-.2,25.9-.3,0,0-2.3.2-9.7.5h-.1Z"></path>
    <path class="cls-2" d="M65.3,94.8c.6-.2,2.5-.9,1-.2-.2,0-1.2.3-1,.2Z"></path>
    <path class="cls-2" d="M117.5,78.1c0,0,.8-.2.9-.2-.6.2-1.2.6-1.7.6.7-.2.5-.3.8-.4Z"></path>
    <path class="cls-2" d="M131,74.3c-.1.2-3,1.2-4.7,1.7l4.7-1.7Z"></path>
    <path class="cls-2" d="M143.8,71.6c1.1-.1.9,0-.6.4-.1,0,.3-.3.6-.4Z"></path>
    <path class="cls-2" d="M144.6,70.9c1.1-.3,1.6-.3,2.1-.3,0-.2-2.4.8-2.1.3Z"></path>
    <path class="cls-2" d="M172.1,64.9c.6-.2,2-.6,2.7-.5-.7,0-3.1.9-2.7.5Z"></path>
    <path class="cls-2" d="M184.9,62.4c.4,0,.6,0,1.1-.2.8,0,0,.3-.6.4l-.4-.2h0Z"></path>
    <polygon class="cls-2" points="421.3 36.7 419.9 36.6 420.1 36.5 421.3 36.7"></polygon>
    <path class="cls-2" d="M521.8,30.9c1.4.4.8.6,1,.7-1.2-.5.6-.1-1-.7Z"></path>
    <polygon class="cls-2" points="575.7 24.3 575.3 24.3 575.4 23.7 575.7 24.3"></polygon>
  </g>
  <g>
    <path class="cls-2" d="M158.5,113.8c-4.8-1.8,2.5,1.1-3.1-1.2.6.2,1.6.6,3.1,1.2Z"></path>
    <path class="cls-2" d="M1115.7,182.7c4.1.4,8.5.9,13.1,1.3,4.6.5,9.4,1.1,14.2,1.8,4.8.7,9.7,1.3,14.5,2,4.8.6,9.5,1.4,13.9,1.9,2.1.3-.6.3,4.1.9,4.3.6,9.3,1.2,14.6,2.1,5.3.9,11,1.8,16.7,2.9,11.5,2.1,23.5,4.7,33.8,7.1h-1.3c3.9.8,8.9,1.3,13.1,2.2,0,.1-1.4-.1-.4.2,1.1-.1,7.6,1.4,9.5,1.6,1.6.5,1.4.7,3.5,1.4h2.5c6.9.6,16.2,3.7,25.4,5.2-.5,0-1.4-.1-.7.1,4.1.7,8.6,1.6,13.2,2.5,1.2.2,2.3.5,3.5.7.6.1,1.2.3,1.8.4.6.1,1.2.3,1.7.7.9.8,1.1,2.4.4,3.4-.3.5-.9.8-1.4,1.1-.6.3-1.1.5-1.7.8-3.8,1.4-7.7,1.7-11.5.9-3.7-.8-7.4-1.6-11-2.4.7,0,1.4-.2.4-.6-.9.3-6-.6-10.4-1.5-1.9-1-7.6-1.1-12.7-2.6h.5c-3.9-.3-5.6-1.6-8.8-1.5l-2.3-1c-1.8.5-5.4-1.6-8.7-1.8v.2c-2.9-.4-4.4-1.1-7.2-1.6h-.2c-6.5-1.3-10.2-2.5-10.1-1.8-2.2-1,6.3,1,2.9-.4-10.7-1.9-21.5-3.9-32.3-5.9s-21.7-4-32.5-5.6c-2.4-.7-4-.9-4.5-1.3-1.1,0-3.1-.3-5.1-.6-2-.2-4-.3-5-.2.7,0-1.4-.5-2.5-.6-3.9-.6-4.4.4-8.7-.2,1.7,0,2.3-.3,1.8-.6-3.8.3-8.7,0-13.1,0,.7-.1,1.7-.2,1.6-.4-4.8.5-8.8-.1-13,.5l1.6-.5c-3.4,0-3.9.2-4.3.4-.4.3-.6.5-3.6.6,1.4-.2.9-.4,1.1-.5-5.4,1.1-14.2,2-19.6,2.9.3,0,.2-.2.2-.2-5.9.8-12.1,1.2-18.6,2.1-2.4,0,.7-1-5.6-.4.2.8-10.7,0-7,1-5.4-.3-13.9-.8-17.4-.6,2.4-.2-2.6-1,1.9-.9l-3.4-.5c.5-.3,3.5.2,2.4-.2-2.2,0-8.8.1-10.8,0-4.2.4-8,1.1-14.7,1,3.2-.2-1.8-.8.4-.9l-9.4,1.1c-2.2,0-.5-.6-3.7-.5.2.2-1.2.3-2.2.4-.8-.1-9.3,0-10.2-.8-1-.3,3.7,0,1.2-.4-4.1,0-4.3.1-8.4,0h0c-2.7-.2-8,0-5.1.4,1.9,0-.7-.4,2.1-.1-1.9.3-6.7.3-10.8.2,1.4,0,1.2-.2,1.8-.4-5.6.4-11.4.4-17.6.4-.1.3,2.3-.5,3.2-.3-7.9-.6-16.4.1-23-.6,1.1,0,.6.4.5.3-3.8-.1-3.6-.6-6.1-.5-.2-.2-3.1,0-5.7,0-1.3.1-.7-.1,1.6-.1-3.6.1-17.9,0-26.1-.5.2.1-5.1.4-7,.3l.8-.3c-1.7-.2-6.4-.2-6.7-.4-4.1.3,15.6.1,10.1.3-1.4-.3-7.7.3-6.5-.1-3.8-.1-7.5.1-11.2-.3,1.1,0,3.1-.3,0-.4-5.4-.1-1.5.1-5.9,0h-2.8c-.2.3-4.8-.2-2.8.2-.7-.2-7.9-.1-7.3-.6l.8-.3c-2.3,0-3.8.3-5.7.4-.3,0-.9-.1-.8-.2-.4.5-5.6-.2-8.4.1-4.9-.3-12.5-.4-14.8-.8-3.8,0-7.2,0-11.5-.1.9,0,2,0,2.3,0-2.7-.2-3.4-.1-5.8-.1.5,0-5.4-.4-8.4-.6-3.8,0-2.5.3-2.9.4-3.4-.5-10.6,0-14.9-.5,1.3,0,5.5,0,2.4-.2-3.4-.4-6.9,0-12.5-.2l1.3.3c-2.5-.2-8.2,0-7.6-.3-1.9,0-6.5-.3-5.9,0-9.1-.5-22.1-.5-27.7-1.1-1.3,0-4.5-.1-3.9,0,2.2.2,3,0,3.8.1-1.2,0-1.4,0-1.5,0-2.8-.1-5-.2-2.4-.3-6.3-.3-6.5.2-14.5,0,.4,0-.2-.1-2.6-.2h-4.4c-5.2,0-2.9-.2-3.1-.4-2.8,0-6.2-.1-7.4,0l-3.3-.2c2.4.2-2.3,0-3.6,0h1.3c-.5,0-3.7-.1-5.3-.1.4.1,3.6.2,5.4.2-1.4,0-3.6,0-5.5,0,.6-.1-4.5-.2-6.7-.2-2.5,0-2.8,0-3.6,0,0,0-4.1,0-2.2-.2.9,0,2,.1,3.4,0-1.7,0-1.5-.2-4.9-.2-2.6,0,.7.3-4.3.1,1.3,0,1.5,0,2.5-.1l-4.6-.2h-.2c-.6,0-.2,0-.5,0-1.4.1-7,0-8.1,0-2.3,0-4.9-.2-7.1-.2h.4c-2.7-.1-6.3-.1-8.6,0h.1c-1.5,0-5,0-6.8,0-3.8-.2-1.2-.6-5.4-.5-3.8,0-6,.2-4.4.3-6.8-.2-14.6,0-20.9-.4-1,0-.4.1-2.4.1-10-.2-21.2,0-29.2-.7,2.9,0,.2-.2.2-.4-2.4.1-2.9-.3-3.8,0,.2.2,0,.4,2.8.5-1.5,0-3.2,0-5-.1-.4,0-.9,0-1.3,0-.5,0-1,0-1.5-.1-.5,0-1-.1-1.5-.1-.5-.1-.9-.3-1.3-.4-3.4-1.1-6.2-2.1-7.8-2.8,1.5.6.3.3-1,0,.5-.2-3.6-1.7-6.8-2.6h-.5c0,0-2-.8-2-.8-1.2-.3-1.5,0-4.6-1.1-.1-.1-.3-.3-.8-.6-3.4-.8-8.1-1.9-11.7-3.1l-2.8-1.2c-1.5-.4-4.2-.9-1.5,0-3-1-5.5-1.8-7.5-2.4-2-.6-3.4-1.1-4.4-1.6-2.7-.5-5.7-1.1-8.9-1.8s-6.5-1.4-9.9-2.1c-6.8-1.4-13.8-3.1-20-4.4l.4-.2c-3.3-.9-1.8,0-4.1-.6,1.1,0-2.5-1.1.2-.8-4.8-1.3-6.3-.8-9.5-1.3-.5.2,2.6.3,1.9.6-.6,0-6.6-1.5-7.5-1.1-1.2-.4-.2-.6.5-.7l-3-.3c-3.5-1.3,8.4.5,4.8-.9l-2.7-.4c-2.5-1,7.3.8.5-.7-3-.3-5.7,0-3.1.7-6.2-.9-3.1.7-9.7-.4-1.8-.6,5.3.8,4.1.2-3.1-.9-6.3-.8-9.1-1.4,3.1.7.4.8-1.6.6-3.4-.7,2.3-.2-2.5-.9-.8.2-5.3-.2-1.5.5-1.8.4-5-.9-7.6-.8-1.5-.7,5.1-.4-.1-1.4.8.5-6.6-.2-3.9.8-2.1-.4-2.2-.8-.7-.9-2.9-.6-7.3,0-8.2-1.1l-1.1.4c-.9-.3-2.2-.5-3.7-1-2.6-.3-8.5-.3-8.2-1-.4,0-2.1-.2-3.4-.2-1.3,0-2.2,0-1.1.4,1.8.2,2.8.3,3.6.3.9,0,1.5.1,2.5.6-2.6-.9-5.2-.5-7.3-.4l-.3-.3c-1.2,0-4.1,0-4.8.4.9-.2.4-.4-.5-.4l-1.3.5c-5.2.6-1.3-.6-6.3-.1l3.8-.6c-.8.1-2.6-.1-5,.2-.9.4-2.6,1-3.4,1.4-2.9.4-1.3-.3-4.1.3l3.6-.7c.5-.2-2.5-.4-6.4-.1-2.4.3-6.2,1.1-2.3,1.1-1.9.2-4.6.2-3.1-.2-4.3.5.6.4-3.1.9-1.6-.1-6.4,0-9.3-.2l3.9-.9-2.6.2c3.3-.8-1.7-.2.1-.9-1.8,0-3.9.4-5.6.7,5.3.4-5.7,1.6-4.2,2.2-7.1.8-4.6-1.4-12,.4,1.2,0-2.2.9,2.2.3-4.4.3-3,1-8.2,1.1,3.9-.6-4.2-.4,1.4-1.2-.4.3,3.1,0,4-.2-1.9-.1.3-.7-4.2-.4-2.8.3-6.6.6-6,.9.1.4,4.2-.4,2.5.2-5.5.6-6.5,0-8.7.9,3.5-.3,4.4,0,4.4.3l-4.1.4.8-.3c-3.3.1-3.8.2-4.2.4-.2,0-.5.1-1,.2-.6,0-1.5.1-3.2.1-.5,0-1.2-.2-1.8-.3-.6-.1-1.1-.3-1.6-.5.2,0,.5,0,.9,0,.2,0,.4,0,.6,0,.2,0,.5,0,.8,0,.3,0,.5,0,.8,0s.5,0,.8,0c.5,0,1.1,0,1.6,0,2,0,3.7-.2,3.1-.5-2.1,0-3.5.2-4.9.3-.6,0-1.5,0-2.3,0-.8-.1-1.7-.2-2.7-.5.9.1,2.2.3,3.1.3-.4,0-.8-.2-1.3-.3-.5-.1-1-.3-1.6-.5-1.3-.4-3.1-.9-6.1-1.7-3-.9-.9,0-1,.2-3.2-1.2-5.2-2.2-7-3-1.7-.8-3.1-1.6-5-2.7.5,0-1.1-1-2.3-1.8-1.2-.8-2-1.4.2-.2.8.7,3.3,2.4,6,3.9,2.6,1.5,5.5,2.6,6.7,2.9-1-.8.2-.2,1.9.5,1.7.7,4,1.3,4.8,1.2-2.7-.7-3.8-1.3-4.4-1.8-.6-.4-.7-.7-1-1.1-1.4-.6-2.7-1-3.5-1.3-.7,0,1,.9,1,1.2-5.5-2.6-10.4-5.5-13.2-7.2-1.5-1.4-.8-1.2,1.1.1l-1.1-.8-.5-.4c-.2-.1-.4-.3-.5-.3-.2-.1-.6-.3-1-.4-.4-.1-.8-.2-1.2-.4-1.7-.4-3.4-.9-5.2-1.2-3.5-.8-7-1.5-10.2-2.1,4.1,1.3-7.3-1.2-4.5-.3,3.5.8,6.4,1.7,4.5,1.6-2.2-.5.1-.2-.8-.5-2.8-.3-4.3-1.2-7.1-1.4,6.3,1,1.3-.4,2.6-.5-4.6-.6.2-.2-4.2-1.1-4.6-.6-10.2-1.5-15.2-2.3-6.3-1.5-16-3-21.6-4.2-2.9-.8-.9-.6-4.1-1.4-3.8-.8,2.7.9-2.8-.4h.6c-1.7-.2-10.1-2.3-11.8-2.4h1.8c-1-.1-2-.3-2.9-.5,0,0-1.2-.5.5-.1-3.4-1-7.1-1.8-10.8-2.9l2.3.8c-1.6-.4-3-.8-4.4-1.3-1.4-.4-2.6-1-3.9-1.4-2.6-.7-5.2-1.4-8.2-2.2h.2c0,0-3.6-1-3.6-1,.9.2-2.4-.8-4.3-1.3,3.1.9,6.3,1.7,9.4,2.4,2.6.8-2.9-.6-1.3,0,1.4.5,7,1.9,8,2-2.2-.6-2.3-.6-4-.9-.7-.3,2.6.5,4.3.8-1.1-.3-2.7-.7-3-.7,1.1.3,2.2.4,3.6.8,1.2.5,2.7,1,4.5,1.5-2.5-.7,1.3.5.4.3.3,0,3.8.9,8.4,2.1,3.2,1,8.7,1.9,14,3-2.2-.2-5-.6-8.3-1.3,3.3.9,3.7.8,7.1,1.7,1.7.2,2.9.2,7.3.9l.2.2c4,.7,4.1.4,9.1,1.4,8.7,1.7,17.7,3.2,24.3,4.4l.2.3c3.8.1,12.4,1.9,17.4,2.6,2.1.4,4.3.9,6.5,1.3,2.2.4,4.4.9,6.4,1.5.3,0,.5.1.8.2.3.1.5.1.8.3.7.4,1,.6,1.4.9.8.5,1.5,1.1,2.2,1.5,1.4,1,2.6,1.8,3.5,2.4,3.3,1.9,6.5,3.4,9.9,4.7,1.7.6,3.4,1.1,5,1.5,1.7.4,3.4.7,5.1.7,3.4,0,7.1-.4,10.8-.7,3.7-.3,7.5-.6,11.4-.9l-2.6.7c2.8-.6,1.9.1,4.6-.2-3.2-.1,3.8-.8,5.7-1.3,7-.3,16-1.5,22.1-2.4l.3.3c6.2-1.2,13.7-1.3,21.5-1.8.9,0,2.4.3,4.7,0,2.1-.5,3.8-.7,5.6-.9,1.9-.1,4.1-.2,7.3-.2,2.4.2,5.3.6,8.2.9,3,.4,6,.8,8.2,1.2,2.1.1,4.3.3,6.4.5,2.1.2,4.3.4,6.5.7,4.3.5,8.6,1.1,13,1.8,4.3.7,8.7,1.4,13,2.2,4.4.7,8.7,1.6,13.1,2.3l1.2.7c17.1,2.6,37.6,8.5,51.9,12.3l-1.5.2c4.4,1.4,10.2,2.8,9.2,2.1,4.4,1.5,11.1,3.2,13.8,4.6,4.5,1.6,5.6,1.6,9.3,2.8,4.5,1.6,7.5,2.8,10.5,3.9,1.5.5,3,1.1,4.6,1.6.8.3,1.6.6,2.5.8.4,0,.9,0,1.3.1.5,0,.9.1,1.5.1-.8,0-1.3-.2-2-.2-.9,0-1,.2,1,.4,3.2.2,12.1.8,8.8.1,9.5.7,22.2.7,31.5,1.3-.8-.1,1.5,0,2.5-.1,8.3.3,17.1.7,23.8.7,1.3,0-2.1.1,1.3.2,2,0,0-.1,2.5-.1,13.5.2,27.4.8,39.7,1,21.9.3,44.7.7,65.7,1.2h-.2c7,0,16.5.6,22.1.3,1.7.1,6.3.1,5.1.3,5.6-.1,15.7.5,23.8.3-.7,0-1.2,0-2,0,8.2.3,15.4.2,24,.5-.9,0-2.5,0-2.7.1,3.3.2,7.9-.3,9.7.2,1.9,0,1.4-.2.2-.2,18.9.5,39,.5,58.7.6,14.1.6.8,1.1,12,.8.9.1.7-.2.8-.1,4.3-.1,6.7.9,9.7.6-1.2-.5,2-.2,2.1-.5,8.6.4,10.3.9,17.1.7l-.5.2c8-.6,17.2,0,24-.7,22,.3,43.5.6,64.8.8,10.7.1,21.3.2,32,.4,5.3,0,10.7.1,16,.2h1.5c0,0,0,0,0,0h0l2-.2,4-.4c2.6-.3,5.3-.5,7.9-.8,10.4-1,20.8-2.6,31.6-3.5,10.8-.9,21.6-.6,32.2.3,1.3.1,2.7.2,4,.3l4,.4c2.7.3,5.3.7,8,1,2.7.4,5.3.8,7.9,1.2,2.6.4,5.2.9,7.9,1.3,10.5,1.8,21,3.9,31.5,6.1,9.7,2.8,10.5,2.9,21.4,4.9-.5,0-1.2,0-.4.2.7-.6,7.7,1.5,8.8,1.1,15.5,3.4,29.9,6.4,45.8,10.1-2.5-.5-3.9-.3-.9.3l3.2.3.5.3c2.1.4,4.4.6,2.3,0l5.1,1.1,2.5.6,1.2.3c.3,0,.7.1,1,.2,1.4.2,2.8.3,4.2.1.3,0,.7,0,1-.1h.2s0,0,0,0h0s0,0,0,0c0,0,0,0,0,0h0c-3.8-.9-7.6-1.8-11.4-2.7-8.2-1.9-16.4-3.9-24.6-5.9-16.3-3.8-32.7-7.5-49.1-10.7-9.3-2.1-22.7-4.4-32.9-6.2-15.1-2.9-29.5-5.4-44-7.6-14.5-2.1-29.2-3.9-44.7-5.6,0,0,1,0,3.6.3,2.6.2,6.8.6,13.3,1.2h0Z"></path>
    <path class="cls-2" d="M164.3,115.8c1,.4,4.4,1.5,1.7.7-.3-.2-2.1-.8-1.7-.7Z"></path>
    <path class="cls-2" d="M257,138.6c.1,0,1.3.3,1.6.4-1.2-.2-2.3-.2-3.2-.5,1.2.2,1,0,1.6.1h0Z"></path>
    <path class="cls-2" d="M280.8,143.6c-.4,0-5.4-.9-8.4-1.5,2.8.5,5.7.9,8.4,1.5Z"></path>
    <path class="cls-2" d="M300.3,155c.9.4,1.3.6,1,.6-.2,0-1-.3-2.3-.8-.1-.2.7.1,1.3.2h0Z"></path>
    <path class="cls-2" d="M302,155.2c1.9.6,2.8,1,3.7,1.4,0-.1-1.2-.3-2.2-.7-1-.3-1.9-.6-1.5-.7Z"></path>
    <path class="cls-2" d="M352.1,155.1c1.2-.1,3.7-.5,4.9-.4-1.2,0-5.7.8-4.9.4Z"></path>
    <path class="cls-2" d="M374.9,152.8c.7,0,1,0,1.9-.2,1.4,0,0,.3-1.2.4l-.7-.3h0Z"></path>
    <polygon class="cls-2" points="787.8 192.6 785.4 192.6 785.7 192.5 787.8 192.6"></polygon>
    <path class="cls-2" d="M970.9,198.1c2.5-.1,1.7.3,2.1.3-2.2,0,.8-.3-2.1-.3Z"></path>
    <polygon class="cls-2" points="1069.8 199.2 1069 199.3 1069.2 198.6 1069.8 199.2"></polygon>
  </g>
  <g>
    <path class="cls-2" d="M202,91.3c.3,0-.1-.3.2,0,0,.1-.1.2-.2,0Z"></path>
    <path class="cls-2" d="M131.1,92.7c1.1-.1,1.9-.2,2.9-.3.1,0,0,0,.2,0,.9-.1,2.3-.3,3.4-.4h0c.2,0,.5,0,.7,0,0,0,0,0,0,0,0,0,.4,0,.5,0,0,0,0,0,.2,0h.1c.3-.2.9-.1,1.3-.2,0,0,0,0,0,0,.8-.1,1.7-.2,2.6-.3,0,0,0,0,0,0,0,0,.3,0,.5-.1.1,0,.4,0,.7,0h0c.2,0,.3,0,.5,0h.1c0,0,.3,0,.5,0h0c.1,0,.2,0,.4,0h0c.3,0,.5,0,.5,0,.1,0-.3,0-.1.1,1.1-.2,2.3-.2,3.4-.3.1,0,.2,0,.2,0,.1,0,.4,0,.5,0,0,0,0,0,.1,0,.2,0,.2-.1.4,0,0,0-.1,0,0,0,.2,0,.4,0,.7-.1,0,0,0,0,0,0,.2,0,.4,0,.7,0h0c.4,0,.1,0,.4,0,0,0,0,0,0,0,.3-.1.7-.1,1-.2,0,0,0,0,0,0,.3,0,.6,0,1,0,.1,0,0,.2.3.1,0-.1.6,0,.4-.2.3,0,.7,0,.9,0-.1,0,.1.2,0,.2h.2c0,.1-.2,0-.1.1.1,0,.4,0,.6,0,.2,0,.4-.3.7-.3-.2,0,.1.2,0,.2l.5-.3c.1,0,0,.1.2,0,0,0,0,0,.1,0,0,0,.5,0,.5,0,0,0-.2,0,0,0,.2,0,.2,0,.4,0h0c.1,0,.4,0,.3-.1-.1,0,0,0-.1,0,0,0,.3-.1.6-.2,0,0,0,0,0,.1.3-.1.6-.2.9-.3,0,0-.1.1-.2,0,.4,0,.8-.2,1.2,0,0,0,0,0,0,0,.2,0,.2.1.3,0,0,0,.2,0,.3,0,0,0,0,0,0,0,.2,0,.9-.2,1.4-.1,0,0,.3-.2.4-.2h0c0,.2.3,0,.4.2.2-.1-.8.2-.5,0,0,0,.4-.2.3,0,.2,0,.4-.2.6,0,0,0-.1.2,0,.1.3,0,0,0,.3,0h.1c0-.2.2,0,.1-.2,0,0,.4,0,.4,0h0c.1.1.2,0,.3,0,0,0,0,0,0,0,0-.2.3,0,.4-.2.3,0,.6,0,.8.1.2,0,.4-.2.6-.1,0,0-.1,0-.1,0,.1,0,.2,0,.3,0,0,0,.3.1.4.2.2,0,.1-.2.1-.3.2.2.6-.2.8,0,0,0-.3.1-.1.2.2.2.4-.2.6,0v-.2c0,.1.3-.1.3,0,0,0,.3,0,.3-.1.5.2,1.1-.2,1.4.2,0,0,.2,0,.2-.1-.1-.1-.2,0-.2,0,0,0,0,0,0,0,.1,0,.3,0,.1.2.3.1.3-.4.8-.3,0,0,0,.1.1,0l.2-.2c.3,0,.2.2.2.3.1,0,.3,0,.4-.1l.2.2c-.1-.1.1,0,.2-.1h0c0,0,.2,0,.3,0,0,0-.2-.1-.3-.2,0,0,.2,0,.3-.1,0,.2.2,0,.4.1.1,0,.1-.1.2-.1,0,0,.2,0,.1.1,0,0-.1,0-.2,0,0,0,0,.2.3,0,.1,0,0-.3.2-.2,0,0,0,0-.1.2h.2c0,0,0,0,0,0,0,0,0,0,0,0,0-.2.4,0,.4-.2.1,0,.3,0,.4,0h0c.1,0,.3,0,.4,0h0c0,0,.2,0,.4,0,.2,0,0,.5.3.3.2,0,.3-.3.2-.4.4,0,.8-.2,1.1,0,0,0,0,0,.1-.1.5,0,1.1-.2,1.5,0-.1,0,0,.2,0,.2.1-.1.1.1.2,0,0-.1,0-.2-.1-.3.3,0,.8,0,1,0,0,0,0-.1,0-.2,0,.2.2.3.4.2h0c0-.1.1,0,.1,0,0,0,0-.3.2-.2,0,0,0,.1,0,.2.2-.1.4-.3.6-.2l.2.2c0,0,.2-.2,0-.2.3.1.6.1.6.3.6-.4,1.4-.5,2.1-.4h0c.2.2.1,0,.2,0,0,.1.1.2,0,.4.2.1.3-.2.5-.2,0-.2-.1,0-.1,0,0,0,.4.1.4-.1,0,0,0,.2,0,.3h.2c.2.2-.4.4-.2.7h.1c.1.2-.4.2,0,.3.2-.1.3-.4.2-.5.3,0,.2-.5.5-.5,0,.1-.3,0-.2.2.2.2.3,0,.5,0-.2,0,0-.3,0-.4.2.1-.1.2.1.2,0-.1.3-.2,0-.3.1-.3.3,0,.4-.2,0,.2-.3.5,0,.6,0-.2.4-.3.2-.6.1,0,.1.2,0,.3.1.1.4-.4.4,0v-.2c.1,0,.2.1.2.2.1,0,.4-.3.4,0,0,0,.4,0,.2-.2-.2-.1-.2.2-.3-.1.1.2.3,0,.4-.1h0c0,0,.2.1.3,0,0,0,0,.2,0,.2v-.2c.4,0,.1.3.4.3l-.2.2s.1.2.3,0c0-.2.2-.4.2-.5.1,0,0,.2.2,0l-.2.2c0,0,.1.3.3.3.1,0,.3-.3.1-.4.1,0,.2.1.1.2.2,0,0-.2.2-.3,0,.1.3.3.5.5l-.2.3h.1c-.2.2,0,.2,0,.4,0,0,.2,0,.3,0-.2-.4.3-.6.3-.9.4,0,.2.9.6.3,0,0,.1-.4-.1-.3.2,0,.2-.4.4-.2-.2.2.2.4-.1.6,0-.1-.2,0-.2,0,0,.2,0,.4.2.4.1,0,.3,0,.3-.2,0-.2-.2,0-.1-.2.3,0,.3.3.5-.1-.2,0-.2-.2-.2-.3h.2c0,0,0,0,0,0,.3.1.1-.3.4-.2v.3c0,.2-.3-.1-.3.3.2,0,.3-.2.5,0,0,0-.1,0-.1,0,0,0,.1.6.4.2.2-.1,0-.2,0-.3.4,0,.5-.2.7-.2,0,.3.4,0,.1.3-.1-.2-.6-.2-.7,0,.1.4-.3,0-.4.3.3,0,.2.4.3.6,0,0,.1,0,.2-.1,0-.2,0-.2,0-.4.3,0,.6,0,.8-.2.1.1,0,.3,0,.3.4,0,.8,0,1.1,0-.2-.4.4,0,.3-.4-.2,0-.3-.4-.2-.5.1,0,0,.2,0,.2.2-.2.2.3.4,0-.3,0,0,.4-.2.7.2-.2,0,.2.2.2.2-.2.6-.3.8-.3.3.3.8,0,1.1,0,.1.2,0,.5.2.6.2,0-.1-.4.2-.2h0c.1,0,.5.3.6-.1v.4c0,0,0,0,0,0,0,.1,0,.2,0,.3.2.3.4,0,.6,0v-.2c.2-.1.4,0,.8,0v.2s.2-.1.2-.1c0,.2.1.4.2.2l-.6.5c-.1-.1.2-.2.1-.5,0-.2-.4-.2-.4,0,.1,0,.1,0,.2,0,0,.3-.2.3-.3.5,0,0,.1,0,.2,0-.1.1-.2.2-.4.1.1,0,0-.2,0-.3,0,.3-.2.3-.5.2-.1-.3-.5.2-.8,0,.1-.2.3-.4.5-.5-.2-.2-.2,0-.4-.2-.1.2-.2.5-.4.6v-.2c-.2,0-.2.4-.5.3-.4-.1-.9-.2-1.3-.2v-.2c-.2.4-.7,0-.9.3-.4-.2-1,0-1.2-.2-.8,0-1.5.2-2.3,0v-.2c0,.2,0-.2,0-.1.1.2-.2.2-.3.4-.4-.2-.8,0-1.1.1v-.2c-.3.3-.7,0-1.1,0,0,0-.1-.2-.2-.2-.2.3-.3.2-.7.4-.2,0-.6,0-.9-.2-.9.3-1.8,0-2.7.2v-.2c-1,.3-2.1,0-2.8.1v-.3c-.2,0-.5,0-.4.3-.2,0-.6.1-.8-.1-.2,0-.3.1-.5.2-.5-.1-.7,0-1.1,0h.1c0,0,0-.2,0-.2-.2,0-.6,0-.5.2-.5-.2-1.1.1-1.6-.2,0,0,0,0-.1.2-.4,0-.9-.2-1.2,0,0,0,.1-.1,0-.2-.1,0,0,.1-.1.2-.7.2-1.4-.2-2.1-.2-1.1.1-2.3,0-3.4,0h0c-.4.2-.9-.3-1.1,0,0,0-.3,0-.3-.1-.3.1-.8-.1-1.2,0,0,0,0,0,.1,0-.4-.1-.8,0-1.2,0,0,0,.1,0,.1,0-.2,0-.4.2-.5,0-.1,0,0,.1,0,.1-1,0-2,0-3,.2-.7-.1,0-.4-.6-.2,0,0,0,0,0,0-.2,0-.4-.2-.5-.1,0,.1-.1,0-.1.2-.4,0-.5-.2-.9,0h0c-.4.1-.9,0-1.2.3-2.3.1-4.4.3-6.6.4-2.2,0-4.3.2-6.6.3-.5,0-.6,0-1.1,0,0,0,0,0,0,0,0,0-.4,0-.4,0-.8,0-1.6.1-2.4.2.1,0,.2,0,0,0h-.2c0,0,0,0,0,0-.1,0-.2,0-.1,0-2.1.2-4.2.2-6.3.4-.5,0-1.2.1-1.7.2-1.6.1-3,.2-4.6.4,0,0,.4,0,.9,0h0Z"></path>
    <path class="cls-2" d="M201.7,91.3c0-.2-.2-.3,0-.5,0,.2,0,.3,0,.5Z"></path>
    <path class="cls-2" d="M196.9,89.3s0,0,0,0c0,0,.1-.1.2,0,0,0,0,0,0,.1Z"></path>
    <path class="cls-2" d="M195.6,89.1c0-.1.3-.2.5-.2l-.5.2Z"></path>
    <path class="cls-2" d="M194.5,88.5c-.1-.1,0-.2,0-.2,0,0,0,0,0,.2Z"></path>
    <path class="cls-2" d="M194.4,88.8c-.1,0-.1,0-.2-.2,0,.1.2,0,.2.2Z"></path>
    <path class="cls-2" d="M191.8,88.4c0,0-.2.1-.2,0,0,0,.3-.2.2,0Z"></path>
    <path class="cls-2" d="M190.6,88.6s0,0-.1,0c0,0,0-.1,0-.2v.2s0,0,0,0Z"></path>
    <polygon class="cls-2" points="168.9 89.3 169 89.2 169 89.3 168.9 89.3"></polygon>
    <path class="cls-2" d="M159.4,89.8c-.1,0,0,0-.1,0,.1,0,0,0,.1,0Z"></path>
    <polygon class="cls-2" points="154.3 90.4 154.4 90.4 154.4 90.5 154.3 90.4"></polygon>
  </g>
  <g>
    <path class="cls-2" d="M155.8,65.4c2,0-1.1,0,1.3,0-.3,0-.6,0-1.3,0Z"></path>
    <path class="cls-2" d="M195.7,91c-.8.1-1.6.2-2.4.3-.8.2-1.7.3-2.6.5-.9.1-1.8.4-2.6.6-.9.2-1.8.4-2.7.8-3.6,1.1-7,2.9-9.8,5-.7.5,0-.4-1.5.6-2.6,2.1-6,4.8-9.6,7.5-3.6,2.7-7.4,5.4-10.8,7.7l.3-.4c-1.3.9-2.5,2.4-3.8,3.4,0,0,.3-.4,0-.3-.1.5-2.3,1.9-2.7,2.6-.6.3-.7,0-1.5.4l-.5.9c-1.5,2.4-5.1,3.8-7.7,6.3,0-.2.3-.5,0-.4-2.1,1.9-4.6,4-7.3,5.9-2.7,2-5.4,4-8.1,5.8.1-.3.1-.7-.3-.7,0,.6-1.6,1.8-2.9,2.9-.9,0-2.2,2.1-4.1,2.9v-.2c-.9,1.3-2,.9-2.6,2.1h-1c-.1,1.2-2.1.9-2.9,1.9h.1c-.9.9-1.6.9-2.5,1.5h-.1c-2.1,1.5-3.6,1.8-3.2,2.4-1,0,2-1.5.4-1.4-3.4,2.4-7,4.6-10.6,6.8-3.7,2.1-7.4,4.1-11.1,6.1-1,.2-1.5.4-1.8.3-.7.5-2.7,1.6-3.2,2.2.2-.1-.6,0-1.1.1-1.5.5-1.1,1.4-2.8,1.9.5-.5.6-.8.3-.9-1,1.1-2.8,1.9-4.2,2.9.2-.2.5-.5.4-.6-1.4,1.4-3.1,1.4-4.3,2.5l.4-.6c-2.5.7-.3,1.1-2.5,1.8.4-.4.2-.4.2-.6-1.6,1.6-4.7,2.8-6.5,4,0-.1,0-.2,0-.2-2,1.1-4.3,1.9-6.4,3.3-.9.2-.1-1-2.2.2.4.6-3.6,2-1.9,2.2-1.9.8-5,1.9-6.1,2.7.7-.6-1.3-.4.2-1.2h-1.4c0-.2,1.2-.3.7-.5-.8.4-2.9,1.7-3.7,1.9-1.2,1.1-2.2,2.4-4.5,3.6,1-.8-1-.4-.3-.9l-2.6,2.8c-.8.4-.4-.4-1.5.3.1.1-.3.5-.6.8-.3,0-3.2,1.6-3.8,1.1-.5,0,1.2-.7.3-.5-1.5.6-1.4.9-2.9,1.5h0c-1,.2-2.8,1.3-1.6,1.2.7-.2-.4-.3.7-.5-.5.6-2.2,1.4-3.8,1.9.5-.3.4-.4.5-.7-.9.6-1.9,1.1-3,1.6-.5.2-1.1.5-1.6.7l-.4.2-.6.2c-.4.1-.8.3-1.2.4,0,.2.3,0,.7-.3.4-.3.7-.6,1-.5-2,.4-4,1-5.9,1.3-.9.1-1.8.1-2.5,0-.7-.2-1.3-.4-1.6-1.1.3.4-.2.4-.2.4-.3-.4-.3-.7-.3-.9,0-.2.1-.4.2-.6.1-.3.3-.5.4-.9.3-.2.4-1,.9-1.9.1-.4.3-.2-.2.5.1-.3.4-.8,1-1.6.7-.8,1.5-1.7,2.5-2.8.3-.4.7-.8,1.1-1.2.3-.4.7-.8,1-1.1.7-.7,1.2-1.4,1.8-2-.1,0,.7-1.8,1.2-2.4v.4c.7-.4,1.5-1.9,1.8-1.9.3-.8-.5.5-1.2,1.7-.8,1.2-1.5,2.3-1,1.4.5-.3,1.3-2.6,1.4-2,.8-1.2,1.3-2.5,2.3-3.5-.3.3-.3,1.2.3.2,1.1-1.8.2-.6,1-2l.4-1c-.2-.2,1-1.5.3-1.1.4,0,1.4-2.6,1.7-2.2l.2.4c.4-.8.4-1.4.6-2.1,0,0,.3-.2.3-.2-.4-.4,1.1-1.8,1.3-2.9,1.1-1.5,2.5-4.1,3.2-4.7.6-1.3,1.2-2.5,2.2-3.9-.1.3-.4.7-.4.8.7-.8.7-1.1,1.2-1.9,0,.2,1.5-1.6,2.4-2.4.8-1.1.3-.9.3-1.1.1,0,.3-.2.4-.3.1-.1.2-.3.4-.5.2-.4.5-.8.6-1.3.2-.4.4-.9.5-1.4.2-.4.4-.9.5-1.2,0,.5-.5,1.9,0,.9.7-1.1.5-2.5.9-4.6l-.4.5c.3-.9.1-3,.4-2.8,0-.7.2-2.5,0-2.2.1-1.7,0-3.8,0-5.8,0-.5,0-1.1,0-1.5,0-.5.1-.9.2-1.3.1-.8.3-1.5.5-2,0-.5.3-1.7.1-1.5-.3.8-.1,1.2-.2,1.4,0-.4,0-.6,0-.6.2-1.1.4-1.9.4-.9.6-2.3,0-2.5.8-5.5,0,.2.1,0,.3-.9l.2-1.7c.5-1.9.5-1.1.6-1.1.2-1,.6-2.3.6-2.8l.5-1.2c-.4.9.2-.9.3-1.4v.5c0-.2.3-1.4.5-2-.1.1-.6,1.3-.8,1.9,0-.5.4-1.3.5-2.1,0,.3.7-1.6,1-2.4.4-.9.3-1.1.5-1.3,0,0,.8-1.5.5-.7-.2.3-.4.7-.6,1.2.3-.6.4-.4,1-1.7.3-.5.2-.4.2-.5,0,0,0-.3.8-1-.4.4-.4.6-.6.9.4-.5.9-1,1.6-1.3v-.2c.2,0,0,0,.2,0,.4-.4,2.5-1.1,2.8-1.4.8-.3,1.8-.6,2.5-.9h-.1c1-.2,2.1-.9,2.7-1.5h0c.2,0,.5-.4.8-.7.3-.3.5-.7.6-1,.2-.5.4-.6.5-.7,0,0,.1,0,.2-.2,0-.1,0-.3,0-.7,0-.2,0-.3,0-.4,0,0,0-.2,0-.3-.1,0-.2-.2-.3-.2-.2,0-.2,0-.2.2,0-.1-.7-.2-1.3-.1-.6,0-1.3.2-2,.3-1.4.2-2.8.4-4.2.1-.4,0-.2.2-1,0-.5,0-1.1-.3-1.6-.4-.6-.2-1.2-.6-1.7-1-1-.9-1.5-2-1.9-3-.7-2.1-.9-4-.8-5.6.2,1.2.2,0,.4,0-.3-.9.2-1.1-.2-1.5-.2,0-.3,0-.4,1.1-.3-2.3-.2-6,0-7,0,.4-.2,0-.3,0h0c.2,0,.3-.2.2-.4,0-.2-.6-.7-1.1-1h-.3c-.1-.1-.3-.4-.4-.6-.4-.2-.7.1-1.6-.8,0-.1,0-.2-.1-.4-1.2-.6-2.9-1.2-4-2.1l-.8-.9c-.5-.3-1.6-.5-.7,0-.5-.3-1-.7-1.4-.9-.1,0-.2-.1-.3-.2-.1,0-.3-.2-.5-.3-.3-.2-.6-.4-.9-.5-1.1-.7-1.9-1.2-2.1-1.6-1-.4-1.8-.9-2.4-1.4-.3-.3-.5-.5-.8-.7-.2-.2-.4-.4-.5-.8,0-.4,0-1,.1-1.3.1-.4.4-.6.6-.8l.3-.4c.2-.1.4-.3.6-.4l.6-.4c.2-.1.4-.3.7-.4.9-.3,1.8-.7,2.8-1,.9-.3,1.8-.6,2.6-.8,1.1-.3,2.2-.7,3.2-1v.3c1.3-.2.5-.6,1.4-.7-.3.4,1.1.2.2.8,1.9-.3,2.2-1.1,3.4-1.6,0-.4-.9.5-.8,0,.2-.2,2.6-.5,2.7-1.1.5,0,.3.5,0,.8l1-.6c1.5.2-2.8,1.9-1.2,2.2l1-.4c1.1.2-2.5,1.3,0,.8,1-.6,1.8-1.5.8-1.5,2.3-.8.8-1.5,3.3-2.1.8.1-2,.6-1.4.9,1.3,0,2.3-.9,3.5-1-1.3,0-.4-.7.4-.9,1.5,0-.8.7,1.2.3.3-.4,2.5-.7.6-.8.4-.4,1-.3,1.7-.3.4,0,.6,0,.9,0,.3,0,.5,0,.8-.2.6.5-2,1,0,1.4-.3-.5,2.6-.5,1.5-1.3.8.2.9.5.3.8,1.1.3,2.8-.7,3.2.2l.4-.5c.3.2.9.3,1.4.6,1,0,3.3-.5,3.2.2.3,0,2.6,0,1.8-.4-1.4-.4-1.7.3-2.4-.4,1,.6,2.1,0,2.9,0v.3c.6,0,1.8,0,2.1-.2-.4.1-.2.3.2.4l.5-.4c2,0,.4.8,2.4.7l-1.5.2c.3,0,1,.4,1.9.3.4-.3,1.1-.8,1.4-1,1.1,0,.5.5,1.6.1l-1.4.4c-.2.1.9.7,2.4.7.9,0,2.4-.5,1-.8.7,0,1.8.3,1.2.6,1.7,0-.2-.4,1.2-.5.6.3,2.4.7,3.5,1.2l-1.5.5h1c-1.3.5.6.5-.1.9.7.1,1.5,0,2.2,0-2-.9,2.3-1,1.8-1.7,2.7,0,1.6,1.9,4.5.9-.5-.2.9-.7-.8-.6,1.7.2,1.2-.6,3.2-.2-1.5.2,1.6.8-.6,1.1.2-.2-1.2-.2-1.5-.2.7.3-.2.7,1.6.8,1.1,0,2.5,0,2.3-.3,0-.4-1.6,0-.9-.4,2.1,0,2.4.6,3.4,0-1.3,0-1.7-.5-1.6-.7h1.6s-.3.2-.3.2c2.5.4.8-.4,3.2-.2l1.1.6c-.6.4-3.5-.4-3.1.3,1.6.1,2.1-.2,3.6,0-.3,0-.8,0-1.1,0,.6,0,1.1,1,3.3.6,1.2-.1.3-.2.4-.5,2.5,0,3.3-.1,4.9,0-.4.5,2.9.2,1.1.6-.8-.3-4.5-.6-5.4-.2.9.7-2-.2-2.6.4,2,.1,1.9.7,2.2,1.1.6,0,1.1,0,1.4-.1.2-.3-.5-.4-.5-.7,2.2.2,4.4.2,5.7,0,.8.2.5.5-.4.5,2.7,0,5.6.3,8.1.5-1.6-.6,2.8,0,1.7-.4-1.4-.2-2.5-.6-1.8-.8.8,0,0,.2.3.3,1.1-.2,1.7.5,2.8.2-2.5,0-.5.6-1,.9,1.8-.1,0,.3,1.7.4,1.8-.1,3.9-.2,5.9,0,2.4.5,6.2.4,8.4.5,1.1.2.4.5,1.6.6,1.5,0-1.1-.4,1.1-.1h-.2c.7,0,4,.4,4.6,0l-.7.3c.4,0,.8,0,1.1,0,0,0,.5.2-.2.2,1.3.2,2.8,0,4.3.1l-.9-.2c2.5,0,4.2.2,6.6.2h0c0,0,1.4,0,1.4,0-.4,0,1,.2,1.7.1l-3.7.2c-1,0,1.1-.1.5-.2-.6-.1-2.8-.2-3.1,0,.9,0,.9,0,1.6,0,.3.2-1,.1-1.7.2.4,0,1.1,0,1.2,0-.9,0-1.8,0-3.2,0,1,0-.5-.1-.2-.2-.1.2-1.5.2-3.3.1-1.3-.3-3.4,0-5.5,0,.9-.2,1.9-.4,3.2-.4-1.3-.2-1.5,0-2.8-.2-.6.2-1.1.4-2.8.5v-.2c-1.6,0-1.7.3-3.6.2-3.4-.2-6.9-.3-9.5-.4v-.2c-1.5.5-4.9,0-6.8.2-3.3-.4-7.2,0-8.8-.5-5.8,0-10.9,0-17-.3l1-.4c-1.1.3-.7-.3-1.8-.3,1.2.4-1.5.4-2.3.7-2.7-.5-6.1-.2-8.5,0v-.3c-2.5.5-5.3-.2-8.3-.4-.3-.2-.9-.5-1.8-.5-1.7.5-2.5.4-4.9.7-1.7,0-4.6-.3-6.3-.7-1.6.1-3.3.2-4.9.2h-2.2c-.6.1-1.4.3-2.2.5-3.2.8-6.4,1.7-9.6,2.8l-.6-.3c-1.5.7-3.1,1.2-4.8,1.7-.7.2-1.4.4-2.1.7-.4.1-.7.2-1,.3-.3.1-.6.2-.9.3-.2,0-.3.1-.3.3,0,.2.1.3.2.3.5.3,1.1.6,1.6.7-.2.1-.5.2-.7.3.1.1.4.3.6.4.2,0,.3.2.5.2.2,0,.4.2.5.2.7.3,1.2.4,1.1,0,1.4,1.1,3.9,2.2,4.6,3.3,1.5,1.2,2,1.2,3.3,2.2.5.6,1,1.1,1.5,1.7.2.3.4.7.6,1,0,.2.2.4.2.6,0,.2,0,.3,0,.5,0,.2,0,.3,0,.5v1.1c0,.4,0,.8,0,1.2,0,.8,0,1.7,0,2.7v-.8c0-.4-.2-.4-.3.4,0,1.3-.1,4.6.4,3.3-.1,1.7.1,3.8.9,5.3.4.8.8,1.2,1.3,1.5.7.3,1.5.5,2.3.7-.3-.1.5-.1.9-.2,1.5,0,3-.2,4.8-.2.2,0,.5,0,.7,0,.2,0,.5,0,.8.1.3,0,.6.2.9.3.3.2.6.4.8.8,0,.2.2.3.3.5v.4c.1.1.2.3.2.4v.3c0,.4,0,.8,0,1.2-.2.6,0-1-.3.6-.3.9.2,0-.3,1.2-.8,1.5-2.1,2.4-3.4,3-1.2.7-2.5,1.1-3.7,1.5s-2.4.8-3.5,1.3c-.7.3-1.4,1.3-1.9,2.3-.9,1.8-1.5,3.8-2.1,5.8-.6,2-1.1,4.1-1.5,6.1-.9,4.1-1.7,8.2-2.1,12.2h0c0,.6,0,1.1,0,1.9,0,.8,0,1.5,0,2.3,0,1.5,0,3,.2,4.1,0,.6,0,2.5-.2,2,.1,2.2-.7,6.2-2,9.4.1-.3.2-.4.3-.8-.2.4-.4.8-.6,1.1-.2.4-.4.7-.6,1.1-.2.4-.5.7-.7,1l-.7.9c-.4.5-.9,1.1-1.2,1.7-.4.6-.9,1.2-1.3,1.9.1-.3.4-.8.4-1-.8.9-1.2,2.8-1.9,3.1-.4.6,0,.6.2.2-3.6,6.2-6.7,13.3-10.8,19.9-1.6,2.2-2,2.1-2.1,1.9-.1-.1,0-.4-1.1,1.6-.3.2,0,.4-.1.3-.9,1.5-2.2,1.6-2.6,2.7.6,0-.3.7,0,.9-.1.1-.3.3-.4.4-.1.1-.3.3-.3.3-.1,0-.3.2-.4.2-.2.1-.5.3-.7.4-.4.3-.8.6-.9,1h-.4c0,.3,0,.5.2.8,0,.1.2.3.5.3.2,0,.4,0,.6,0,.8-.1,1.5-.4,2-1h.3c0-.1.6-.3.6-.3.9-.3,1.9-.7,2.8-1,1.9-.7,3.8-1.5,5.6-2.3,1.9-.8,3.7-1.7,5.5-2.6,1.8-.9,3.4-1.8,5.4-2.8,7.4-3.8,14.6-7.4,21.9-11.1,7.3-3.5,14.4-7.1,21.5-10.9,7.1-3.7,14.2-7.5,21.4-11.3,3.8-1.1,4-1.3,7.5-3.7,0,.2-.3.4,0,.3-.2-.7,2.5-1.6,2.6-2.3,2.7-1.4,5.1-3,7.6-4.5,1.2-.8,2.5-1.5,3.8-2.3,1.2-.8,2.5-1.6,3.8-2.5-.8.6-.9,1.3,0,.6l.8-1h.3c.6-.5,1.2-1.2.4-.9,12.8-8.7,26-16.9,38.3-26.2,3-2.1,7.1-5.3,10.4-7.7,5-3.2,10.1-6.1,15.7-7.7,5.5-1.7,11.3-2.1,17.3-2,0,0-.4,0-1.4.1-.5,0-1.2,0-2,.2-.8,0-1.9.2-3.1.3h0Z"></path>
    <path class="cls-2" d="M153.5,65.4c-.4,0-1.8-.1-.7-.2.1,0,.8.1.7.2Z"></path>
    <path class="cls-2" d="M117,62.5c0,0-.5-.1-.6-.2.4,0,.9-.1,1.2,0-.5,0-.4,0-.6.2h0Z"></path>
    <path class="cls-2" d="M107.6,61.8c.2-.2,2.2-.2,3.3-.2l-3.3.2Z"></path>
    <path class="cls-2" d="M99,60.4c-.7-.2-.5-.3.5-.2,0,.1-.3.2-.5.2Z"></path>
    <path class="cls-2" d="M98.3,60.8c-.7,0-1.1-.2-1.4-.3,0,.2,1.7,0,1.4.3Z"></path>
    <path class="cls-2" d="M79.5,58.9c-.5,0-1.4.1-1.9-.2.5.2,2.2-.2,1.9.2Z"></path>
    <path class="cls-2" d="M70.7,58.7c-.3,0-.4,0-.7,0-.5-.2,0-.3.5-.3,0,0,.2.3.2.3Z"></path>
    <polygon class="cls-2" points="31.1 148 31.3 147.1 31.4 147.2 31.1 148"></polygon>
    <path class="cls-2" d="M14.4,196c.9-.5.7,0,.9,0-.8.3.2-.4-.9,0Z"></path>
    <polygon class="cls-2" points="48.6 179.3 48.3 179.4 48.2 178.8 48.6 179.3"></polygon>
  </g>
  <g>
    <path class="cls-2" d="M970.8,137.1c.9,0-.5,0,.6,0-.1,0-.3,0-.6,0Z"></path>
    <path class="cls-2" d="M982.7,165c-2.9,1-6.8,1.9-9.9,3-.4.2,0-.2-.8.1-.8.3-1.6.5-2.6.8-.5.1-1,.3-1.5.3s-1,.2-1.6.2c-2.1.4-4.4.4-6.4.4h.2c-.8-.1-1.6.3-2.4.3,0,0,.2-.1,0-.2-.2.2-1.4.2-1.8.4-.3,0-.3-.2-.7-.3l-.4.3c-.6.3-1.4.4-2.2.4-.8,0-1.7,0-2.6.1,0,0,.2-.1.1-.2-.7.1-1.4.2-2.2.3-.8,0-1.5,0-2.3.1-1.6,0-3.2.1-4.8.1,0,0,.1,0,.1,0,0,0,0-.1,0-.2,0,.2-.3.2-.7.2-.4,0-.8,0-1.2,0-.4,0-1.4,0-2.4,0h0c-.7,0-1.1,0-1.7,0h-.5c-.3,0-1,0-1.6,0h0c-.6,0-.8,0-1.4,0h0c-1.2,0-1.9,0-1.9,0-.4,0,1.2,0,.5-.1-4,.1-8.1,0-12.2,0-.2,0-.4,0-.6,0-.1,0-.2,0-.3,0-.4.1-1.5,0-1.9,0,.1,0-.3,0-.5,0-.7,0-.8,0-1.6,0,.3,0,.4,0,.3-.2-.3.2-.8.1-1.2.1-.4,0-.8,0-1.2,0,.1,0,.3,0,.3,0-.9,0-1.6,0-2.4,0,0,0,.2,0,.3-.1-.6-.2-.7,0-.8,0,0,0-.1,0-.7,0,.3,0,.2,0,.2,0-1,0-2.6,0-3.7,0,0,0,0,0,0,0-1.1,0-2.2,0-3.5-.1-.2,0-.2,0-.2,0,0,0-.2-.2-.8-.1,0,.1,0,.1,0,.1h-.8c-.4,0-.7,0-.4,0-1,0-2.6-.1-3.2-.1.5,0-.5,0,.3-.1l-.6-.4c0-.2.6.1.5-.2-.4,0-1.6.2-2,0-.2,0-.4.2-.6.3,0,0-.2.1-.3.2h-.3c-.4,0-.9,0-1.5,0,.3,0,.2,0,.1,0,0,0-.1,0-.1,0,0,0,0-.1.1-.1,0,0-.2.1-.2.1h-.6s-.9,0-.9,0c-.4,0,0,0-.7,0,0,0-.2,0-.4,0-.2,0-1.7,0-1.9-.1-.2,0,.7,0,.2,0-.8,0-.8,0-1.6,0h0c-.5,0-1.5,0-.9,0,.3,0-.1,0,.4,0-.4,0-1.2,0-2,0,.3,0,.2,0,.3,0-1,0-2.1,0-3.2-.2,0,0,.4,0,.6,0-1.5-.2-3-.2-4.2-.5.2,0,0,0,0,0-.7-.1-.7-.1-1.1-.2,0,0-.6,0-1-.1-.2,0-.1,0,.3,0-.7,0-3.3-.5-4.7-1,0,0-.9-.2-1.3-.3h.2c-.3-.1-1.1-.4-1.2-.4-.7-.2,2.8.8,1.8.6-.2-.1-1.4-.3-1.2-.3-.7-.2-1.3-.4-2-.7.2,0,.5.2,0,0-.9-.4-.3,0-1-.4l-.5-.2s-.8-.4-.5-.2c0,0-1.3-.7-1.2-.7h.2c-.4-.2-.6-.3-.9-.5,0,0-.1-.1-.1-.1-.1,0-.8-.7-1.2-1-.6-.7-1.5-1.9-1.5-2.4-.3-.6-.5-1.3-.6-2.1,0,.2,0,.4,0,.4,0-.5,0-.6,0-1.1,0,.1,0-1,.2-1.6.1-.7,0-.5,0-.5.2-.6.5-1.9.9-2.6-.1.2-.3,1-.1.4.2-.3.3-.6.5-.9.1-.3.3-.7.6-1.1l-.2.2c.3-.4.8-1.3.8-1.2.2-.3.7-1,.6-.9,1.1-1.3,2.7-3.1,3.6-3.7.2-.2.6-.6.5-.5-.3.2-.4.4-.5.5.2-.1.2-.2.2-.2.4-.4.7-.6.4-.2.9-.7.8-.9,2-1.8,0,0,0,0,.4-.3l.6-.5c.8-.6.5-.3.5-.2.4-.3.9-.7,1.1-.8.2-.1.4-.2.5-.3-.4.2.3-.2.5-.4h-.2c0,.1.6-.2.8-.4,0,0-.6.3-.9.5.2-.2.5-.4.8-.6,0,.1.7-.4,1.1-.6.4-.2.4-.3.5-.4,0,0,.7-.4.4-.2-.1,0-.3.2-.5.3.3-.1.3,0,.8-.4.4-.3-.2,0,.7-.4-.2.1-.2.2-.4.3l.8-.4h0c.1-.1,0,0,0,0,.2-.2,1.1-.6,1.3-.8.4-.2.8-.4,1.2-.6h0c.5-.2,1-.5,1.4-.7h0c.2,0,.8-.4,1.1-.6.6-.3.3,0,1-.3.6-.3,1-.5.7-.4,1.2-.5,2.5-1.1,3.6-1.5.2,0,0,0,.4-.2,1.7-.7,3.7-1.4,5.1-1.8-.5.2,0,0,0,0,.4-.2.5-.1.7-.2,0,0,0,0-.5.1,1-.4,2.7-.9,3.3-1-.3,0,0,0,.2,0,0,0,.7-.1,1.3-.3h0c0,0,.4-.1.4-.1.2,0,.2-.1.8-.2,0,0,0,0,.2,0,.6-.2,1.5-.4,2.2-.5h.6c.3-.1.8-.2.3-.2,1.2-.2,1.9-.3,2.3-.3,2-.4,5-.6,7.4,0h0c.6.1.3,0,.8.1-.2,0,.5.1,0,0,.9.2,1.2.1,1.8.2,0,0-.5,0-.3,0,0,0,1.2.2,1.4.2.2,0,0,0,0,0h.5c.7.2-1.5,0-.8,0h.5c.5.2-1.3,0,0,.1.5,0,1,0,.5,0,1.2.2.5,0,1.8.1.3,0-1-.1-.8,0,.6.1,1.2.1,1.7.2-.6-.1,0,0,.3,0,.6.1-.4,0,.5.1.2,0,1,0,.3,0,.3,0,.9.1,1.4.2.3,0-.9,0,0,.1-.2,0,1.2.1.7,0,.4,0,.4.1.1,0,.5.1,1.3.1,1.5.2h.2c.2,0,.4,0,.7.1.5,0,1.6.1,1.5.2.2,0,1.3.2.8,0-.7-.1-.8,0-1.2-.2.5.1,1,.1,1.4.2h0c.2,0,.8.1.9.1-.2,0,0,0,0,0h.2c1,.1.2,0,1.2.2h-.7c.2,0,.5,0,.9,0,.2,0,.5,0,.7,0,.5,0,.2,0,.8.1h-.7c0,0,.5,0,1.2.1.5,0,1.2,0,.5,0,.3,0,.8.1.6.1.8,0,0,0,.6,0,.3,0,1.1.2,1.7.3h-.7s.5,0,.5,0c-.6,0,.3,0,0,0,.3,0,.7,0,1,.1-1-.2,1.1,0,.8,0,1.3.1.8.3,2.2.3-.2,0,.4,0-.4-.1.8.1.6,0,1.5.1-.7,0,.8.2-.3,0,0,0-.6,0-.7-.1.3,0,0,0,.8.2.5,0,1.2.1,1.1,0,0,0-.8,0-.5,0,1,.1,1.2.2,1.6.2-.6,0-.8-.1-.8-.1h.8c0,0-.2,0-.2,0,1.2.2.4,0,1.5.1h.5c-.3.1-1.7-.1-1.5,0,.8,0,1,0,1.7.2-.2,0-.4,0-.5,0,.3,0,.5.2,1.6.2.6,0,.2,0,.2,0,1.2.1,1.6.2,2.3.2-.2,0,1.4.2.5.1-.4,0-2.1-.3-2.6-.3.4.1-1-.1-1.2,0,1,.1.9.2,1.1.2.3,0,.5,0,.7,0,.1,0-.2,0-.2-.1,1.1.1,2.1.2,2.7.3.4,0,.2,0-.2,0,1.3.1,2.7.3,3.9.4-.8-.1,1.4.1.8,0-.7,0-1.2-.2-.8-.2.4,0,0,0,.2,0,.5,0,.8.1,1.3.1-1.2-.1-.2,0-.5,0,.8,0,0,0,.8.1.9,0,1.9.2,2.8.2,1.2.2,3,.3,4,.4.5,0,.2,0,.8.1.7,0-.5-.1.5,0h0c.3,0,1.9.2,2.2.2h-.3c.2,0,.4,0,.5,0,0,0,.2,0,0,0,.6.1,1.3.1,2,.2h-.5c1.2,0,2,.1,3.2.2h0s.7,0,.7,0c-.2,0,.5,0,.8,0-.6,0-1.2,0-1.8,0-.5,0,.5,0,.2,0-.3,0-1.3-.1-1.5-.1.4,0,.4,0,.8,0,.1,0-.5,0-.8,0,.2,0,.5,0,.6,0-.4,0-.8,0-1.6,0,.5,0-.2,0,0,0,0,0-.7,0-1.6,0-.6-.2-1.6,0-2.7-.1.4,0,1-.1,1.6-.1-.6-.1-.7,0-1.3-.2-.3,0-.5.2-1.4.2h0c-.8-.1-.8,0-1.7,0-1.6-.2-3.3-.3-4.5-.4h0c-.7,0-2.3-.2-3.3-.2-1.6-.3-3.5-.2-4.2-.5-2.8-.1-5.3-.2-8.2-.6l.5-.2c-.5.1-.3-.2-.8-.2.6.3-.7.2-1.1.4-1.3-.4-3-.3-4.1-.2v-.2c-1.2.3-2.6-.2-4-.4-.2-.1-.4-.4-.8-.4-.8.3-1.2.2-2.4.3-.8-.1-2.2-.4-3-.6-3.2.2-6.4-.6-9.7-.7l-.2-.4c-.8,0-1.7,0-2.6,0-.4,0-.7,0-1.1,0-.4,0-.7,0-1.1,0-1.5,0-3.1.1-4.4.6l.2-.6c-.8,0-1.8.5-1.5.9-.8,0-1.9.8-2.6.4-.8,0-.9.6-1.6.8-1.7.2-2.3.5-3.8,1.1h.4c.1-.3,0-.5-.3-.5-.5.4-2.2.6-1.3,1.1-1.8.1-3.6,1.7-5.4,1.8.2.1-.2.4-.3.6-1.4.6-3,.8-3.9,1.7-.3,0,.2-.5-.4-.3-.3.2.1.3-.2.6-2,1.4-4.5,1.9-6.4,3.1-3.1,2.4-6.5,4.6-8.9,7.1h0c-.2.5-.8.9-1.3,1.3-.3.2-.5.4-.7.6-.2.2-.2.5-.2.9-.3.1-.7.8-.8.4,0,.5-.5.9-.8,1.5-.2.3-.4.6-.5.9,0,.3-.2.6-.1.9,0-.1,0-.2,0-.3-.2.2-.3.5-.4.8,0,.3-.1.5-.2.8,0,.2,0,.5,0,.8,0,.2,0,.5,0,.7,0,0-.1-.3-.3-.3-.2.2,0,.5.2.6.2.2.2.3-.1.6.1.2.5,0,.4-.1.2,1.1,1.1,2.1,2.3,2.8,1.2.7,2.8,1.2,4.4,1.7,2.1,1.2-.3,1.4,1.7,1.4.1.2.2-.3.2-.1.8,0,.9,1.2,1.5.9,0-.6.4-.2.5-.5,1.4.6,1.7,1.1,2.9,1v.2c1.4-.5,3,0,4.3-.6,2,.2,3.9.3,5.8.3,1,0,2,0,2.9,0h1.5c.5,0,.9,0,1.7,0,3.9.1,7.7.2,11.6.4,7.8.5,15.4.5,23.3,1.2,1.8.6,2,.6,4,.4,0,0-.2.1,0,.2,0-.4,1.4,0,1.6-.4,2.9.2,5.6,0,8.6.1-.5,0-.7.4-.1.3l.6-.2h0c.4,0,.8-.1.4-.3,7.5-.2,15,.5,22.3-.1.9,0,1.9-.2,3-.3.5,0,1.1-.1,1.6-.2.5-.1,1-.2,1.4-.3.7-.1,1.4-.2,2-.3.7-.1,1.4-.3,2-.4,1.3-.3,2.7-.6,4-.9,1.3-.3,2.6-.6,4-1,.7-.2,1.3-.3,2-.5.3,0,.7-.1,1-.2h.5c0-.1.3-.1.3-.1h.2s0,0,0,0c.2.1,0,.3,0,.2,0,0,0,0,0,0,0,0,0,0,0,0,0,0,0,0,0-.1,0,0,0-.2,0-.2,0,0,0,0,0,0h0c-.1,0-.3,0-.5.1-.5.1-1.2.3-2.4.7h0Z"></path>
    <path class="cls-2" d="M969.7,137c-.2,0-.9-.1-.3-.1,0,0,.4,0,.3.1Z"></path>
    <path class="cls-2" d="M952.1,135.1s-.2,0-.3,0c.2,0,.4,0,.6,0-.2,0-.2,0-.3,0h0Z"></path>
    <path class="cls-2" d="M947.7,134.6c0,0,1,0,1.6.1h-1.6Z"></path>
    <path class="cls-2" d="M943.5,134.1c-.4,0-.3,0,.2,0,0,0-.1,0-.2,0Z"></path>
    <path class="cls-2" d="M943.2,134.1c-.3,0-.5,0-.7-.1,0,0,.8,0,.7.1Z"></path>
    <path class="cls-2" d="M934.2,132.9c-.2,0-.7,0-.9-.1.2,0,1.1.1.9.1Z"></path>
    <path class="cls-2" d="M929.9,132.4c-.1,0-.2,0-.3,0-.2,0,0,0,.2,0h.1Z"></path>
    <path class="cls-2" d="M860,153.1c0-.1.1-.3.2-.4h0c0,0-.2.4-.2.4h0Z"></path>
    <path class="cls-2" d="M882,170c.5,0,.3,0,.4,0-.4,0,.2,0-.4,0Z"></path>
    <polygon class="cls-2" points="900.3 170.8 900.1 170.8 900.2 170.7 900.3 170.8"></polygon>
  </g>
  <g>
    <path class="cls-1" d="M1076.6,132.8c0,0,0,0,0,0,0,0,0,0,0,0Z"></path>
    <path class="cls-1" d="M1076.6,133.1c0,.2-.2.4-.2.7,0,0,0,0,0,0,0,.2-.3.5-.7.5h0c0,0,0,.1,0,.1,0,0,0,0,0,0,0,.1,0,0,0,.2,0,0,0-.1-.1-.1h0c0,.5-.2.2-.2.4,0,0,0,0,0-.1,0,.3-.3.3-.5.5,0,0,0-.2,0-.3,0,.2,0,.3,0,.4,0-.2,0,.2-.2.1h0c0,.2,0-.2,0,.1v-.2c0,.4-.2-.2-.2,0h0c0,.2,0,0,0,0h0c0,0-.2-.1-.1.2,0-.2,0-.1,0-.5-.3.3-.6.2-.9.2,0-.1,0-.2,0-.3,0,0-.1,0-.2.2,0,0,0-.2,0-.2,0-.1-.1.3-.2.2,0,0,0-.2,0-.3-.1.2-.2.2-.2.2,0,0,0,0,0-.2-.1.3,0,0-.2,0v-.2c0-.2,0,.4-.1.2,0,0,0-.1,0-.2-.2.3-.3.1-.4.2,0,0,0,0,0,0,0,0-.1-.1-.3,0,0,0,.2-.4.1-.4-.2.3-.2,0-.4.5,0-.1,0-.3-.2-.2.1-.1.2-.4.3-.4v-.2c.2-.1,0,0,.2-.1,0,0-.2,0-.2,0-.2.2-.5.5-.6.4.1,0,.2-.3.3-.4-.2.2-.4.3-.5.5,0,0,.2-.2,0-.2,0,0-.1.1-.2.1,0,0-.2,0,0-.3,0-.1,0,0,.2-.1,0,0-.1,0-.2,0h0c0,0-.2,0-.3.1,0,0,.2-.1,0,0-.2.1-.3,0-.3,0,0,0,.1,0,.2-.1-.3.1-.4,0-.5,0-.1,0,.3-.1.2,0,.1-.2-.4,0-.2-.3,0,0-.2.1-.2.1,0,0,.2-.2,0-.2.1,0,0,0-.1,0,0,0,0,0,0,0-.1,0-.4-.2-.3-.4,0,0-.3,0-.3,0h.2c.1,0,0-.1.1-.2-.2,0,.2.2,0,.2.2,0-.3,0,0-.1,0,0-.2,0,0-.2,0,0,.3,0,.2,0,0,0,0,0-.2,0h0c-.2,0,0-.1-.2,0,.2,0,0-.1.2-.1h.2s-.2,0-.4,0c0,0,0,0,.1,0-.4,0,0-.1-.2-.2.1,0,0-.2.3-.2,0,0-.2-.2-.1-.2,0,0,0,0,.1,0,.1,0,0,0,0-.1,0,0,.2,0,.4,0,0,0-.3-.1-.4-.2.3,0-.1-.3.2-.2,0,0,.1.1.2.1.3,0-.2-.2,0-.2h-.3c.2,0,0-.3.2-.2,0,0,.1,0,0-.2.3,0,.2-.4.6-.2,0,0,0,0,0-.1-.1,0,0,.1,0,0,0,0,0,0,0,0,0,0,.1,0,.2.2.2,0-.2-.4,0-.4,0,0,0,.1.1,0v-.2s.1.1.2.3c0,0,0,0,0-.2h.2c-.1,0,0,0,0,0h0c0,0,0,0,0,0,0,0-.1,0-.2-.1,0,0,0,0,0-.2,0,.1.1,0,.2,0s0-.1,0-.1c0,0,0,0,0,.1,0,0,0,0,0,0,0,0,.1.2.1,0,0,0-.2-.3,0-.2,0,0,0,.1,0,.2h.1s0,0,0,0c0,0,0,0,0,0,0-.1,0,0,0-.2,0,0,.1,0,.2,0h0c0,0,0,0,0-.1h0s0,0,0,0c0,0,.2.5.2.3,0,0,0-.3,0-.4.1,0,.2-.2.3,0,0,0,0,0,0-.1.2,0,.3-.2.5,0,0,0,0,.1,0,.2,0-.1,0,.1,0,0,0-.1,0-.2,0-.2,0,0,.2,0,.3,0,0,0,0,0,0-.1,0,.2,0,.2.1.1h0c0-.1,0,0,0,0,0,0,0-.2,0-.1,0,0,0,0,0,.1,0,0,.1-.2.2-.1v.2c0,0,.1-.1,0-.1,0,.1.2.1.2.2.2-.3.4-.3.6-.2h0c0,.2,0,0,0,0,0,0,0,.1,0,.2,0,0,.1-.1.2-.1,0,0,0,0,0,0,0,0,0,.1.1,0,0,0,0,.1,0,.2h0c0,.1-.2.2-.2.4h0c0,.1-.1.1,0,.2,0,0,.1-.2,0-.3,0,0,.1-.3.2-.2,0,0,0,0,0,.1,0,.1,0,0,.1,0,0,0,0-.2,0-.2,0,0,0,.1,0,.1,0,0,.1,0,0-.2,0-.1,0,0,.1,0,0,.1-.1.2,0,.3,0-.1.1,0,.1-.3,0,0,0,.1,0,.2,0,0,.2-.1,0,0h0c0,0,0,0,0,0,0,0,.2,0,0,0,0,0,0,0,0,0,0,0,0,0,0-.1,0,.1,0,0,.1,0h0c0,0,0,0,0,0,0,0,0,0,0,0h0c0,0,0,0,0,.1h0s0,.1,0,.1c0,0,0-.1.1-.1,0,0,0,0,0,0h0s0,.2,0,.2c0,0,.1,0,0-.1,0,0,0,0,0,.1,0,0,0,0,0,0,0,0,0,.1,0,.2h0c0,0,0,0,0,0,0,0,0,0,0,.1,0,0,0,0,0,0,0-.2.2,0,.2-.2,0,0-.1.3,0,.2,0,0,0,0,0,0,0,0,0,0,.1,0,0,0,0,.1-.1.1,0,0,0,0,0,0,0,0,0,0,0,.1,0,0,0,0,0,0,0,0,0,0,0,0,0,0,0,.1,0,0,0,0,0,0,0-.1h0s0,0,0,0c0,0,0,0,.1,0h0c0,0,0,0-.1,0,0,0,0,0,0,0,0,0,0,0,0,0,0,0,0,.1,0,.1,0,0,0,0,0,0,0,0,0,0,.1.1,0,0,0,.1,0,0,0,0,0-.2-.1-.1,0,0,0,0,0,0,0,0,0,.1,0,.1,0,0,0,0,0,0,0,0,0,0,0,0,0,0,.1.1.2.1,0,0,0,0,0,0,0,0,.1.1.2.2,0,0,0,0,0,0,0,0,0-.1,0,0,0,0,0,0,0,0,0,0,0,0,0,0,0,0,0,0,0,0,0,0,0,0,0,0,0,0,0,.1.1.2,0,0,0,.2.1.3,0,0,0,0,0,0,0,0,0,0,0,0h0s0,.1,0,.1h0s0,0,0,0c0,0,0,0,0,0,0,0,0,0,0,.1h0c0,0,0,.1,0,.2h0,0s0,0,0,.1c0,0,0,0,0-.1,0,0,0,0,0,0,0,0,0,0,0-.1t0,0s0,0,0,0h0s0,0,0,0c0,0,0,0,0,0,0,0,0,0,0-.1,0,0,0-.1,0-.2,0,0,0,0,0,0,0,0,0,0,0,0,0,0,0,0,0,0h0c0,0,0,0,0-.1,0-.1,0-.2-.1-.3h0c0,0,0-.1-.2-.2,0,0-.2-.1-.2-.2-.2-.1-.3-.2-.5-.3h0c0,0,0,0,0,0,0,0,0,0-.1,0,0,0-.2,0-.3,0h0c-.1,0-.2,0-.2-.1,0,0,0,0,0,0,0,0-.1,0-.2.1,0,0-.1,0-.2-.1-.2.1-.4,0-.6.1h0c-.2.1-.4,0-.6,0v-.2c0,0,0,0,0,.2,0,0-.1.1-.2,0,0,0,0,.1,0,.2,0,0-.1,0-.2,0h0s0-.1,0-.1c0,0-.1,0,0,.2-.1-.1-.2.2-.3,0,0,0,0,.1,0,.2,0,0-.2,0-.2,0,0,0,0-.1,0-.1,0,0,0,.1,0,.2,0,.2-.3,0-.3,0,0,.3-.2.3-.2.4h0c.2.1-.3-.1,0,.1,0,0,0,0-.2,0,.2.1-.2,0,0,.1h0c-.2,0,0,0,0,0,0,0,0,0-.1,0-.1,0,.3.1,0,0,0,0,.2,0,.2,0-.2,0,.1.2.3.2-.2.1-.7.2-.3.1,0,0,.2,0,0,0,.1,0-.4.2-.2.1.2-.1.1,0,.3,0-.1.1-.3.2-.1.2h-.1c.4,0,.2,0,.6-.2.3,0,.7-.1.9,0,.2.2.4,0,.7.4,0,.4,0,.4.2.3h0c0-.2,0,.1,0-.2.1.1.2,0,.4.2,0,0,0,.2,0,.2h0c0-.1,0,0,0,0,0,0,0-.1,0-.2.2,0,.3.2.6.3.2.1.5.2.7.1.1,0,.3,0,.4-.1.4,0,.6-.4.7-.8,0,0,0,0,0,.2h.1Z"></path>
    <path class="cls-1" d="M1076.6,132.7s0,0,0,0c0,0,0,0,0,0Z"></path>
    <path class="cls-1" d="M1076.4,131.5h0s0,0,0,0c0,0,0,0,0,0h0Z"></path>
    <path class="cls-1" d="M1076.3,131.2s0,0,0,0h0Z"></path>
    <path class="cls-1" d="M1076.2,130.9s0,0,0,0c0,0,0,0,0,0Z"></path>
    <path class="cls-1" d="M1076.1,130.9s0,0,0,0c0,0,0,0,0,0Z"></path>
    <path class="cls-1" d="M1075.7,130.3s0,0,0,0c0,0,0,0,0,0Z"></path>
    <path class="cls-1" d="M1075.4,130.1s0,0,0,0c0,0,0,0,0,0h0Z"></path>
    <polygon class="cls-1" points="1069.8 131.2 1069.7 131.2 1069.8 131.2 1069.8 131.2"></polygon>
    <path class="cls-1" d="M1070,134.4c0,0,0,.1,0,.1,0,0,.1-.1,0-.1Z"></path>
    <polygon class="cls-1" points="1071.6 134.9 1071.6 134.9 1071.8 134.6 1071.6 134.9"></polygon>
  </g>
  <g>
    <path class="cls-2" d="M1069,137.8h0,0Z"></path>
    <path class="cls-2" d="M1079.7,139.1c-.1,0-.3,0-.4.1,0,0,0,0,0,0-.1,0-.3.1-.5,0h0s0,0,0,0h0s0,0,0,0c0,0,0,0,0,0h0c0,.2-.1,0-.2.1h0c-.1,0-.3,0-.4.1h0s0,0,0,0c0,0,0,0,0,0h0c0,0,0,0,0,0h0c0,0,0-.2,0,0h0s0,0,0,0h0c0,0,0,0,0,0,0,0,0,0,0-.2-.2.1-.3.1-.5.1,0,0,0,0,0-.1,0,0,0,0,0,0,0,0,0,0,0,0,0,0,0,.1,0,0,0,0,0,0,0-.1,0,.1,0,0,0,.1,0,0,0,0,0,0,0,.1,0,0,0,0h0c0-.2,0,0,0,0,0,0,0,0,0,0,0,.1-.1.1-.2.1h0c0,0,0,0-.2,0,0,0,0-.2,0-.2,0,.2,0,0,0,.3,0,0-.1,0-.1,0,0,0,0-.2,0-.2h0c0-.2,0,0,0-.2,0,0,0,0,0,0,0,.1,0,.3-.1.3,0,0,0-.2,0-.2v.3c0,0,0-.1-.1,0,0,0,0,0,0,.1,0,0,0,0,0-.1s0,0,0-.1c0,0,0,0,0,0h0s0,0,0,.1c0,0,0-.1,0,0,0,.1,0,.1,0,.1,0,0,0,0,0-.1,0,.1,0,.2-.2.2,0,0,0-.1,0-.1,0-.1-.2.2-.2,0,0,0,0,.1,0,.1,0,0,0-.1,0,0,0,0,0,0,0,0,0,0,0,0,0,0,0,0-.2.2-.2,0,0,0,0,.2,0,.2h0c0-.2,0-.1,0-.2,0,.1.1-.1,0,0,0-.1,0,.2,0,0,0,0,0,.1,0,0,0,0,0-.1,0-.1,0,0,0,0,0,0h0c0,.1,0,0,0,.1,0,0,0,0,0-.1h0c0-.1,0,0,0,0h0c0,.1,0,0,0,0,0,0,0,0,0-.2,0,0,0,.1-.1,0,0,0,0,0,0,0,0,0,0,0,0,0,0,0,0-.1,0-.2,0,0,0,.2,0,.2,0-.2-.1.1-.1,0,0,0,0-.1,0-.2,0-.2,0,.1-.1,0v.2c0-.1,0,0,0,0,0,0,0,0,0,.1,0-.2-.2,0-.2-.3,0,0,0,0,0,0,0,.1,0,0,0,0,0,0,0,0,0,0,0,0,0,0,0-.2,0-.1,0,.3-.2.2,0,0,0-.1,0,0h0c0,.1,0,0,0-.2,0,0,0,0,0,0h0s0,0,0,0h0c0,0,0,0,0,0,0,0,0,.1,0,.1,0,0,0,0,0,0,0-.1,0,0,0-.1,0,0,0,.1,0,0,0,0,0,0,0-.1,0,0,0,0,0,0,0,0,0-.1,0,0,0,0,0,.2,0,.1,0,0,0,0,0-.1h0c0,0,0,0,0,0h0c0,0,0,0,0,0,0,0,0,0,0-.1h0c0,0,0,0,0,0h0s0,0,0,0c0,0,0-.4,0-.3,0,0,0,.2,0,.2,0,0-.1,0-.2-.1,0,0,0,0,0,0,0,0-.2,0-.2-.1,0,0,0-.1,0-.1,0,0,0,0,0,0,0,0,0,.1,0,.2,0,0-.1,0-.1,0,0,0,0,0,0,0,0-.1,0-.2,0-.1h0c0,0,0,0,0,0,0,0,0,.2,0,0,0,0,0,0,0,0,0,0-.1.1-.1,0h0c0-.1,0,0,0,0,0,0,0-.1,0-.2-.2.2-.3.2-.4.1h0c0-.1,0,0,0,0,0,0,0-.1,0-.2,0,0,0,0-.1,0,0,0,0,0,0,0,0,0,0,0,0,0,0,0,0-.1,0-.2h0c0,0,.1-.2.1-.3h0c0-.1,0-.1,0-.1,0,0,0,.2,0,.2,0,0,0,.2-.1.2,0,0,0,0,0,0,0,0,0,0,0,0,0,0,0,.1,0,.1,0,0,0,0,0-.1,0,0,0,0,0,.1,0,.1,0,0,0,0,0,0,0-.2,0-.2,0,0,0,0,0,.2,0,0,0-.1,0-.1,0,0,0,.1,0,0h0c0,0,0,0,0,0,0,0,0,0,0,0,0,0,0,0,0,0,0,0,0,0,0,0,0-.1,0,0,0,0h0c0,0,0,0,0,0,0,0,0,0,0,0h0c0,0,0,0,0,0h0s0,0,0,0c0,0,0,.1,0,.2,0,0,0,0,0,0h0c0,0,0-.2,0-.2,0,0,0,0,0,.1,0,0,0,0,0,0,0,0,0,0,0,0,0,0,0-.1,0-.2h0c0,0,0,0,0,0,0,0,0,0,0-.1,0,0,0,0,0,0,0,.1,0,.1-.1.3,0,0,0-.3,0-.1,0,0,0,.1,0,0,0,0,0,0,0,0,0,0,0-.1,0-.2,0,0,0,0,0,0,0,0,0-.1,0-.1,0,0,0,0,0,0,0,0,0,0,0,0,0,0,0-.1,0,0,0,0,0,0,0,.1h0,0c0,0,0,0,0,0h0c0-.1,0,0,0-.1,0,0,0,0,0,0h0s0-.1,0-.1c0,0,0,0,0,0,0,0,0,0-.1,0,0,0,0,0,0,0,0,0,0,0,.1,0,0,0,0,0,0,0,0,0,0-.1,0-.2,0,0,0,0,0,0,0,0,0,0,0,.1,0,0,0,0-.1,0,0,0,0,0,0,0,0,0-.1,0-.2,0,0,0,0,0,0,0,0,0,0,0,0,.1,0,0,0,0,0,0,0,0,0,0,0,0,0,0,0,0,0-.1,0,0,0,0,0,0,0,0,0,0-.1,0,0,0-.1,0-.2,0,0,0,0,0,0,0,0,0,0,0,0,0h0s0,0,0,0h0s0,0,0,0c0,0,0,0,0,0,0,0,0,0,0,0h0s0,0-.1,0h0s0,0,0,0c0,0,0,0,0,0,0,0,0,0,0,0,0,0,0,0,0,0h0s0,0,0,0c0,0,0,0,0,0,0,0,0,0,0,0,0,0,0,0,0,0,0,0,0,0,0,0,0,0,0,0,.1,0,0,0,0,0,0,0,0,0,0,0,0,0,0,0,0,0,0,0h0s0,0,0,0c0,0,.1,0,.2,0h0s0,0,.2,0c0,0,.2,0,.2,0,.1,0,.2,0,.4,0h0c0,0,0,0,0,0,0,0,0,0,0-.1,0,0,.1,0,.2,0h0c0,0,.1,0,.2,0,0,0,0,0,0,0,0,0,0,0,.2-.1,0,0,0,0,.1,0,.2-.1.3,0,.4,0h0c.2,0,.3.1.4,0v.2c0,0,0,0,0-.1,0,0,.1,0,0,0,0,0,0,0,0,0,0,0,0,0,.2,0h0s0,.1,0,.1c0,0,0,0,.1-.1,0,.1.2,0,.2.1,0,0,0,0,0-.1,0,0,0,.1.2,0,0,0,0,.1,0,.1,0,0,0,0,0-.1.1-.1.2.1.3.1.2-.1.3,0,.5,0h0c0-.1,0,.2.2,0,0,0,0,0,0,.1,0-.1,0,.1.2,0h0c0,.1.1,0,.2.1,0,0,0,0,0,0,0,.1,0-.2,0,0,0,0,0-.1,0-.1.1.1.3,0,.5,0,0,.1,0,.4,0,.2,0,0,0,0,0,0,0,0,0,.3,0,.1,0-.1,0,0,0-.2,0,.1,0,.2.1.1h0c0-.1.1,0,.2-.2.3,0,.7-.1,1,0,.3,0,.6,0,1,.2,0,.2,0,.1.2.1h0c0,0,0,0,0,0,.1,0,.2,0,.4,0,0,0,0,0,0,0h0c0,0,0,0,0,0,0,0,0,0,0-.1.3,0,.6.2,1,.2,0,0,.2,0,.3,0,.3.1.5.1.7.1,0,0,0,0-.1,0h0Z"></path>
    <path class="cls-2" d="M1069.1,137.8s0,0,0,0h0Z"></path>
    <path class="cls-2" d="M1069.7,138.3h0s0,0,0,0c0,0,0,0,0,0h0Z"></path>
    <path class="cls-2" d="M1069.9,138.4s0,0,0,0h0Z"></path>
    <path class="cls-2" d="M1070,138.6s0,0,0,0c0,0,0,0,0,0Z"></path>
    <path class="cls-2" d="M1070,138.6s0,0,0,0c0,0,0,0,0,0Z"></path>
    <path class="cls-2" d="M1070.3,138.9s0,0,0,0c0,0,0,0,0,0Z"></path>
    <path class="cls-2" d="M1070.5,138.9s0,0,0,0c0,0,0,0,0,0h0c0,0,0,0,0,0Z"></path>
    <polygon class="cls-2" points="1073.8 139.8 1073.8 139.8 1073.8 139.7 1073.8 139.8"></polygon>
    <path class="cls-2" d="M1075.3,139.9s0,0,0,0c0,0,0,0,0,0Z"></path>
    <polygon class="cls-2" points="1076.1 139.6 1076.1 139.6 1076.1 139.4 1076.1 139.6"></polygon>
  </g>
  <path class="cls-3" d="M780.4,14.1c22.1-.8,102.3-3.2,111.8-3.4"></path>
</svg>
