<?xml version="1.0" encoding="UTF-8"?>
<svg id="Whale" xmlns="http://www.w3.org/2000/svg" version="1.1" viewBox="0 0 1247.5 58.03">
  <defs>
    <style>
      .cls-1 {
        fill: #4d4d4d;
      }

      .cls-1, .cls-2 {
        stroke-width: 0px;
      }

      .cls-3 {
        fill: none;
        stroke: #4d4d4d;
        stroke-miterlimit: 10;
        stroke-width: .26px;
      }

      .cls-2 {
        fill: #646464;
      }
    </style>
  </defs>
  <g>
    <path class="cls-2" d="M991.92,2.43c-1.39.05.75,0-.91.03.19-.01.46-.03.91-.03Z"/>
    <path class="cls-2" d="M1153.31,46.91c4.47.21,10.34.83,15.24,1.17.57.04-.16.09,1.14.18,4.75.28,12.2,1.03,17.95,1.79h-.35c1.09.15,2.45.14,3.61.27,0,.03-.38,0-.11.07.3-.06,2.11.17,2.61.15.46.08.4.15.99.26l.68-.04c1.88-.08,4.49.47,7.03.59-.12.02-.38.01-.18.06,4.07.25,9.14.8,13.67,1.24-.19.03-.36.09-.1.18.24-.11,1.64.02,2.85-.02.55.16,2.08-.18,3.48-.33l-.11.05c1.01-.32,1.55-.2,2.33-.6.22-.02.45-.04.67-.07.38-.33,1.47-.38,2.26-.8l-.04-.03c.75-.34,1.19-.39,1.9-.7h.08c1.66-.69,2.67-.94,2.57-1.09.64-.09-1.6.67-.61.52,2.73-1.13,5.51-2.22,8.32-3.29.7-.27,1.41-.53,2.08-.82.33-.15.63-.37.94-.56.27-.25.59-.45.82-.73,1.01-1.07,1.71-2.41,2.18-3.8.28-.61.41-1.02.51-1.15.14-.58.44-2.19.38-2.74-.02.2.14-.37.17-.68.14-1.08-.11-1.18-.1-2.35.08.47.14.62.2.46-.19-1-.3-2.35-.49-3.53.05.18.1.47.15.41-.3-1.28-.26-2.37-.52-3.49l.16.41c-.15-1.84-.29-.51-.46-2.09.09.37.11.23.16.3-.41-1.44-.79-3.81-1.21-5.23.03.08.06.05.06.05-.2-.78-.41-1.58-.68-2.37-.14-.4-.29-.79-.49-1.17-.2-.38-.42-.72-.79-.93-.5-.42.3-.05-1.07-1.08-.04.1-.62-.34-1.12-.67-.5-.34-.93-.56-.57-.2-1.15-.88-3.24-1.84-4.19-2.02.64.13-.61-.44.55-.09-.28-.13-.56-.27-.85-.38.16-.05.9.31.65.12-.58-.22-2.35-.52-2.88-.63-1.15-.06-2.18.07-4.01-.05.86,0-.47-.25.12-.23l-2.57.12c-.61-.05-.12-.16-1-.19.04.05-.34.05-.61.06-.22-.04-2.52-.21-2.76-.41-.26-.1.99.06.33-.07-1.12-.11-1.17-.06-2.29-.17l-.02-.03c-.73-.1-2.18-.16-1.39.02.51.06-.18-.12.57,0-.53.05-1.83-.07-2.95-.19.38.01.34-.04.5-.07-1.51-.03-3.11-.17-4.79-.31-.03.08.64-.07.88,0-2.13-.35-4.45-.36-6.21-.73.29.02.15.13.13.1-1.03-.14-.97-.24-1.65-.28-.06-.07-.85-.08-1.54-.15-.36,0-.18-.05.43.02-.97-.06-4.84-.46-7.06-.84.04.04-1.39-.04-1.9-.12l.21-.06c-.46-.11-1.72-.23-1.79-.31-1.11-.04,4.22.47,2.73.36-.37-.12-2.08-.14-1.74-.21-1.03-.13-2.04-.19-3.01-.37.28.05.85-.01.02-.11-1.46-.16-.42-.01-1.61-.13l-.75-.06c-.06.07-1.31-.17-.77-.02-.17-.08-2.13-.22-1.97-.32l.21-.07c-.63-.07-1.05-.03-1.55-.05-.08-.02-.25-.06-.21-.07-.12.13-1.51-.19-2.27-.18-1.32-.21-3.37-.42-3.99-.57-1.02-.09-1.96-.16-3.12-.32.23.02.55.05.62.04-.73-.12-.91-.11-1.58-.18.15,0-1.45-.24-2.26-.37-1.02-.09-.68,0-.78.03-.92-.21-2.87-.28-4.02-.51.35.03,1.48.13.64,0-.92-.2-1.88-.15-3.37-.37l.36.12c-.66-.12-2.2-.22-2.04-.28-.5-.03-1.76-.23-1.6-.15-2.45-.35-5.97-.68-7.47-.96-.35-.04-1.23-.11-1.05-.07.58.08.82.05,1.03.1-.32-.03-.39-.03-.42-.02-.76-.08-1.36-.13-.63-.12-1.7-.13-1.76,0-3.93-.04.1-.02-.07-.03-.7-.03l-1.21.05c-1.41,0-.8-.04-.83-.08-.75.02-1.67.03-2.01.07l-.91-.03c.67.02-.62.04-.97.06l.35-.02c-.14-.01-1.01.02-1.45.04.1.02.99,0,1.48,0-.4.02-.97.05-1.49.08.17-.04-1.23.01-1.82.03-.69.02-.77.06-.97.07-.02-.02-1.12.04-.59-.01.23-.01.53,0,.92-.03-.45,0-.4-.04-1.34.02-.71.04.18.07-1.16.09.35-.02.42-.04.69-.06l-1.25.02-.05.04c-.17,0-.05-.01-.13-.01-.37.05-1.91.08-2.2.13-.63.03-1.33.02-1.94.03h.12c-.74,0-1.72.03-2.35.07h.03c-.41,0-1.36-.01-1.86.01-1.02-.04-.34-.16-1.47-.12-1.04,0-1.62.07-1.21.1-1.86-.04-3.97.03-5.69-.05-.27.02-.1.03-.65.04-2.73-.03-5.76.06-7.94-.07.79-.02.05-.06.04-.1-.65.05-.78-.06-1.02.03.07.06,0,.09.77.11-1.63.03-4.1.03-5.01-.03.45.03.1.05-.25.07.12-.1-1.08-.12-1.99-.09l-.13.07-.59-.07c-.35.02-.39.14-1.29.07-.05-.03-.1-.05-.26-.07-.94.05-2.26.15-3.29.09l-.84-.11c-.44.01-1.17.07-.4.11-1.74-.07-2.86-.08-3.41-.18-3,.23-7.35.24-10.84.2l.1-.07c-.94-.07-.49.11-1.14.06.3-.06-.71-.14.02-.22-1.34-.08-1.73.1-2.6.13-.13.09.7-.05.53.06-.15.03-1.85-.08-2.06.05-.34-.06-.07-.15.11-.21l-.82.06c-1-.17,2.28-.26,1.23-.47h-.76c-.72-.14,2-.13.1-.19-.82.06-1.53.25-.79.32-1.71.02-.79.32-2.63.29-.5-.09,1.47,0,1.12-.12-.87-.12-1.74.04-2.51,0,.86.06.13.19-.42.21-.94-.07.61-.12-.72-.15-.22.08-1.44.12-.38.19-.48.18-1.38-.07-2.1.07-.43-.13,1.36-.28-.09-.36.23.13-1.8.14-1.03.33-.57-.04-.63-.14-.21-.21-.82-.08-1.98.2-2.25-.05l-.28.12c-.26-.04-.61-.09-1.04-.15-.72-.01-2.31.14-2.25-.05-.23.02-1.87-.01-1.24.12,1.02.09,1.17-.08,1.74.1-.72-.15-1.47,0-2.06.04l-.1-.07c-.35.02-1.16,0-1.38.07.27-.04.13-.09-.15-.11l-.37.1c-1.43.03-.34-.19-1.72-.18l1.05-.07c-.23.01-.7-.09-1.37-.07-.26.09-.74.2-.96.28-.78.03-.35-.11-1.12-.03l1.01-.1c.15-.03-.68-.17-1.72-.18-.67.02-1.7.15-.65.22-.52,0-1.26-.08-.84-.14-1.19.02.16.11-.87.15-.42-.07-1.72-.18-2.51-.28l1.07-.14h-.71c.92-.13-.47-.11.05-.24-.48-.03-1.07.01-1.54.04,1.42.23-1.59.27-1.18.46-1.94.02-1.21-.48-3.24-.22.33.05-.62.18.6.15-1.21-.04-.82.17-2.25.07,1.06-.06-1.13-.21.39-.29-.1.06.85.06,1.09.05-.5-.08.1-.19-1.14-.2-.75,0-1.79,0-1.64.09.03.1,1.15,0,.67.11-1.51.01-1.76-.15-2.38.02.95,0,1.19.11,1.17.18l-1.11.02.21-.06c-1.77-.08-.52.11-2.24.06l-.81-.15c.41-.11,2.5.1,2.19-.1-1.12-.03-1.49.06-2.54,0,.24,0,.55-.02.79-.02-.4-.01-.8-.26-2.39-.15-.82.04-.22.06-.24.13-1.79.02-2.33.02-3.48.03.24-.12-2.04-.05-.77-.15.59.08,3.18.13,3.82.01-.65-.17,1.41.05,1.79-.11-1.44-.03-1.37-.18-1.6-.28-.4-.01-.79.03-1.02.04-.17.09.35.1.38.19-1.6-.05-3.15-.02-4.03.05-.54-.05-.37-.14.27-.14-1.91,0-3.95-.05-5.76-.1,1.17.15-2.02,0-1.22.12.97.05,1.81.16,1.27.21-.61-.02.02-.06-.23-.09-.77.06-1.2-.14-1.96-.04,1.74,0,.34-.15.66-.24-1.26.04.05-.07-1.19-.09-1.26.05-2.8.12-4.18.18-1.75-.05-4.43.08-5.99.11-.82-.02-.26-.12-1.15-.11-1.04.02.77.07-.77.07l.15-.02c-.47.03-2.83.01-3.28.12l.47-.09c-.29,0-.55.02-.79.04-.01-.02-.35-.04.12-.06-.95-.03-2,.06-3.03.08l.67.02c-1.77.06-2.96.05-4.67.1l.05-.03-1.02.04c.25-.03-.69-.02-1.22,0l2.65-.13c.74,0-.8.06-.34.07.39.01,1.98-.03,2.23-.06-.61.01-.64.02-1.11.04-.2-.04.72-.06,1.17-.1-.32.01-.77.01-.84.03.62-.04,1.25-.06,2.29-.09-.7.04.38.02.12.04.08-.05,1.07-.09,2.36-.12.92.04,2.41-.11,3.9-.14-.6.08-1.37.15-2.28.19.94,0,1.03-.01,1.98-.02.45-.06.77-.14,1.99-.2l.07.05c1.11-.05,1.1-.13,2.51-.16,2.41-.06,4.89-.12,6.73-.16l.07.06c1.02-.17,3.41-.04,4.79-.1,2.34.08,5.09-.04,6.29.1,4.14-.02,7.75-.06,12.04,0l-.72.12c.77-.08.5.08,1.25.06-.86-.11,1.04-.12,1.58-.19,1.91.11,4.36.03,6.05-.05l.07.09c1.71-.16,3.75.01,5.88.06.24.04.63.13,1.26.13,1.16-.14,1.76-.12,3.45-.2,1.24.01,3.25.07,4.5.14,4.65-.17,9.41.02,14.25-.04l.35.12c4.69-.16,10.46.14,14.46.11l-.39.16c1.25.07,2.86,0,2.54-.11,1.26.07,3.14,0,3.94.13,1.29.05,1.57-.03,2.64-.03,2.58.11,3.53.11,5.96.15l-.6-.02c-.27.02-.29.07.31.09.9-.01,3.33.1,2.43-.06,2.59.13,6.05.08,8.57.22-.22-.03.42-.03.69-.04,2.27.05,4.67.15,6.48.13.36.02-.58.03.35.05.55,0,.01-.03.69-.03,3.67.03,7.45-.08,10.8-.18,2.98-.11,6.02-.22,9.04-.26,1.51-.02,3.01-.02,4.5.03,1.5.04,2.95.25,4.36.39h-.07c1.91.15,4.45.57,5.98.63.45.07,1.72.19,1.38.2,1.52.11,4.23.51,6.43.67-.2-.02-.32-.03-.55-.05,2.2.29,4.16.42,6.49.72-.24-.01-.67-.05-.74-.04.89.15,2.15.12,2.63.3.52.05.38-.02.06-.05,5.1.6,10.57,1.07,15.89,1.62,3.79.56.19.33,3.21.55.24.06.19-.05.22,0,1.17.09,1.78.42,2.6.42-.32-.15.54,0,.58-.07,2.31.35,2.77.51,4.62.63l-.15.05c2.17.06,4.65.44,6.5.41,5.94.61,11.76,1.18,17.54,1.62,1.41.11,2.92.16,4.42.4,1.49.24,2.99.61,4.42,1.21,1.43.59,2.79,1.41,3.98,2.33.61.46,1.12.88,1.71,1.28.6.48.78.88.99,1.27.2.39.35.76.49,1.13.99,2.91,1.45,5.74,1.93,8.6.22,1.43.42,2.86.59,4.29.15,1.45.35,2.84.3,4.45-.07,1.52-.29,3.01-.68,4.49-.4,1.47-.94,2.95-1.87,4.3-.91,1.34-2.27,2.55-3.94,3.08-1.36.49-2.72.99-4.09,1.49-2.63.75-2.82.83-5.59,1.96.1-.08.27-.15.08-.11-.08.22-1.97.75-2.18,1.01-1.02.37-2.02.74-3.01,1.11-1.03.37-2.09.66-3.16.89-2.14.45-4.37.59-6.68.38.74.04,1.11-.07.24-.12-.3.01-.61,0-.92.01l-.14-.06c-.57-.04-1.2-.04-.62.08-11.09-1.19-21.99-2.66-32.87-3.78-2.58-.32-6.26-.67-9.07-.94-4.16-.5-8.11-.94-12.08-1.34-1.99-.18-3.98-.37-6-.56-1.01-.08-2.03-.16-3.07-.24-.52-.03-1.04-.06-1.56-.1l-.79-.03h-.39s-.19.01-.19.01c-.05-.01-.14.07-.1-.06,0,0,.02,0-.01.02-.03.03-.05-.01,0,.05,0,0,.06-.02.13-.03.15-.02.4-.03.76-.02.71,0,1.87.05,3.62.16Z"/>
    <path class="cls-2" d="M993.59,2.37c.3,0,1.27-.01.5.03-.1-.01-.6-.01-.5-.03Z"/>
    <path class="cls-2" d="M1019.57,2.17s.37.03.45.04c-.32,0-.62.04-.88,0,.32,0,.27-.02.42-.04Z"/>
    <path class="cls-2" d="M1026.21,2.32c-.1.05-1.52.06-2.36.05l2.36-.05Z"/>
    <path class="cls-2" d="M1032.4,2.66c.54.06.39.08-.33.07-.05-.03.19-.04.33-.07Z"/>
    <path class="cls-2" d="M1032.84,2.54c.52,0,.77.05,1.02.08-.02-.05-1.19,0-1.02-.08Z"/>
    <path class="cls-2" d="M1046.28,2.95c.32,0,1.02-.04,1.32.03-.34-.06-1.57.06-1.32-.03Z"/>
    <path class="cls-2" d="M1052.52,2.95c.2,0,.28.02.52,0,.37.04-.02.08-.33.08l-.19-.09Z"/>
    <polygon class="cls-2" points="1166.09 4.36 1165.41 4.29 1165.52 4.28 1166.09 4.36"/>
    <path class="cls-2" d="M1215.54,10.43c.68.03.46.12.57.14-.61-.06.23-.06-.57-.14Z"/>
    <polygon class="cls-2" points="1241.28 15.71 1241.12 15.58 1241.27 15.5 1241.28 15.71"/>
  </g>
  <g>
    <path class="cls-2" d="M18.1,23.84c-3.5,1.32,1.89-.7-2.28.87.48-.18,1.15-.44,2.28-.87Z"/>
    <path class="cls-2" d="M1003.36,2.57c1.51,0,3.07-.01,4.68-.02.4,0,.81,0,1.22,0h.31s.15,0,.15,0c.02-.01.06.03.07-.03h-.08s-.62,0-.62,0c-.83,0-1.67,0-2.51,0-3.39,0-6.91,0-10.47,0-7.12,0-14.38,0-20.97.07-1.54.01.4-.1-3.09-.07-12.78.17-32.92.14-48.48-.03l.94-.04c-2.97-.03-6.59.12-9.73.1-.03-.03,1.01-.04.28-.09-.79.09-5.68.05-7.01.12-1.24-.04-1.12-.11-2.72-.15l-1.8.11c-5,.27-12.14,0-18.96.15.33-.03,1-.05.46-.08-10.95.19-24.65.19-36.9.28.49-.05.94-.14.22-.19-.6.14-4.39.19-7.67.22-1.48-.15-5.63.15-9.48.07l.33-.03c-2.85.16-4.22-.08-6.53.11l-1.8-.12c-1.25.22-4.12-.1-6.47.01l.08.04c-2.22.06-3.37-.05-5.43,0l-.2-.03c-4.82.07-7.62-.05-7.5.12-1.69-.14,4.67-.07,2.02-.27-15.84.21-32.18.2-48.12.23-1.81-.07-2.97-.09-3.37-.16-1.59.04-6,.04-7.45.14.53,0-1.03-.09-1.87-.1-2.9-.06-3.17.2-6.35.13,1.27-.05,1.7-.11,1.27-.18-2.72.15-6.35.13-9.56.18.5-.03,1.28-.05,1.15-.11-3.51.16-6.41-.02-9.49.08l1.15-.11c-4.96-.12-1.46.22-5.75.15,1.03-.03.67-.07.85-.12-4,.19-10.46.14-14.46.21.24-.01.18-.04.18-.04-4.35.03-8.89-.02-13.67.07-1.74-.04.57-.24-4.03-.2.17.2-7.81.09-5.09.31-3.93-.03-10.15-.09-12.76-.02,1.77-.08-1.91-.23,1.35-.25l-2.47-.11c.37-.08,2.54.02,1.76-.08-1.64.01-6.41.1-7.87.07-3.03.12-5.81.34-10.72.37,2.31-.08-1.31-.2.26-.24l-6.85.36c-1.63.01-.36-.14-2.72-.09.12.05-.9.08-1.63.12-.61-.02-6.79.05-7.5-.12-.72-.07,2.66-.04.85-.1-3.02.04-3.15.04-6.17.07l-.06-.02c-1.99-.02-5.87.08-3.7.17,1.39,0-.53-.1,1.52-.06-1.4.1-4.91.13-7.92.14,1.03-.03.9-.07,1.32-.12-4.05.14-8.35.18-12.88.24-.07.08,1.69-.14,2.35-.1-5.8-.1-11.98.16-16.81,0,.79-.01.43.11.37.09-2.8,0-2.67-.12-4.49-.08-.18-.06-2.29.02-4.16.04-.97.05-.49-.03,1.14-.04-2.61.06-13.06.14-19.1.06.12.04-3.71.14-5.09.13l.54-.09c-1.27-.05-4.65,0-4.88-.07-2.97.1,11.41-.09,7.4,0-1.04-.07-5.58.14-4.72.02-2.79,0-5.49.09-8.15.02.77.01,2.26-.11.01-.11-3.96.01-1.13.04-4.34.06l-2.02.03c-.14.08-3.54-.01-2.07.07-.49-.06-5.76.03-5.35-.09l.55-.09c-1.71,0-2.8.1-4.15.14-.22,0-.67-.03-.59-.04-.27.14-4.09-.01-6.12.09-3.59-.05-9.13-.01-10.83-.09-2.76.04-5.28.08-8.43.05.63-.01,1.49-.01,1.67-.04-1.98-.03-2.46,0-4.27.01.4-.02-3.95-.07-6.15-.1-2.74.03-1.8.09-2.08.12-2.51-.1-7.75.06-10.89-.03.95-.01,4-.05,1.72-.07-2.51-.09-5.06.07-9.11.03l.99.07c-1.8-.05-5.95.04-5.54-.03-1.35.03-4.77-.02-4.32.05-6.65-.05-16.16.03-20.24-.07-.95.01-3.33,0-2.84.03,1.58.03,2.21-.03,2.8,0-.85,0-1.04.02-1.13.03-2.07-.01-3.69-.01-1.74-.07-4.6-.03-4.74.1-10.59.09.27-.02-.18-.03-1.89-.03l-3.25.04c-3.78,0-2.15-.05-2.24-.09-2.02,0-4.5.01-5.41.04l-2.45-.05c1.79.03-1.66.03-2.61.04h.95c-.37-.03-2.71-.01-3.89,0,.28.02,2.66.03,3.96.03-1.04.01-2.64.03-4.01.04.45-.04-3.29-.02-4.9-.02-1.84,0-2.08.04-2.62.04-.05-.02-3.01,0-1.57-.03.63,0,1.43,0,2.47,0-1.22-.01-1.08-.05-3.59-.02-1.9.02.49.08-3.11.06.94-.02,1.12-.03,1.85-.04h-3.37s-.14.02-.14.02c-.45,0-.14-.01-.35-.02-1,.04-5.15.02-5.91.07-1.7,0-3.58-.01-5.21-.02h.31c-1.99-.02-4.63,0-6.29.03h.09c-1.08,0-3.64.02-5.01.04-2.74-.02-.92-.16-3.95-.09-2.78,0-4.36.09-3.24.12-5-.01-10.67.09-15.31.03-.72.02-.26.03-1.75.05-7.34,0-15.49.15-21.34.06,2.13-.04.14-.06.1-.1-1.75.06-2.11-.05-2.74.05.18.06,0,.09,2.07.1-4.38.05-11.03.09-13.46.05,1.22.02.28.05-.68.07.32-.1-2.91-.11-5.35-.06l-.35.07-1.59-.06c-.94.03-1.04.15-3.46.09-.12-.03-.27-.05-.71-.07-2.53.07-6.09.19-8.83.14l-2.25-.1c-1.17.02-3.14.09-1.08.11-4.68-.04-7.69-.04-9.18-.13-8.05.29-19.76.32-29.12.4l.28-.07c-2.51-.04-1.3.13-3.06.1.81-.07-1.92-.12.06-.22-3.6-.04-4.63.15-6.97.2-.35.09,1.88-.07,1.43.04-.4.04-4.98-.03-5.53.11-.9-.05-.21-.15.28-.21l-2.2.08c-2.69-.14,6.12-.33,3.29-.5l-2.03.04c-1.94-.13,5.36-.2.27-.21-2.21.08-4.09.29-2.12.34-4.59.07-2.12.34-7.06.37-1.35-.07,3.95-.05,3-.15-1.17-.05-2.33-.02-3.47.01-.28,0-.57.02-.84.03-.41.02-.61-.03-.9-.04-.55-.04-1.08-.09-1.6-.15,2.29.28.34.23-1.16.09-2.51-.36,1.64.07-1.91-.38-.6.01-3.88-.43-1.06.05-1.32,0-3.69-.6-5.67-1.01-1.12-.41,3.73.65-.15-.42.14.07-.08.04-.48-.07-.4-.11-.89-.26-1.39-.36-.97-.22-1.79-.33-.83-.02-1.44-.37-1.59-.48-.5-.33-1.04-.28-2.34-.44-3.46-.56-.62-.07-.93-.09-1.25-.01-.31.06-.53.16-.68.18l-.52.51c-.58.37-1.41.89-2.35,1.49-.39.28-.9.65-1.44,1.04-.27.2-.55.4-.82.6-.27.19-.53.41-.91.62-.7.4-1.53.42-1.87.42-.41.01-.64,0-.6-.05-.15.01-.55.04-1.02.07-.48.01-.99.11-1.63.04-.59-.07-1.06-.28-1.27-.38-.16-.08-.2-.04.29.22.4.18.78.27,1.13.3.18.02.34.02.5.01.12,0,.24-.01.36-.02.45-.03.8-.06,1.12-.08.32-.02.6-.04.89-.05.32-.02.55.02,1.09,0-.15.02-.32.03-.46.03h-.37s-.73.03-.73.03c-.49.02-.97.06-1.44.1-.41.05-1.1.1-1.64-.05-.28-.07-.55-.17-.79-.29-.19-.1-.38-.2-.56-.29-.05-.05-.08-.1-.13-.15-.3-.14-.86-.25-1.36-.09-.12.03-.24.08-.35.14-.14.08-.28.15-.41.22-.26.15-.48.27-.6.36.63-.37.27-.24-.41.09l-.83.55c-1.48.77-1.86.91-2.08.96-.11.03-.18.03-.33.08-.08.03-.18.06-.32.11-.14.04-.28.13-.74.24-.12.01-.26,0-.4,0-.15-.02-.3-.06-.4-.09-.22-.06-.44-.14-.68-.23.19.07.38.13.6.19.17.05.55.15.88.1.12-.03.23-.06.35-.11l.23-.1.4-.19.76-.39c-.16.08-.37.18-.63.29-.13.06-.28.12-.44.18-.08.03-.17.07-.26.1-.1.04-.27.1-.42.12-.21.03-.5-.03-.68-.08-.17-.05-.34-.11-.5-.17-.32-.12-.67-.26-1.03-.4-.69-.18-1.93-.6-2.49-.74-.58-.22-.43-.15-.47-.16-.16.04-.25.06-.34.08-.21.06-.42.11-1.35.53l1.22-.53.3-.12.14-.05s.02-.01.03-.02c.06-.01,0-.04.26.04.09.03.04-.01-.12-.08-.09-.04-.06-.04-.12-.06-.02,0-.05,0-.07,0-.05,0-.16.04-.25.07-.79.23-1.97.68-3.26,1.22-.2.09-.42.19-.64.28-.2.1-.53.23-.8.29-.55.14-1.14.1-1.42.06-.28-.02-.42-.02-.32.01.05.02.17.05.35.09.19.04.57.11,1.02.07-.45.06-1-.04-1.31-.11-.36-.07-.7-.14-.96-.19-.52-.11-.72-.18-.17-.12-3.15-.49.39.17-2.33-.22-.28-.06-.7-.15-1.21-.25-.48-.11-.83-.14-1.34.03-1.22.4-2.57.83-3.6,1.12.9-.35,1.79-.72,2.68-1.1l-1.81.64c2.3-.94-1.22.32.06-.26-.62.21-1.3.44-1.99.67-.68.21-1.36.49-2.07.5.51.03.85-.05.99-.06.15-.02.16,0,.06.05-.1.04-.29.12-.61.18-.33.05-.66.06-1.02.07-1.44.03-3.18-.05-2.64.09-2.62-.17-3.42-.37-4.26-.53-.42-.08-.84-.15-1.51-.22-.31-.03-.78-.09-1.14-.08-.2.01-.39.04-.64.13-.27.09-.57.18-.9.29.44-.09.04.06-.06.13-.05.03-.04.04.19-.01.11-.03.28-.07.52-.14.12-.03.25-.07.4-.11.12-.03.25-.06.4-.07-.15,0-.29.03-.41.06-.16.04-.31.09-.45.12-.28.08-.51.15-.71.21-.4.13-.68.22-.98.32-.59.2-1.26.41-3.12.87,1.36-.4.62-.25.02-.15-.29.06-.67.09-.57.05.09-.03.48-.15,1.49-.46-.25.13,2.22-.55,2.83-.73-1.31.28.22-.25-3,.61-.5.12-.98.33-1.63.38-.65.02-1.1-.07-1.57-.09-.9-.07-1.49-.1-1.3-.03.08.11,3.09.27,1.79.26-4.03-.33-4.69-.55-6.38-.52,2.55.22,3.17.39,3.12.45l-2.97-.23h.58c-.58-.07-1.03-.12-1.4-.15-.28-.01-.48.03-.63.07-.15.05-.24.09-.33.14-.1.06-.18.1-.25.14-.15.08-.29.16-.66.34-.19.09-.43.2-.76.35-.16.07-.35.16-.56.25-.18.08-.49.23-.86.32-.51.1-.8.06-1.19.09l-1.1.04c.27-.06.84-.12,1.51-.19.3-.02.79-.08,1.21-.26.34-.15.69-.3,1.03-.45.65-.29,1.25-.56,1.64-.73.3-.13.45-.17.28-.18-.26.06-.57.23-.87.35-.29.13-.56.25-.82.37-.53.24-.91.43-1.45.65-.27.1-.6.17-.84.19-.25.03-.51.05-.78.08-.54.05-1.14.12-1.85.17.63-.07,1.5-.17,2.12-.24-.54.05-1.09.04-2.03.09-.94.02-2.28.1-4.41.3-2.21.17-.58.1-.63.17-4.81.29-6.25.37-9.35.56.63-.15-5.48.22-2.06-.05,1.58.01,8.55-.31,10.25-.55-1.76-.05,3.78-.18,4.81-.43-3.87.27-3.69.07-4.32.02-1.07.05-2.11.15-2.75.2-.45.12.95.04,1.04.13-4.31.2-8.46.44-10.83.62-1.44.02-.99-.09.71-.17-5.13.25-10.61.46-15.47.63,3.15,0-5.43.25-3.28.27,2.61-.07,4.86-.07,3.42.05-1.63.05.05-.06-.63-.06-2.07.15-3.23.01-5.27.2,4.68-.22.9-.19,1.76-.32-3.38.19.14-.08-3.2.06-3.37.17-7.5.39-11.24.58-4.7.12-11.9.52-16.09.74-2.2.08-.71-.08-3.1.03-2.79.17,2.08-.04-2.06.17l.4-.04c-.63.04-2.52.15-4.41.27-1.89.14-3.78.3-4.38.39l1.27-.17c-.77.05-1.49.11-2.12.2-.03-.02-.93.05.32-.1-1.27.12-2.62.2-3.97.44-1.36.19-2.71.56-4.05.91l1.74-.4c-4.61,1.18-7.68,2.02-12.07,3.4l.12-.07-2.6.86c.62-.23-1.76.54-3.12,1.04,2.24-.79,4.48-1.56,6.74-2.29,1.89-.57-2.05.68-.86.33,1.02-.31,5.06-1.52,5.75-1.73-1.57.45-1.65.47-2.85.85-.53.11,1.84-.59,3.01-.96-.82.24-1.99.56-2.16.63,1.6-.49,3.23-.97,5.93-1.68-1.83.51,1-.23.31-.04.2-.07,2.77-.92,6.23-1.22.62-.06,1.33-.13,2.11-.2.78-.07,1.64-.14,2.54-.22,1.81-.17,3.81-.32,5.81-.44-1.63.15-3.69.34-6.11.56,2.5-.17,2.79-.21,5.3-.34,1.21-.12,2.07-.26,5.34-.47l.18.04c2.97-.19,2.96-.27,6.74-.45,6.47-.29,13.13-.59,18.07-.81l.19.05c2.74-.25,9.16-.45,12.85-.67,6.3-.2,13.67-.68,16.9-.71,5.54-.32,10.76-.57,15.96-1.13.33-.03.58-.1.86-.22l.9-.4c.61-.27,1.18-.54,1.84-.81.35-.13.72-.19,1.09-.19.39.01.68.05,1.03.08.67.06,1.34.12,2.01.18,1.35.12,2.71.24,4.09.36.35.02.7.08.99.06.3,0,.6-.11.96-.2.68-.18,1.37-.37,2.07-.55l-1.84.62c1.97-.63,1.31-.28,3.26-.83-1.13.25-.47.04.66-.29.29-.08.6-.17.92-.27.35-.09.75-.11,1.08-.08.64.04,1.23.07,1.59.1,2.53.25,5.49.57,8.27.56.59-.05,1.3-.31,1.95-.52.66-.22,1.3-.45,1.92-.68.62-.24,1.23-.47,1.81-.69.29-.11.56-.23.92-.33.34-.09.69-.12,1.02-.1l.19.11c1.16.15,2.34.32,3.58.51.61.1,1.23.2,1.86.3.26.03.54.02.8-.04.13-.03.26-.07.39-.12l.46-.19c1.24-.5,2.48-1.03,3.85-1.48.17-.05.47-.16.71-.09.27.07.43.14.6.2l.99.42c.65.28,1.3.57,1.95.84.17.08.36.16.6.27.24.09.51.22.71.22.13-.02.41-.13.67-.25.27-.12.57-.26.9-.42,1.36-.75,2.39-1.32,3.58-1.98.67-.37,1.58-.57,2.53-.29.24.07.48.16.71.29.19.1.39.21.6.32.37.17.78.26,1.27.21.83-.04,1.79-.1,2.81-.15.46,0,.86-.12,1.24-.36.44-.3.88-.61,1.32-.91.9-.62,1.81-1.24,2.66-1.83.43-.29.84-.58,1.24-.85.2-.14.4-.27.59-.4.22-.14.46-.24.69-.32.43-.16.89-.22,1.34-.2.43.04.8.08,1.2.13.79.1,1.57.22,2.36.37.78.15,1.57.33,2.34.55.38.11.79.24,1.15.36.36.12.73.22,1.1.32,3.01.73,6.17,1.11,9.32,1.44l1.19.12.59.05.22.02h.3s2.4-.02,2.4-.02c1.6-.01,3.21-.03,4.83-.04,3.22-.04,6.46-.08,9.72-.11l.94.1c12.62-.34,28.12-.08,38.89-.18l-1.04.16c3.37.05,7.69-.04,6.83-.15,3.38.05,8.44-.05,10.59.07,3.46.03,4.23-.06,7.11-.07,6.92.07,9.5.06,16.02.05h-1.62c-.72.01-.78.07.85.08,2.43-.03,8.95.05,6.53-.1,6.97.09,16.25-.02,23.03.09-.58-.03,1.13-.03,1.85-.05,6.11.01,12.54.07,17.42.03.98.01-1.55.04.94.05,1.47,0,.04-.03,1.85-.05,9.91,0,20.06.02,29.06.03,16.01-.04,32.71-.09,48.06-.13l-.18.02c5.14-.08,12.05.03,16.15-.09,1.21.01,4.64-.01,3.74.03,4.09-.07,11.46,0,17.37-.09-.54,0-.85.01-1.48.02,5.98-.02,11.24-.04,17.55-.05-.64.01-1.8.03-1.99.05,2.43.04,5.77-.14,7.11-.02,1.39,0,.99-.07.14-.06,13.81-.01,28.54-.18,42.9-.3,10.29.05.63.3,8.75.13.66.03.48-.07.59-.03,3.14-.07,4.89.19,7.07.08-.9-.11,1.45-.07,1.52-.14,6.29.05,7.56.16,12.52.05l-.37.07c5.82-.21,12.57-.13,17.48-.37,32.11-.18,62.89-.36,94.2-.54,30.95-.05,61.25-.24,92.67-.11,7.36.22,7.92.21,16,.12-.33.04-.83.04-.29.08.41-.18,5.7-.02,6.47-.19,11.62,0,22.32,0,34.27,0-1.89.02-2.84.15-.59.14l2.35-.1.38.05c1.54-.02,3.21-.1,1.63-.16,30.03-.09,59.57.26,88.99.29,6.99.06,16.93.05,24.51.06,11.25.08,21.94.15,32.68.22,2.68.01,5.37.02,8.07.03,1.35.01,2.7.02,4.06.03h1.02s.51.02.51.02h.26s.13,0,.13,0h.03s.02,0,.02,0c-.14.05.31-.17,0,.33h-.07s-2.05,0-2.05,0c-2.73-.02-5.49-.03-8.27-.05-1.39-.01-2.79-.02-4.2-.03-.7,0-1.41-.01-2.12-.02h-1.07s-.53-.02-.53-.02h-.27s-.13,0-.13,0h-.07s-.02,0-.02,0c-.03-.05.04.12-.07-.12.11-.06.06-.02.09-.03,0,0,0,0,0,0h-.01s-.01,0-.01,0h0s.04-.05-.06.06c.06.15.06.06.07.09h0s.06,0,.12,0c.1,0,.25,0,.47,0,.43,0,1.1,0,2.06,0,1.93,0,5.04,0,9.74,0Z"/>
    <path class="cls-2" d="M22.32,22.28c.76-.26,3.23-1.13,1.27-.41-.25.07-1.52.51-1.27.41Z"/>
    <path class="cls-2" d="M91.1,13.24c.09-.02.99-.02,1.22-.02-.86.04-1.66.11-2.35.11.87-.04.74-.06,1.13-.09Z"/>
    <path class="cls-2" d="M108.95,12.56c-.26.06-4.08.26-6.34.35l6.34-.35Z"/>
    <path class="cls-2" d="M125.59,12.02c1.44-.03,1.05.02-.89.12-.14-.02.5-.07.89-.12Z"/>
    <path class="cls-2" d="M126.76,11.83c1.38-.09,2.07-.11,2.75-.12-.06-.05-3.21.25-2.75.12Z"/>
    <path class="cls-2" d="M162.23,9.71c.23,0,.51.01.87,0,.42-.01.83-.13,1.15-.22.69-.19,1.33-.4,1.73-.49-.46.12-1.41.48-2.39.69-.62.1-.95.05-1.21.06-.24,0-.32-.02-.15-.04Z"/>
    <path class="cls-2" d="M178.82,7.78c.5-.2.71-.28,1.28-.53.93-.34-.02.09-.79.42l-.49.11Z"/>
    <polygon class="cls-2" points="480.83 3.61 479.02 3.63 479.29 3.6 480.83 3.61"/>
    <path class="cls-2" d="M614.74,3.66c1.81-.04,1.26.06,1.56.07-1.64,0,.6-.08-1.56-.07Z"/>
    <polygon class="cls-2" points="686.95 3.23 686.4 3.23 686.58 3.07 686.95 3.23"/>
  </g>
  <g>
    <path class="cls-2" d="M43.6,29.85c-4.31-1.47,2.29.87-2.8-.99.57.23,1.39.54,2.8.99Z"/>
    <path class="cls-2" d="M1163.8,48.42c7.28.84,15.7,1.99,24.27,3.35,4.28.68,8.6,1.42,12.83,2.19,2.11.4,4.21.79,6.27,1.18,1.03.21,2.05.41,3.05.61.5.11,1,.21,1.5.31l.74.15c.24.04.53.1.67.34.24.45.02.69-.02.76-.07.08-.09.08-.17.12-.07.04-.22.1-.6.24-.38.13-1,.36-2.05.35-7.63-1.4-17.53-3.11-27.85-4.75-5.16-.82-10.43-1.65-15.59-2.37-5.15-.73-10.26-1.22-15.01-.79l1.15-.13c-3.63.23-7.96,1.08-11.79,1.29-.03-.03,1.22-.14.33-.11-.48.13-2.17.09-4,.11-1.81,0-3.71,0-4.52.03-1.51-.04-1.36-.12-3.31-.17l-2.2.1c-6.1.25-14.79-.07-23.11.05.4-.03,1.22-.05.56-.07-13.35.13-30.04.06-44.97.09.59-.05,1.15-.13.27-.19-.74.14-5.35.16-9.34.18-1.8-.15-6.86.12-11.55.02l.4-.03c-3.47.15-5.14-.11-7.96.07l-2.2-.13c-1.53.21-5.02-.13-7.88-.03l.09.05c-2.7.04-4.11-.07-6.61-.04l-.24-.03c-5.87.04-9.28-.1-9.14.08-2.06-.15,5.69-.04,2.46-.26-19.31.12-39.21-.49-58.62-1.22-2.2-.15-3.61-.23-4.1-.31-1.94-.04-7.31-.22-9.07-.19.65.02-1.25-.14-2.28-.17-3.53-.17-3.86.07-7.74-.1,1.55-.01,2.07-.06,1.56-.14-3.32.06-7.74-.06-11.65-.06.61-.02,1.55-.03,1.41-.08-4.28.08-7.81-.11-11.56-.04l1.41-.1c-6.04-.13-1.78.21-7.01.15,1.25-.04.81-.08,1.04-.12-4.87.19-12.75.25-17.61.43.29-.02.21-.05.21-.05-5.3.11-10.82.29-16.65.49-2.12-.01.69-.25-4.92-.13.21.19-9.51.23-6.2.4-4.79.04-12.36.09-15.55.2,2.15-.11-2.34-.2,1.64-.28l-3.01-.07c.44-.09,3.1-.02,2.14-.11-2,.04-7.8.21-9.59.21-3.69.18-7.08.4-13.06.49,2.81-.1-1.6-.19.31-.24l-8.34.43c-1.99.03-.43-.14-3.31-.07.15.05-1.1.09-1.98.13-.75-.01-8.27.12-9.14-.05-.88-.06,3.24-.07,1.04-.11-3.68.03-3.84.1-7.51.13l-.07-.02c-2.43-.02-7.15.1-4.51.19,1.69,0-.64-.1,1.86-.06-1.71.11-5.98.15-9.66.16,1.25-.03,1.1-.08,1.61-.13-4.94.15-10.17.21-15.69.28-.08.08,2.06-.15,2.87-.11-7.07-.09-14.6.21-20.49.03.96-.01.52.11.46.09-3.41-.02-3.25-.12-5.47-.09-.22-.06-2.79.02-5.07.03-1.18.04-.59-.03,1.4-.03-3.18.05-15.92.11-23.27,0,.14.04-4.52.11-6.21.1l.66-.08c-1.54-.06-5.67-.03-5.95-.1-3.61.08,13.91,0,9.02.05-1.26-.08-6.8.1-5.75-.01-3.4-.02-6.69.06-9.93-.04.94.02,2.76-.1.01-.11-4.83-.01-1.37.03-5.29.03l-2.46.02c-.17.07-4.32-.04-2.52.06-.59-.07-7.02,0-6.52-.13l.67-.09c-2.09,0-3.42.08-5.06.11-.27,0-.82-.03-.72-.05-.33.14-4.98-.06-7.46.03-4.38-.09-11.12-.11-13.19-.21-3.36,0-6.44.02-10.27-.04.77,0,1.82,0,2.03-.02-2.41-.06-3-.03-5.2-.03.49-.01-4.82-.11-7.5-.17-3.34,0-2.2.07-2.53.1-3.06-.13-9.44-.04-13.27-.17,1.16,0,4.88,0,2.1-.05-3.06-.13-6.16,0-11.09-.09l1.21.09c-2.19-.07-7.26-.04-6.75-.1-1.65,0-5.81-.08-5.26,0-8.1-.15-19.69-.2-24.66-.36-1.16,0-4.05-.04-3.46,0,1.93.05,2.69,0,3.41.04-1.04,0-1.27,0-1.38.01-2.52-.04-4.5-.07-2.12-.09-5.6-.1-5.78.04-12.9-.06.32-.02-.22-.04-2.3-.05h-3.96c-4.61-.06-2.62-.08-2.73-.13-2.46-.02-5.48-.05-6.59-.04l-2.99-.08c2.18.06-2.03,0-3.18,0h1.16c-.47,0-3.3-.03-4.74-.05.34.03,3.24.07,4.83.09-1.26,0-3.21-.01-4.88-.02.55-.03-4.01-.07-5.97-.09-2.25-.03-2.53,0-3.19,0-.06-.02-3.67-.04-1.91-.05.77,0,1.75.02,3.02.03-1.48-.03-1.31-.06-4.38-.07-2.31,0,.59.08-3.8.02,1.15,0,1.37-.01,2.26-.02l-4.11-.06-.17.03c-.55-.01-.17-.01-.43-.02-1.22.03-6.27-.05-7.2-.01-2.08-.03-4.37-.06-6.35-.09h.38c-2.42-.04-5.64-.06-7.67-.05h.11c-1.32-.01-4.44-.03-6.1-.03-3.34-.06-1.12-.17-4.82-.15-3.39-.02-5.31.04-3.95.08-6.09-.07-13-.04-18.65-.15-.87.01-.32.03-2.13.03-8.94-.09-18.88-.03-26-.17,2.59-.02.17-.06.12-.1-2.14.05-2.57-.07-3.34.02.21.06,0,.09,2.52.12-5.33.01-13.44,0-16.4-.08,1.48.03.34.05-.83.07.39-.1-3.55-.13-6.52-.11l-.42.06-1.93-.07c-1.14.02-1.26.14-4.22.08-.15-.03-.32-.05-.86-.07-3.08.05-7.42.16-10.76.1l-2.74-.11c-1.43.01-3.83.08-1.32.11-5.7-.07-9.37-.08-11.18-.18-9.82.21-24.07.33-35.49.33l.34-.07c-3.07-.05-1.59.12-3.73.08.99-.07-2.34-.13.07-.22-4.39-.06-5.65.13-8.51.17-.43.09,2.29-.07,1.74.05-.49.03-6.07-.03-6.75.11-1.1-.05-.25-.15.35-.21l-2.68.08c-3.28-.14,7.47-.33,4.03-.51l-2.47.04c-2.36-.13,6.54-.2.34-.21-2.69.08-4.99.3-2.6.34-5.6.07-2.59.34-8.61.37-1.65-.07,4.82-.05,3.66-.16-2.84-.09-5.7.1-8.22.08,2.8.03.43.19-1.38.22-3.07-.05,1.99-.14-2.35-.13-.72.08-4.7.17-1.26.2-1.57.19-4.52-.02-6.88.13-1.42-.12,4.47-.32-.3-.35.76.12-5.88.2-3.36.37-1.87-.02-2.07-.12-.7-.2-2.67-.05-6.48.29-7.36.06l-.92.13c-.84-.02-2.03-.06-3.4-.1-2.36.03-7.58.25-7.37.07-.76.03-6.13.08-4.05.19,3.34.04,3.84-.14,5.7.02-2.36-.12-4.81.07-6.75.14l-.31-.07c-1.15.04-3.8.06-4.51.14.88-.05.42-.09-.49-.1l-1.21.12c-4.67.1-1.1-.18-5.64-.1l3.45-.12c-.76.03-2.3-.06-4.48,0-.85.09-2.4.29-3.24.25-2.58-.23-1.14-.23-3.66-.42l3.31.26c.49.03-2.22-.41-5.6-.8-2.17-.22-5.56-.44-2.14-.01-1.71-.19-4.09-.49-2.72-.42-3.86-.36.49.15-2.84-.12-1.36-.2-5.59-.67-8.15-.93l3.5.11-2.32-.18c3.01.1-1.51-.21.19-.22-1.58-.14-3.5-.22-5.04-.27,2.31.24,1.01.24-.7.21-1.71-.02-3.84-.05-3.17.08-6.35-.18-3.95-.6-10.6-.42,1.09.06-2.05.16,1.97.17-3.96-.08-2.7.15-7.37-.03,3.47,0-3.71-.28,1.29-.27-.34.06,2.79.1,3.56.1-1.63-.1.34-.18-3.72-.26-2.47-.03-5.87-.13-5.38-.02.1.11,3.78.09,2.19.16-4.93-.1-5.75-.29-7.8-.18,3.12.1,3.89.22,3.83.29l-3.63-.08.71-.04c-5.8-.26-1.72.07-7.35-.18l-2.63-.25c1.34-.04,8.18.39,7.19.17-3.66-.15-4.87-.11-8.32-.31.77.02,1.82.06,2.58.08-1.31-.07-2.6-.35-7.82-.49-2.7-.1-.72.02-.79.09-1.49-.1-2.62-.12-3.81-.28-.95-.14-1.88-.22-2.68-.31-1.64-.16-3.01-.3-4.89-.49.79-.05-6.64-.71-2.48-.4.95.14,3.54.42,6.15.7,1.29.14,2.59.29,3.69.41,1.18.19,2.08.16,2.61.18-2.13-.28,4.61.31,5.88.19-4.71-.24-4.47-.4-5.22-.54-.65-.04-1.3-.07-1.87-.11-.58-.02-1.12-.1-1.48-.15-.28.01,0,.07.35.15.19.04.4.08.57.12.17.03.29.06.31.08-5.22-.71-10.26-1.12-13.15-1.35-1.74-.22-1.18-.25.89-.05-6.22-.64-12.87-1.33-18.77-1.93,3.8.52-6.59-.65-4-.27,3.16.36,5.87.73,4.12.61-1.98-.21.07-.05-.76-.16-2.53-.19-3.91-.52-6.39-.67,5.68.55,1.12-.04,2.18-.03-4.1-.36.18-.05-3.87-.47-4.09-.36-9.11-.85-13.65-1.31-1.42-.16-3.03-.35-4.73-.54-1.69-.17-3.46.05-5.24.18-3.54.31-7,.61-9.55.83-2.67.19-.87-.05-3.77.18-3.4.28,2.53-.11-2.51.25l.48-.05c-.38.03-1.15.09-2.11.14-.48.02-1.01.07-1.58.02-.56-.06-1.13-.2-1.68-.37-2.23-.7-4.16-2.03-4.8-2.42.44.28.89.55,1.35.8-.4-.25-.78-.49-1.14-.74-.18-.13-.35-.25-.52-.37-.16-.09-.36-.13-.54-.18-.03-.02-1.09-.31.4.05-1.5-.42-3.13-.6-4.78-.84-1.66-.21-3.34-.43-5.02-.65l2.16.32c-5.75-.74-9.6-1.25-15.15-2.08h.17s-3.29-.51-3.29-.51c.81.11-2.21-.4-3.94-.74,2.84.56,5.7.98,8.56,1.37,2.38.36-2.61-.35-1.12-.1,1.26.22,6.41.93,7.24,1.01-1.97-.26-2.07-.27-3.59-.48-.64-.13,2.34.28,3.83.45-1.03-.14-2.48-.33-2.72-.36,2.03.26,4.07.52,7.45.95-2.29-.28,1.24.19.37.09.28,0,3.51.36,7.67,1,.37.07.77.14,1.2.22.42.11.89.11,1.33.42.77.56,1.65,1.12,2.63,1.62.98.5,2.06.94,3.21,1.18.58.13,1.15.16,1.76.12.6-.04,1.21-.08,1.82-.11-.49.05-1.02.1-1.57.14-.56.04-1.14.09-1.76-.03-1.23-.2-2.52-.7-3.83-1.39,1.34.73,2.15,1.02,2.97,1.26.41.1.83.21,1.34.27.51.06,1.11.01,1.87-.02,1.48-.15,2.55-.26,6.5-.67l.22.03c3.61-.34,3.6-.42,8.19-.81,1.97-.14,3.93-.36,5.92-.43.99-.02,1.99.08,2.94.19.96.1,1.91.2,2.85.3,3.75.39,7.27.75,10.26,1.06l.22.08c3.35.21,11.12,1.07,15.61,1.45,7.63.83,16.6,1.58,20.5,2.12,1.69.17,3.34.35,4.98.52l1.23.15.62.09c.17.02.37.04.58.05.81.05,1.62.1,2.42.15,3.23.17,6.41.3,9.61.42,6.4.24,12.87.43,19.88.56l-2.36.08c2.51-.04,1.63.1,4.1.13-2.83-.14,3.42-.09,5.16-.14,6.26.17,14.28.55,19.82.97l.21.11c2.8.16,5.86.47,9.09.85,1.61.2,3.26.4,4.94.61.84.1,1.69.22,2.51.24.86,0,1.73-.01,2.6-.02.8.03,2.06.1,4.14.06,3.78-.2,5.76-.21,11.31-.38,4.05-.05,10.63-.1,14.74-.09,15.24-.38,30.82-.3,46.66-.51l1.15.11c15.37-.22,34.26-.05,47.38-.06l-1.27.16c4.11.07,9.37,0,8.33-.11,4.12.07,10.29-.01,12.9.13,4.21.05,5.16-.04,8.66-.03,8.44.13,11.57.15,19.52.2l-1.97-.03c-.87.02-.95.07,1.03.1,2.96,0,10.91.13,7.96-.04,8.49.14,19.8.15,28.06.34-.7-.04,1.38-.02,2.26-.03,7.45.09,15.28.18,21.23.25,1.19.03-1.89.02,1.14.06,1.8.01.04-.03,2.25-.02,12.07.15,24.44.3,35.41.43,19.51.19,39.86.38,58.55.57l-.21.02c6.26-.01,14.68.21,19.68.14,1.48.03,5.65.05,4.55.08,4.99-.02,13.96.16,21.16.13-.66,0-1.04,0-1.81,0,7.28.05,13.7.1,21.38.16-.78,0-2.2,0-2.42.03,2.96.07,7.03-.08,8.66.06,1.7,0,1.21-.06.17-.06,8.41.04,17.11.07,25.88.11,8.78-.01,17.64-.02,26.39-.04,12.54.13.76.3,10.66.19.81.03.58-.07.72-.03,3.83-.06,5.96.2,8.62.1-1.1-.11,1.77-.07,1.85-.14,7.67.06,9.21.18,15.26.08l-.46.07c7.09-.19,15.31-.09,21.3-.36,9.78-.07,19.46-.14,29.07-.2,9.61-.12,19.16-.24,28.67-.36,9.52-.1,19-.29,28.48-.48,4.74-.09,9.49-.18,14.24-.27,2.38-.04,4.75-.09,7.13-.13,2.38-.07,4.76-.15,7.14-.22,18.85-.6,37.56-.68,56.3-.12,18.74.57,37.51,1.42,56.64,1.84,8.96.37,9.63.43,19.48.37-.4.03-1.02.04-.36.07.5-.18,6.94.02,7.88-.15,14.16.07,27.2.13,41.77.19-2.3,0-3.46.14-.72.14l2.87-.09.46.05c1.87-.02,3.92-.09,1.98-.15,18.3.02,36.45.17,54.51.33,4.51.04,9.02.08,13.52.12l6.75.06,3.37.03h.84s.13,0,.13,0l.21-.02.42-.03,1.67-.13c4.43-.33,8.9-1.19,13.48-1.08,4.55.06,9.02.72,13.46,1.35,8.43,1.26,20.39,3.19,29.5,4.81,3.36.63,6.72,1.25,9.97,1.99.76.15,1.55.11,2.29-.1.18-.05.37-.11.54-.19l.28-.12c.05-.03.08-.04.11-.07.11-.1.06-.35-.09-.39-1.5-.35-3.2-.72-4.79-1.05-6.46-1.35-12.89-2.49-19.34-3.56-12.91-2.11-25.92-3.89-39.78-5.24,0,0,.92.08,3.24.29,2.33.22,6.1.59,11.8,1.27Z"/>
    <path class="cls-2" d="M48.88,31.31c.9.38,4.02,1.06,1.54.5-.31-.07-1.87-.58-1.54-.5Z"/>
    <path class="cls-2" d="M132.53,40.6c.11,0,1.2.15,1.47.18-1.04-.1-2.03-.16-2.85-.28,1.06.11.9.07,1.38.09Z"/>
    <path class="cls-2" d="M154.17,42.86c-.33.02-4.97-.42-7.7-.7l7.7.7Z"/>
    <path class="cls-2" d="M174.34,45.19c1.75.15,1.27.15-1.1,0-.17-.04.61,0,1.1,0Z"/>
    <path class="cls-2" d="M175.78,45.15c1.69.09,2.52.17,3.34.24-.06-.05-3.9-.18-3.34-.24Z"/>
    <path class="cls-2" d="M219.76,46.81c1.05.06,3.34.14,4.31.29-1.1-.14-5.13-.24-4.31-.29Z"/>
    <path class="cls-2" d="M240.09,48.5c.66.08.92.12,1.69.19,1.2.17-.07.07-1.1-.04l-.59-.15Z"/>
    <polygon class="cls-2" points="612.49 49.98 610.28 49.97 610.61 49.95 612.49 49.98"/>
    <path class="cls-2" d="M775.66,50.86c2.21-.05,1.54.06,1.91.07-1.99.01.73-.09-1.91-.07Z"/>
    <polygon class="cls-2" points="863.64 49.59 862.97 49.6 863.19 49.44 863.64 49.59"/>
  </g>
  <g>
    <path class="cls-2" d="M53.04,23.25c.07,0-.03-.07.05-.02-.01.03-.03.05-.05.02Z"/>
    <path class="cls-2" d="M34.42,23.63c.58-.07.36-.04.76-.09.03,0,0,0,.06,0,.24-.04.61-.08.9-.09h-.02c.05,0,.14-.02.18-.02,0,0-.02,0,0,0,.01,0,.1-.01.13-.02.02,0,.02,0,.05,0h.03c.09-.04.23-.03.35-.05,0,0-.02,0,0,0,.35-.04.47-.06.68-.08,0,0-.02.01,0,.02,0-.01.08-.02.14-.03.03.01.1-.02.18-.02h0c.05-.02.08,0,.12-.02h.03s.08.01.12,0h0s.06,0,.1-.01h0c.09-.01.14,0,.14-.02.03.01-.09.01-.04.03.29-.04.6-.06.89-.09.03,0,.06,0,.06.02.03,0,.11-.01.14-.03,0,0,.02.01.04.01.05,0,.06-.03.12-.02-.02,0-.03.02-.02.02.05-.02.12-.02.18-.04,0,0-.02,0-.02.02.06-.03.12,0,.18-.02l-.02.02c.09.01.02-.03.11-.03-.02,0-.01.01-.01.02.07-.03.19-.03.27-.05h0c.08,0,.17,0,.25-.02.03,0,0,.04.08.03,0-.03.14-.02.09-.06.07,0,.19,0,.24,0-.03.02.04.04-.02.05l.05.02s-.05,0-.03.01c.03,0,.12-.02.15-.02.05-.02.1-.07.2-.08-.04.02.03.04,0,.05l.12-.08s0,.03.05.02c0,0,.02-.02.03-.03.01,0,.13-.02.14.02.01.01-.05.01-.01.02.06,0,.06-.02.11-.02h0s.11-.02.07-.04c-.03,0,.01.02-.03.01.02-.02.09-.03.15-.04-.02,0-.02.02-.02.03.07-.04.15-.05.24-.07,0-.02-.03.04-.04.03.11.02.22-.05.31-.02-.01,0,0-.03,0-.02.05,0,.05.03.08.02,0,.02.04,0,.08-.01.02-.01,0,0-.02.01.05-.02.24-.05.35-.04,0-.01.07-.05.09-.05v.03s.08,0,.08.02c.05-.04-.21.04-.14.01.02.02.1-.05.09-.01.05,0,.1-.04.15-.01-.01,0-.04.04,0,.04.07,0,.02-.01.08-.03h.04s.07-.01.04-.04c0,.02.11-.02.1.03v.04s.04-.04.07-.06c0,0,.01.01.01.02,0-.06.08,0,.11-.05.07.02.17,0,.2.03.05-.02.1-.04.16-.03-.01,0-.03,0-.03.02.04.02.05,0,.08-.01,0,0,.07.03.12.05.05-.02.03-.05.04-.07.05.06.14-.05.2,0-.02,0-.07.03-.03.05.05.06.09-.05.17-.02l-.02-.05s.11-.03.1.02c.02-.02.09.01.08-.04.12.04.3-.04.38.05.02,0,.06,0,.05-.03-.03-.03-.04.02-.05,0,.02,0,.02-.02.02-.02.04.01.07.01.03.06.09.03.09-.09.2-.08,0,.02,0,.03.04.03l.06-.04c.07,0,.04.05.04.09.04,0,.08,0,.1-.04l.05.05s.03-.02.05-.03h-.02s.05.02.07,0c0-.02-.05-.03-.07-.04.02-.02.05-.01.07-.04,0,.04.06.03.09.03.03,0,.04-.04.05-.03,0,.02.06,0,.03.03-.01,0-.03-.02-.05,0,.02.01.02.05.07.02.04-.02,0-.08.06-.05-.02.01-.02.03-.03.04l.06.02v-.04s0,.01,0,.02c.02-.04.1-.01.11-.06.03,0,.07.02.1.03h0s.09,0,.12-.02h0s.07,0,.09-.02c.05.03.02.14.07.09.05,0,.08-.07.06-.09.09.02.2-.04.29.02.01-.02,0-.03.03-.04.14.01.29-.05.4.03-.04.02,0,.04,0,.06.03-.04.04.04.05-.02,0-.04,0-.05-.04-.07.08-.02.21-.02.25.01-.02-.02,0-.03.01-.04,0,.06.05.07.1.05v-.04s.04.04.04.04c.02-.01.02-.08.06-.04,0,.01,0,.03.01.04.05-.03.11-.08.17-.05l.04.05s.06-.04.02-.05c.09.03.14.04.17.08.15-.12.37-.12.55-.11v.03s.02-.05.05-.03c-.02.03.03.06,0,.1.07.03.09-.05.13-.06,0-.04-.04.02-.03-.02,0-.01.09.03.1-.03.02.02,0,.07,0,.09l.04-.03c.05.07-.12.12-.07.21h.04c.03.05-.1.06,0,.08.04-.03.08-.11.04-.14.09-.02.04-.14.14-.14.02.04-.07,0-.06.06.04.05.09-.03.13,0-.04-.02,0-.08.02-.09.05.03-.03.06.03.06.01-.03.07-.06.02-.08.03-.08.07.02.11-.04.02.06-.07.13,0,.16-.01-.05.09-.07.06-.15.03.02.03.06,0,.09.04.03.1-.1.11.01l.02-.06s.03.03.05.06c.04,0,.12-.07.11.01.01,0,.09,0,.06-.06-.05-.04-.06.04-.09-.04.03.07.07,0,.1-.03v.03s.06,0,.07-.04c-.01.02,0,.04,0,.05l.02-.05c.07-.02.01.09.08.08l-.05.04s.03.04.07.02c.02-.05.04-.1.05-.14.04-.02.02.05.06,0l-.05.06s.03.08.08.08c.03-.02.09-.08.04-.11.03,0,.06.03.04.06.06-.02,0-.05.05-.08.02.03.08.08.12.13l-.06.08h.04c-.05.06.02.05,0,.12.02.01.05-.01.08-.03-.07-.11.09-.15.07-.25.1-.02.05.24.16.09-.02-.03.04-.1-.03-.07.06.01.05-.1.12-.06-.06.04.05.1-.03.16,0-.03-.04-.03-.05-.02.02.04-.01.1.05.1.04,0,.09,0,.09-.06,0-.06-.06,0-.03-.05.08-.02.08.07.12-.03-.05,0-.06-.05-.05-.09l.06-.02v.04c.07.03.02-.07.1-.06l.04.08c-.02.07-.12-.03-.11.08.06,0,.08-.05.13-.02-.02,0-.02.01-.04.02.02,0,.03.15.12.07.04-.03.01-.04.02-.08.09,0,.12-.05.18-.05-.02.08.1.01.03.09-.03-.05-.16-.05-.19.03.03.1-.07-.02-.09.08.07,0,.06.1.07.16.02,0,.04-.02.05-.03.01-.06-.01-.06-.01-.12.08.02.16,0,.21-.06.03.03.01.09-.02.09.1-.01.2,0,.29.02-.05-.1.1-.02.07-.1-.05-.02-.08-.09-.06-.14.03,0,0,.04,0,.06.04-.05.05.09.1,0-.09.03-.02.12-.05.19.07-.04,0,.05.06.06.07-.04.15-.07.22-.08.08.08.22.02.3.02.04.04,0,.13.05.15.05,0-.03-.1.04-.05v.02s.13.07.16-.05l-.03.09s.03-.01.04-.02c0,.03.01.06-.01.08.04.07.1,0,.15,0l-.03-.06c.09-.04.15.02.23.01v.06s.05-.03.05-.03c-.02.05.03.09.06.05l-.15.13s.05-.06.03-.12c-.01-.05-.1-.04-.11.01.03,0,.03,0,.06-.02,0,.08-.04.07-.07.12.02,0,.04.02.04,0-.03.04-.07.04-.12.04.04-.03-.01-.05,0-.07-.01.07-.06.09-.12.06-.04-.08-.12.04-.2.01.04-.07.08-.12.13-.14-.04-.04-.05,0-.1-.04-.03.05-.05.13-.11.15v-.05c-.06.02-.06.1-.13.08-.12-.03-.24-.05-.33-.06v-.05c-.06.1-.17.03-.24.07-.11-.05-.26.03-.31-.06-.21.02-.39.05-.6.02l.04-.07s-.02-.04-.06-.03c.04.06-.06.07-.08.11-.09-.06-.22,0-.3.03v-.05c-.09.08-.19,0-.29-.02-.01-.02-.03-.06-.06-.06-.06.07-.09.06-.18.1-.06,0-.16-.03-.22-.06-.23.08-.47.01-.71.06l-.02-.05c-.24.09-.52-.01-.72.03l.02-.08c-.06-.03-.14.02-.13.07-.06-.03-.16.03-.2-.03-.06-.02-.08.03-.13.04-.13-.03-.18-.03-.3-.02h.03s.01-.04-.02-.05c-.05.02-.17-.02-.12.06-.13-.05-.3.03-.43-.04.01.02-.02.03-.03.04-.11,0-.23-.05-.32-.01-.02-.01.03-.04-.02-.04-.03,0,0,.03-.03.04-.18.04-.37-.05-.54-.04-.3.04-.61.01-.89.02h0c-.09.04-.23-.07-.3.01-.02-.01-.09,0-.07-.03-.07.04-.21-.03-.32.01.01,0,.02,0,.03,0-.11-.03-.21.01-.33-.01.01,0,.03-.01.04-.02-.05-.02-.11.06-.13,0-.03,0-.02.03,0,.03-.26-.02-.53.03-.8.04-.19-.03-.02-.1-.16-.05-.01-.01,0,.02-.01.01-.06.02-.09-.06-.13-.03.02.03-.03.02-.03.04-.12-.02-.14-.05-.23-.02v-.02c-.1.05-.23.03-.31.09-.59.03-1.18.07-1.75.1-.58.02-1.08.04-1.72.07-.14-.02-.15-.02-.3,0,0,0,.02,0,0,0,0,.02-.11,0-.12.03-.22.02-.41.03-.64.04.03,0,.05-.02,0-.01h-.04s0,0,0,0c-.03,0-.06.01-.03.02-.56.05-1.11.05-1.65.11-.17.02-.31.03-.45.04-.51.04-.78.07-1.22.11,0,0,.17-.02.23-.03Z"/>
    <path class="cls-2" d="M52.96,23.25s-.06-.07-.01-.13c0,.04.02.09.01.13Z"/>
    <path class="cls-2" d="M51.7,22.73s-.02-.02-.02-.02c.02,0,.03-.04.05-.01-.02,0-.02.02-.02.04Z"/>
    <path class="cls-2" d="M51.37,22.69s.08-.06.12-.06l-.12.06Z"/>
    <path class="cls-2" d="M51.07,22.53s-.02-.05.02-.04c0,.02-.01.03-.02.04Z"/>
    <path class="cls-2" d="M51.04,22.61s-.04-.02-.05-.04c0,.03.06-.02.05.04Z"/>
    <path class="cls-2" d="M50.37,22.5s-.05.03-.07,0c.02.03.08-.04.07,0Z"/>
    <path class="cls-2" d="M50.05,22.54s-.01,0-.03,0c-.02-.01,0-.04.02-.04v.04Z"/>
    <polygon class="cls-2" points="44.35 22.73 44.38 22.72 44.38 22.74 44.35 22.73"/>
    <path class="cls-2" d="M41.86,22.86s-.02-.01-.03-.01c.03,0-.01.02.03.01Z"/>
    <polygon class="cls-2" points="40.52 23.03 40.53 23.03 40.53 23.05 40.52 23.03"/>
  </g>
  <g>
    <path class="cls-2" d="M40.92,16.46c.51,0-.28-.02.34,0-.07,0-.17.01-.34,0Z"/>
    <path class="cls-2" d="M51.4,23.19c-1.64.2-3.82.76-5.26,1.9-.17.12,0-.12-.4.17-1.38,1.1-3.54,2.83-5.36,3.99l.08-.11c-.34.23-.65.64-1,.89-.02-.02.08-.12-.02-.09-.03.14-.6.51-.7.67-.16.07-.19,0-.39.1l-.13.24c-.39.62-1.35.99-2.02,1.65.02-.05.08-.12,0-.1-1.11,1.03-2.67,2.1-4.04,3.09.03-.08.03-.18-.08-.17,0,.16-.41.48-.77.75-.25-.01-.57.54-1.07.75l.02-.05c-.25.34-.54.23-.71.56l-.27.03c-.03.28-.54.21-.76.47l.03.03c-.23.2-.43.19-.65.37h-.04c-.54.38-.93.48-.83.62-.27,0,.52-.39.1-.37-1.78,1.27-3.76,2.35-5.7,3.38-.25.05-.4.11-.49.07-.18.13-.71.42-.85.59.06-.04-.17-.02-.28.03-.39.12-.3.38-.72.51.13-.12.16-.2.08-.23-.27.3-.72.51-1.1.75.05-.06.14-.12.09-.16-.36.36-.8.37-1.14.65l.1-.16c-.67.19-.08.28-.64.48.11-.09.05-.11.05-.16-.41.41-1.24.75-1.7,1.04.02-.03,0-.05,0-.05-.53.28-1.12.5-1.68.85-.24.06-.03-.25-.59.05.11.17-.94.53-.5.57-.5.2-1.31.49-1.61.71.19-.17-.34-.1.06-.31l-.36.04c.01-.09.33-.12.19-.17-.2.1-.76.45-.96.51-.33.28-.59.64-1.18.95.25-.2-.25-.1-.07-.23l-.69.73c-.2.11-.11-.11-.38.08.04.04-.08.12-.16.2-.08.02-.84.43-1.01.3-.12-.02.32-.18.07-.14-.38.17-.38.23-.76.39l-.02-.02c-.26.08-.73.37-.41.35.18-.06-.11-.07.18-.13-.14.17-.59.37-.98.51.13-.07.09-.11.13-.18-.24.16-.5.3-.78.42-.26.12-.56.24-1.02.39,0,.08.32-.23.41-.22-.97.18-2.24.67-2.6.03.09.09-.05.11-.04.09-.13-.2-.05-.31-.03-.39.04-.08.08-.14.09-.24.09-.05.09-.26.24-.5.04-.12.08-.06-.05.14.02-.07.13-.22.26-.41.19-.21.42-.46.66-.73.39-.44.75-.85,1.03-1.14-.04,0,.19-.48.31-.63l.03.11c.15-.1.36-.51.44-.5.16-.38-.83,1.31-.58.82.14-.07.34-.69.36-.53.21-.32.35-.66.61-.93-.07.08-.07.32.09.06.28-.46.05-.15.27-.53l.12-.25c-.06-.05.26-.41.09-.28.09-.02.38-.69.45-.58l.04.11c.11-.21.11-.38.17-.56.02-.02.07-.07.08-.05-.1-.1.29-.48.34-.77.29-.4.64-1.08.83-1.25.16-.35.31-.67.58-1.02-.04.08-.1.18-.1.22.18-.21.19-.29.32-.51-.02.06.38-.42.63-.62.21-.3.08-.24.08-.28.3-.18.46-.87.64-1.24-.01.13-.13.51,0,.24.19-.3.13-.67.24-1.2l-.09.12c.09-.23.04-.8.11-.74-.01-.18.05-.65-.02-.58.04-.45,0-1,0-1.52,0-.56.12-1,.21-1.28.01-.13.08-.45.04-.39-.07.21-.03.31-.07.38.02-.12,0-.14,0-.16.06-.28.11-.5.11-.23.15-.62.02-.66.21-1.45.02.04.04-.02.08-.25l.06-.45c.13-.51.12-.28.16-.28.06-.27.15-.6.15-.73l.14-.31c-.1.23.04-.23.07-.36l-.03.13s.12-.36.16-.51c-.04.03-.14.34-.21.51.04-.16.08-.33.14-.54.02.07.17-.43.27-.63.11-.24.08-.28.12-.35.02,0,.21-.38.13-.19-.03.08-.12.17-.16.31.08-.15.11-.11.26-.44.17-.24-.14,0,.27-.4-.13.11-.1.15-.17.24.09-.13.25-.26.4-.34v-.04c.07-.02.03,0,.06,0,.11-.1.66-.29.74-.37.22-.09.47-.15.66-.24l-.04.02c.25-.09.56-.26.7-.42h0c.12-.06.33-.29.36-.44.12-.27.21-.05.19-.42,0-.19-.07-.24-.11-.23-.04,0-.05.02-.04.05-.09-.08-.54-.01-.87.05-.36.06-.74.1-1.09.03-.11,0-.04.04-.27.01-.14-.02-.28-.07-.42-.11-.15-.07-.32-.15-.44-.27-.26-.23-.4-.52-.5-.78-.19-.54-.24-1.05-.21-1.47.05.3.06.02.1,0-.07-.25.05-.3-.06-.38-.06.03-.09,0-.1.29-.07-.62-.06-1.58-.02-1.83-.02.12-.05,0-.07-.03h0c.05,0,.09-.05.06-.12-.02-.06-.15-.19-.28-.27l-.08.02c-.03-.06-.07-.12-.11-.18-.11-.06-.19.03-.41-.2,0-.03,0-.06-.03-.11-.31-.14-.77-.3-1.06-.54l-.21-.24c-.14-.07-.41-.14-.18.02-.38-.31-1.27-.76-1.34-.92-.54-.23-.81-.47-.96-.78-.02-.11-.02-.25.03-.35.04-.1.09-.15.15-.22.04-.07.11-.14.23-.21.12-.07.18-.15.34-.2.46-.18,1.01-.36,1.42-.49.29-.09.58-.18.85-.26l-.02.08c.35-.04.14-.16.38-.19-.09.09.29.06.05.21.5-.08.58-.3.88-.42.02-.1-.23.13-.21,0,.04-.05.68-.13.72-.28.13.02.07.14.02.21l.28-.15c.4.05-.74.51-.31.59l.26-.1c.29.07-.67.35.02.21.27-.15.48-.41.2-.39.6-.2.2-.39.87-.56.2.03-.53.16-.37.24.34.02.61-.23.91-.26-.33.02-.09-.17.11-.25.39-.01-.21.18.31.08.09-.11.65-.19.15-.22.11-.11.27-.09.45-.07.18.02.3.05.45-.02.16.13-.52.28.02.36-.08-.13.68-.14.4-.33.21.05.23.14.07.21.3.09.74-.19.83.06l.11-.12c.09.04.23.08.38.16.27.02.86-.12.83.06.09-.02.69.03.46-.11-.37-.1-.44.07-.64-.11.26.16.54.01.77-.02l.03.07c.13-.02.43.01.51-.06-.1.04-.05.09.05.11l.14-.1c.53-.02.11.2.63.2l-.39.06c.09-.01.26.1.5.08.1-.09.29-.2.37-.27.29-.02.12.12.41.04l-.38.09c-.06.03.24.18.63.2.25-.02.64-.13.25-.21.19.01.46.09.3.15.44,0-.05-.11.33-.14.15.07.63.19.91.3l-.4.13.26.02c-.35.11.17.11-.03.23.18.03.4,0,.57-.03-.51-.24.6-.25.46-.45.72,0,.43.49,1.19.24-.12-.06.24-.18-.21-.15.45.05.31-.17.84-.05-.39.05.41.21-.16.29.04-.06-.31-.07-.4-.05.18.08-.05.19.41.21.28,0,.66.02.61-.08,0-.11-.43-.02-.24-.11.56,0,.64.16.88,0-.35,0-.43-.12-.42-.19h.41s-.08.05-.08.05c.65.09.2-.11.83-.05l.29.15c-.16.1-.92-.11-.82.08.41.03.55-.05.94.02-.09,0-.2.01-.29.02.15.02.28.27.88.16.31-.03.08-.06.09-.12.66.02.86-.03,1.29,0-.09.12.75.07.28.16-.21-.09-1.17-.15-1.41-.04.23.17-.52-.06-.67.09.53.04.5.19.58.29.15.01.29-.02.38-.03.07-.09-.13-.1-.13-.19.59.06,1.16.04,1.49-.02.2.06.13.14-.11.13.71.02,1.46.07,2.13.14-.43-.16.75.01.46-.11-.36-.05-.66-.17-.46-.21.22.03,0,.06.08.09.29-.05.44.14.72.05-.65,0-.13.15-.26.24.47-.03-.02.07.44.1.47-.03,1.04-.04,1.55-.03.64.12,1.64.09,2.21.13.3.06.09.13.42.16.38.02-.28-.1.29-.04h-.06c.17,0,1.04.11,1.21.02l-.18.07c.11.01.21,0,.29,0,0,.02.13.05-.05.06.35.06.74.02,1.12.03l-.24-.05c.66,0,1.09.05,1.73.07l-.02.03h.38c-.09.02.25.04.45.03l-.98.04c-.27-.02.3-.03.13-.06-.14-.03-.73-.04-.83-.01.22.01.24,0,.41,0,.07.04-.27.03-.44.06.12,0,.28.02.31,0-.23.02-.46.02-.85.01.26-.02-.14-.03-.04-.05-.03.04-.4.05-.88.03-.34-.07-.89.02-1.44,0,.23-.06.51-.1.85-.11-.34-.04-.38-.01-.73-.05-.17.04-.29.1-.74.12l-.02-.05c-.41.01-.41.09-.93.06-.9-.04-1.81-.08-2.49-.11l-.02-.06c-.38.12-1.26,0-1.78.05-.86-.1-1.89,0-2.32-.14-1.53,0-2.87,0-4.46-.09l.27-.11c-.29.08-.18-.08-.46-.07.31.11-.39.11-.59.18-.7-.13-1.61-.06-2.24,0l-.02-.09c-.64.14-1.39-.04-2.17-.1-.09-.04-.23-.14-.46-.14-.43.13-.66.11-1.29.18-.46-.02-1.2-.09-1.66-.17-.43.04-.87.05-1.29.06-.48,0-.7,0-1.15.13-.83.2-1.68.44-2.52.74l-.15-.07c-.39.17-.82.32-1.25.46l-.56.17c-.1.03-.18.05-.26.07-.07.03-.16.05-.24.07-.1,0-.11.15-.02.17.14.07.29.15.41.19-.06.03-.12.06-.19.08.04.04.09.07.15.1.1.05.19.09.27.13.18.08.31.1.29.02.38.29,1.03.59,1.21.87.38.31.52.3.86.57.14.14.27.29.39.43.13.17.2.38.24.56.01.37,0,.49,0,.73,0,.21,0,.43-.01.71l.02-.22c-.02-.1-.08-.11-.09.11.01.33-.03,1.2.1.87-.03.45.03,1,.23,1.39.1.19.22.32.35.39.19.08.4.14.61.18-.07-.03.14-.03.23-.05.38,0,.79-.05,1.25-.07.12,0,.24,0,.39.03.14.04.34.12.44.29.18.35.12.54.11.76-.05.16.01-.27-.08.15-.09.24.04.02-.09.31-.47.77-1.25.96-1.87,1.19-.32.11-.63.21-.92.34-.19.09-.36.35-.49.61-.44.96-.71,2.06-.96,3.13-.24,1.08-.44,2.16-.56,3.19v-.03c0,.62-.01,1.63.07,2.19-.02.17-.02.66-.06.53.03.59-.19,1.63-.52,2.46.04-.07.05-.12.08-.21-.17.4-.45.78-.7,1.09-.23.28-.43.6-.67.95.04-.08.11-.22.1-.25-.22.25-.31.72-.5.82-.09.17-.01.15.04.05-.96,1.62-1.77,3.5-2.82,5.23-.89,1.15-.29-.09-.83.93-.08.05.01.1-.03.09-.23.39-.58.43-.69.7.17-.02-.07.19-.02.23-.07.06-.16.16-.19.18-.04.02-.07.04-.1.06-.07.05-.13.08-.19.12-.11.08-.22.17-.23.27l-.11.02c.02.06.01.11.05.18.03.09.19.08.28.06.2-.04.39-.12.51-.27l.26-.09.74-.27c.5-.19.99-.39,1.48-.61.99-.43,1.88-.89,2.85-1.41,1.92-.98,3.83-1.95,5.75-2.92,3.82-1.84,7.44-3.85,11.26-5.82.99-.3,1.06-.34,1.96-.97-.02.05-.08.09,0,.09-.04-.18.66-.41.67-.6,1.39-.77,2.62-1.56,3.99-2.44-.21.15-.24.34,0,.16l.21-.26h.07c.16-.12.31-.31.1-.24,3.37-2.29,6.83-4.43,10.05-6.88.8-.54,1.88-1.39,2.73-2.01,1.32-.84,2.67-1.59,4.12-2.03,1.45-.44,2.97-.55,4.54-.53,0,0-.14.01-.37.03-.26.03-.69.03-1.34.12Z"/>
    <path class="cls-2" d="M40.3,16.46c-.11-.01-.47-.03-.18-.04.04.02.22.03.18.04Z"/>
    <path class="cls-2" d="M30.71,15.71s-.14-.03-.17-.04c.12,0,.23-.03.32,0-.12,0-.1.02-.16.04Z"/>
    <path class="cls-2" d="M28.26,15.52s.57-.05.88-.04l-.88.04Z"/>
    <path class="cls-2" d="M25.99,15.14c-.2-.06-.14-.08.13-.06.02.03-.07.04-.13.06Z"/>
    <path class="cls-2" d="M25.82,15.25c-.19-.01-.28-.05-.37-.09,0,.05.44,0,.37.09Z"/>
    <path class="cls-2" d="M20.87,14.75c-.12,0-.38.03-.49-.04.12.06.58-.04.49.04Z"/>
    <path class="cls-2" d="M18.55,14.7c-.07,0-.1-.02-.19,0-.14-.04.01-.08.13-.08l.06.09Z"/>
    <polygon class="cls-2" points="8.17 38.15 8.21 37.91 8.23 37.95 8.17 38.15"/>
    <path class="cls-2" d="M3.79,50.75c.23-.12.19,0,.23,0-.21.08.05-.11-.23,0Z"/>
    <polygon class="cls-2" points="12.76 46.37 12.69 46.4 12.65 46.24 12.76 46.37"/>
  </g>
  <g>
    <path class="cls-2" d="M1026.13,35.27c.25.01-.13-.02.16,0-.03,0-.08,0-.16,0Z"/>
    <path class="cls-2" d="M1029.26,42.61c-.76.25-1.78.51-2.61.79-.09.04.01-.05-.21.03-.8.29-2.13.5-3.17.46l.06-.03c-.2,0-.43.11-.64.11,0-.02.06-.03.01-.05-.05.06-.37.05-.46.09-.08-.02-.08-.06-.19-.08l-.11.07c-.32.18-.8.04-1.25.13.02-.02.07-.03.03-.05-.72.15-1.63.11-2.44.15.03,0,.06,0,.01-.06-.04.09-.29.05-.51.07-.1-.01-.37.02-.63.01h.02c-.19.01-.28,0-.43.01h-.12c-.08.01-.27-.01-.43,0h0c-.17,0-.21,0-.36,0h-.01c-.32,0-.5,0-.5,0-.11-.02.31,0,.13-.03-1.05.04-2.13,0-3.19,0-.12-.02-.2,0-.22-.03-.11.03-.4,0-.49.02.04,0-.07,0-.12-.01-.19,0-.21.02-.42,0,.08,0,.11.02.09-.05-.18.08-.42.02-.63.04.03,0,.08,0,.08,0-.23,0-.42-.01-.63,0,.03,0,.05,0,.08-.03-.16-.05-.19,0-.21.02-.02,0-.03.01-.17,0,.07,0,.04,0,.06-.02-.27.02-.69,0-.96,0,.02,0,.01,0,.01,0-.29,0-.56-.02-.91-.03-.12,0,.04-.03-.27-.05,0,.06-.52,0-.34.04-.26-.01-.64-.03-.85-.04.12,0-.13-.01.09-.04l-.16-.11c.03-.07.17.03.12-.06-.11,0-.43.05-.52.02-.21.15-.39.14-.72.11.16,0-.09,0,.02-.05-.16.06-.31.02-.46.04-.11,0-.02-.02-.18-.02,0,0-.06,0-.11,0-.04,0-.45,0-.5-.03-.05,0,.18,0,.06,0-.19,0-.22,0-.41-.01h0c-.13-.01-.39-.01-.25,0,.09,0-.03-.01.1,0-.09,0-.33,0-.53-.02.07,0,.06,0,.09,0-.27,0-.55-.02-.85-.04,0,0,.11,0,.16,0-.38-.05-.79-.06-1.11-.13.05,0,.02.01.02.01-.14-.03-.18-.03-.29-.05-.01,0-.15-.02-.27-.04-.06,0-.03,0,.08,0-.17-.02-.86-.13-1.24-.26,0,0-.24-.05-.33-.08h.04c-.08-.03-.3-.09-.31-.11-.19-.04.73.22.47.15-.06-.03-.36-.09-.3-.09-.18-.06-.35-.1-.51-.18.05.02.15.04,0-.01-.2-.08-.1-.04-.27-.1l-.12-.06s-.21-.11-.13-.05c-.03-.02-.34-.19-.3-.19h.04c-.05-.02-.17-.09-.24-.13-.01-.01-.03-.03-.03-.03-.03.01-.21-.18-.32-.26-.16-.18-.39-.49-.4-.62-.09-.17-.14-.34-.16-.55,0,.04,0,.1.02.11-.01-.16-.02-.17-.03-.29,0,.03.03-.27.05-.41.04-.18.01-.12,0-.14.04-.17.16-.5.26-.68-.02.06-.1.25-.03.11.1-.14.1-.33.27-.55l-.05.05c.08-.09.22-.34.22-.3.05-.08.19-.26.15-.25.29-.33.7-.83.94-.97.05-.04.17-.15.14-.13-.09.06-.11.1-.14.12.04-.04.05-.05.05-.06.11-.09.19-.16.1-.06.24-.19.21-.24.52-.47,0,.02.02,0,.11-.07l.17-.14c.21-.15.13-.07.14-.06.11-.08.24-.18.28-.22.05-.03.1-.05.14-.08-.11.05.09-.07.14-.1l-.05.04s.15-.09.22-.14c-.02,0-.16.08-.23.13.08-.06.12-.08.22-.15-.02.03.19-.11.28-.16.11-.06.11-.08.14-.1,0,0,.17-.11.09-.05-.03.02-.08.05-.14.09.07-.04.07-.03.21-.12.11-.07-.04,0,.17-.11-.03.02-.06.04-.1.07l.2-.1h0s.01-.02.02-.02c.05-.04.3-.17.34-.2.09-.05.22-.11.31-.16h-.02c.12-.05.28-.12.37-.18h0c.06-.02.17-.08.3-.15.17-.07.07.01.25-.09.17-.08.25-.14.18-.12.31-.12.65-.29.94-.39.04-.02.01-.01.1-.05.46-.16.96-.38,1.34-.47-.13.05,0,.01,0,.02.11-.04.14-.03.17-.06-.01,0,0-.01-.14.02.28-.09.7-.23.86-.26-.08.02-.02,0,.04-.02-.02.02.19-.03.35-.08l.02-.02.1-.02c.06-.02.06-.04.22-.07,0,0,.02,0,.05,0,.16-.05.39-.11.57-.14l.15-.02c.08-.02.2-.05.07-.03.31-.06.51-.07.61-.08.52-.13,1.33-.15,1.94-.02h-.02c.16.04.09,0,.2.03-.05,0,.12.04,0,.02.23.05.31.04.46.06.02,0-.12-.01-.09-.02.03,0,.32.06.36.05.06.01.01.02-.02.02l.14.02c.17.04-.41-.04-.22.01l.13.02c.12.03-.35-.04-.02.02.15.02.27.02.14,0,.3.04.14-.01.47.04.09.02-.26-.04-.2-.02.15.03.31.04.44.06-.15-.03-.02-.02.08,0,.16.03-.11,0,.12.03.04,0,.26.02.07,0,.09,0,.24.04.37.04.07.02-.24,0,.01.04-.04-.02.32.03.19,0,.1.02.11.03.04.02.14.03.35.03.4.06h.05c.05,0,.1.02.18.03.13.02.41.04.4.06.04,0,.33.04.22.02-.18-.03-.21-.02-.31-.05.13.03.26.03.36.04h.02c.06.01.2.03.24.03-.05,0-.02,0,.03.01h.07c.25.03.06.02.3.05l-.19-.02s.13.02.24.04c.06,0,.13,0,.17,0,.14.01.06.02.2.03h-.18s.12.02.3.04c.12.01.3.02.12,0,.09.01.22.03.15.03.21.02-.03-.01.16,0,.1.02.29.05.44.08h-.19s.13,0,.13,0c-.16,0,.08.02-.01.02.08,0,.18.02.27.03-.25-.05.28,0,.21-.02.34.04.21.07.57.09-.06-.01.11,0-.1-.03.21.03.15,0,.4.04-.19-.02.2.04-.07.02.02,0-.15-.02-.19-.03.09.02-.02.02.2.04.13.01.32.04.29.02,0-.01-.2-.02-.12-.02.27.03.31.05.42.04-.17-.02-.21-.03-.21-.04l.2.02h-.04c.31.04.09,0,.4.04l.14.03c-.07,0-.44-.06-.39-.03.19.02.24.03.45.05-.05,0-.09,0-.14-.01.07,0,.14.04.42.06.15.01.04,0,.04,0,.3.03.43.04.62.06-.04,0,.36.04.13.03-.1-.02-.56-.07-.68-.07.11.03-.25-.03-.32-.02.25.03.24.04.28.06.06,0,.14.01.18.02.03,0-.06-.02-.07-.03.28.03.56.06.72.07.09.02.06.02-.05,0,.34.04.69.08,1.02.11-.21-.04.36.04.22,0-.17-.02-.32-.05-.22-.04.11.01,0,0,.04.01.14,0,.21.04.35.04-.31-.03-.06.01-.12.02.22.02-.01,0,.21.03.25.02.52.04.74.06.31.04.79.08,1.06.11.14.02.05.02.2.04.18.02-.14-.03.14,0h-.03c.08,0,.5.05.58.05h-.09s.1.01.14.01c0,0,.06.01-.02,0,.17.03.35.03.54.05l-.12-.02c.35.03.52.04.83.07h0s.18.02.18.02c-.04,0,.12.02.22.02h-.47c-.13-.02.14-.01.06-.03-.07-.01-.35-.03-.4-.03.09,0,.1,0,.2.01.03.02-.13,0-.21.02.06,0,.14.02.15,0-.11,0-.22,0-.41-.01.13,0-.07-.02-.02-.02-.02.02-.19.02-.42,0-.16-.04-.43-.01-.7-.04.11-.02.25-.04.41-.03-.16-.03-.18-.02-.35-.04-.08,0-.14.05-.36.04v-.03c-.21,0-.21.04-.46,0-.44-.04-.87-.09-1.19-.12v-.03c-.2.06-.62-.03-.87-.02-.41-.08-.91-.04-1.11-.14-.74-.04-1.38-.06-2.14-.16l.14-.06c-.14.04-.08-.05-.22-.06.15.08-.19.06-.29.1-.33-.1-.77-.08-1.08-.05v-.06c-.32.07-.67-.06-1.05-.12-.04-.03-.1-.1-.21-.1-.22.08-.32.06-.63.09-.22-.03-.57-.09-.79-.16-.85.05-1.67-.15-2.55-.18l-.05-.09c-.22.02-.44,0-.67-.02l-.58-.02c-.41,0-.82.04-1.15.15l.04-.17c-.22-.02-.48.13-.4.23-.22,0-.51.2-.67.09-.22.02-.24.15-.42.22-.44.06-.6.12-.99.28l.1-.02c.03-.05.02-.12-.09-.1-.14.09-.56.14-.35.28-.46.03-.95.46-1.41.47.06.04-.04.09-.07.15-.36.16-.79.21-1.03.44-.07,0,.05-.13-.1-.07-.08.06.03.07-.06.15-.52.37-1.19.49-1.68.81-.81.63-1.68,1.21-2.34,1.87l-.03-.04c-.06.35-.65.41-.55.78-.07.03-.16.2-.21.11-.05.24-.42.51-.4.86.02-.02.01-.04,0-.08-.22.27-.13.55-.19.8-.02-.02-.04-.07-.08-.08-.09.14.23.2.03.32.03.06.12,0,.1-.03.1.58.95.97,1.76,1.17.55.32-.08.37.45.36.03.05.05-.07.05-.03.2-.01.24.32.4.23-.03-.14.11-.05.13-.13.37.17.43.3.76.25l-.03.07c.4-.14.82.02,1.15-.17.51.04,1.03.07,1.54.08.54.02.96,0,1.61.02,1.02.03,2.02.07,3.04.1,2.04.14,4.04.14,6.12.31.49.16.52.15,1.06.11-.02.02-.06.03-.02.05.03-.11.38,0,.43-.11.77.04,1.47.02,2.26.04-.12,0-.19.09-.04.09l.15-.06.03.03c.1-.01.21-.06.11-.1,1.98-.05,3.94.13,5.86-.04.45-.03,1.11-.09,1.57-.21.72-.08,1.42-.29,2.11-.44.35-.08.7-.17,1.05-.25.18-.04.35-.08.54-.13l.27-.06.14-.03h.07s.03-.01.04-.01c0-.02.08.05.03.07-.02.02-.02.01-.03.02,0,0,0,0,.01,0,0,0,.01,0,.02-.03,0,0-.02-.05-.04-.05h-.01s-.08.01-.14.03c-.19.05-.4.11-.62.17Z"/>
    <path class="cls-2" d="M1025.84,35.26c-.05,0-.23-.02-.09-.03.02,0,.11.02.09.03Z"/>
    <path class="cls-2" d="M1021.23,34.77s-.06,0-.08-.01c.05,0,.08,0,.16.01-.06,0-.05,0-.08,0Z"/>
    <path class="cls-2" d="M1020.05,34.64s.27.02.42.04l-.42-.04Z"/>
    <path class="cls-2" d="M1018.96,34.49c-.09-.02-.07-.02.06,0,0,0-.03,0-.06,0Z"/>
    <path class="cls-2" d="M1018.88,34.5c-.06,0-.11-.02-.18-.03,0,0,.21.02.18.03Z"/>
    <path class="cls-2" d="M1016.51,34.19c-.06,0-.18-.02-.23-.03.06.01.28.03.23.03Z"/>
    <path class="cls-2" d="M1015.4,34.06s-.04,0-.09-.01c-.07-.01,0,0,.06,0h.03Z"/>
    <path class="cls-2" d="M997.04,39.49s.03-.08.05-.11v.02s-.05.09-.05.09Z"/>
    <path class="cls-2" d="M1002.82,43.94c.12,0,.08.01.1.02-.11,0,.04,0-.1-.02Z"/>
    <polygon class="cls-2" points="1007.61 44.13 1007.57 44.12 1007.59 44.11 1007.61 44.13"/>
  </g>
  <g>
    <path class="cls-1" d="M1142.92,34.16s0,0,0,.01c0,0,0,0,0-.01Z"/>
    <path class="cls-1" d="M1142.91,34.23c.01.06-.04.12-.06.18,0,0-.02-.01-.02,0,0,.07-.08.14-.17.12h0s0,.03-.02.03c0,0,0-.01-.01-.02.01.03-.01.02,0,.04,0,0-.03-.03-.04-.04v.03c.03.09-.04.01-.05.07,0,0,0-.02,0-.03-.02.08-.09.09-.13.13,0-.02,0-.06-.02-.08.01.06,0,.08-.02.09-.02-.06-.02.06-.04.03h0c0,.06-.03-.05-.03.03v-.05c-.01.1-.04-.05-.05,0v.02s-.02-.02-.02,0h0s-.04-.04-.03.04c0-.06.02-.03,0-.12-.07.09-.15.07-.23.06,0-.03,0-.05,0-.08-.01.02-.03,0-.05.05,0,0,0-.04,0-.05,0-.03-.04.09-.04.05.01-.02.02-.05.03-.08-.03.06-.04.05-.06.06,0-.01.01-.02.02-.05-.04.07-.02-.02-.05.02l.02-.05c0-.06-.04.1-.05.06,0-.01.01-.03.02-.05-.05.08-.07.04-.1.06,0,0,0-.02,0-.02-.02,0-.03-.03-.07,0,0-.02.06-.11.03-.1-.05.09-.05.02-.1.12,0-.03-.02-.07-.05-.05.03-.03.06-.11.08-.11l.02-.06s0,.02.03-.03c0,0-.05.02-.04,0-.04.04-.12.12-.15.12.03-.02.06-.09.08-.1l-.14.12s.05-.06.02-.05c-.02.02-.03.03-.05.04,0,0-.04-.01.02-.08.02-.03.02,0,.04-.03-.01,0-.03.01-.04,0h0s-.05,0-.08.04c0,0,.04-.04.03-.01-.04.03-.07.02-.08.01.01,0,.03-.02.05-.04-.07.03-.1.02-.14.01-.03.02.07-.04.05-.02.03-.06-.1-.02-.05-.09,0,0-.05.03-.04.03,0-.02.05-.05.03-.05.03-.02-.02,0-.03-.01-.02,0,.01,0,.02,0-.03,0-.1-.05-.07-.1-.02,0-.08,0-.08-.01h.05s0-.04.03-.05c-.06,0,.06.06.01.04.04-.02-.08-.01-.02-.03,0-.02-.06-.02-.02-.05,0,0,.07,0,.07-.01-.01-.02-.02,0-.04-.02h-.02s0-.03-.05-.02c.04,0-.03-.04.05-.04h.06s-.07-.01-.09-.02c0,0,.02,0,.03,0-.09,0,0-.03-.06-.04.03-.02.01-.06.07-.07-.02-.02-.05-.05-.03-.06,0,0,0,.01.03.02.03,0,0-.01,0-.03.01,0,.06-.01.09-.01-.02-.02-.07-.03-.1-.04.09.01-.03-.07.05-.06,0,.01.03.04.06.04.09.02-.05-.05,0-.06l-.07-.03s-.02-.05.05-.01c-.02-.02.04-.01-.02-.05.07,0,.04-.1.15-.04,0-.01.01-.01-.01-.03-.03-.02.01.03-.01.01,0,0-.01-.02-.02-.02.02,0,.03,0,.06.04.05.01-.06-.1-.02-.1.02.02.03.03.03.02l-.02-.05s.05.04.08.07c0-.01.02-.02,0-.05l.05.04s0-.03-.01-.04h0s.02,0,.02,0c-.02-.02-.04-.02-.05-.03,0-.02,0-.02,0-.04.02.04.03.02.04.01.01,0,0-.04,0-.04.01.02.02,0,.03.03,0,0-.02-.01-.01,0,.02.01.04.04.03.01,0-.02-.05-.07-.01-.06,0,.01,0,.03.01.04h.03s-.02-.02-.02-.02c0,0,0,.01.01.02-.02-.04.02-.02,0-.07,0,0,.03.02.04.02h0s.03,0,.03-.03h0s.02,0,.02-.02c.03.02.06.13.06.08.01,0,0-.07-.02-.09.04.02.05-.05.09,0,0-.01,0-.02,0-.03.04,0,.08-.06.12,0,0,.02,0,.03,0,.05,0-.03.02.03.01-.02,0-.03,0-.05-.02-.06.02-.02.06-.02.08,0,0-.01,0-.02,0-.03,0,.05.02.05.03.04v-.03s.01.03.01.03c0,0,0-.06.02-.03,0,.01,0,.02,0,.03.01-.02.03-.06.05-.04v.04s.03-.03.02-.04c.03.03.04.03.05.06.04-.08.11-.07.16-.05v.02s0-.03.01-.01c0,.02,0,.04,0,.06.01.02.03-.03.04-.03,0-.02-.01.01,0-.02,0,0,.02.03.03,0,0,.02,0,.04-.01.05h.01s-.04.05-.04.1h.01s-.03.03-.01.05c.01-.01.03-.06.03-.08.02,0,.03-.08.05-.07,0,.02-.02,0-.02.03,0,.03.03,0,.03,0,0-.02,0-.05.02-.05,0,.02-.02.03,0,.04,0-.02.03-.02.02-.04.02-.04.01.02.03,0,0,.03-.04.06-.02.08,0-.03.03-.02.04-.07,0,.01,0,.03-.01.05,0,.02.04-.03.03.02v-.02s.01.02.02.04c0,0,.04-.02.03.02,0,0,.02.01.03-.02,0-.02-.02,0-.01-.03,0,.03.02,0,.03,0h0s.01.02.02.01c0,0,0,.01,0,.02v-.02s0,.04.02.04h-.02s0,.03.01.03c.01-.01.03-.03.04-.04.01,0,0,.02.01.01h-.02s0,.04,0,.05c0,0,.03-.01.03-.03,0,0,0,.02,0,.03.02,0,0-.02.02-.02,0,.02,0,.04,0,.06h-.02s0,.02,0,.02c-.02.01,0,.02-.02.03,0,0,.01,0,.02,0,0-.04.04-.02.05-.05.02.02-.03.07.02.05,0,0,.02-.02,0-.02,0,.02.02-.01.03.01-.02,0,0,.03-.03.03,0,0,0-.01,0-.01,0,.01-.02.02,0,.03,0,0,.02.01.02,0,0-.01-.01-.01,0-.02.02.01,0,.03.03.02,0,0,0-.02,0-.03h.01s0,.01,0,.01c.01.02.02,0,.03.02v.02s-.02-.03-.03-.01c0,.01.02,0,.03.02h0s-.01.03.01.03c.01,0,0,0,.01,0,0,0,.03.03.03.03-.01,0,.01.03,0,.02,0-.01-.02-.04-.03-.04,0,.02,0-.02-.03,0,.01.02,0,.03,0,.04,0,0,.01,0,.01,0,0,0,0-.01.01-.02.01.02.03.03.04.03,0,0,0,.01-.01,0,.02.02.03.04.04.06,0-.02.01.02.02,0,0-.01,0-.03,0-.02,0,0,0,0,0,0,.01,0,0,.02.01.02-.01-.02-.01,0-.02,0,.01.01,0,0,0,.02.01.01.02.03.03.04,0,.02.02.05.03.07,0,.01,0,0,0,.02,0,.01,0-.01,0,0h0s0,.03.02.04h0s0,0,0,0c0,0,0,0,0,0,0,.01,0,.02,0,.04h0s0,.03,0,.05h0s0,.01,0,.01c0,0,0,0,0,.02v-.03s0,0,0,0c0,0,0-.02,0-.03,0,0,0,0,0,.01,0,0,0,0-.01-.01h0s0,0,0-.02c0,0,0,0,0,0,0,0,0-.01-.01-.03,0-.01-.01-.03-.01-.04,0,0,.01.01.02.02,0-.02,0,0,0-.02,0,0-.01,0-.02-.02h0s-.01-.01-.02-.03c-.01-.03-.02-.05-.04-.07h0s-.03-.03-.04-.04c-.01-.02-.05-.04-.05-.06-.07-.04-.08-.05-.12-.07h.02s0-.02,0-.02c0,.02-.02,0-.03.02-.01-.02-.05-.02-.07-.01h0s-.04-.02-.06-.04c0,0,0-.02,0-.02-.03.02-.03.02-.06.03-.01,0-.03-.01-.04-.03-.07.04-.11,0-.17.03v-.03c-.06.06-.11,0-.15.05v-.06s-.03.02-.02.06c-.01-.02-.03.03-.04-.01-.01,0-.01.03-.02.04-.03-.02-.04-.01-.06,0h0s0-.04,0-.04c0,.02-.03,0-.01.06-.03-.04-.04.06-.08,0,0,.02,0,.03,0,.04-.02.01-.05-.02-.05.02,0,0-.01-.04-.02-.04,0,.01.01.03.01.04,0,.06-.07,0-.09.02-.01.07-.05.08-.06.12h-.01c.05.04-.07-.03.02.04-.02,0,0,0-.04-.02.04.03-.05,0,0,.04,0,0,0,0,0,0-.04,0,.01.02-.02.02,0,0-.01,0-.03-.01-.04,0,.08.03-.01.01h.05s.03.06.07.07c-.05.03-.17.05-.09.04-.02,0,.04-.01.02,0,.03,0-.11.05-.05.04.06-.03.04-.01.07-.02-.03.03-.08.06-.03.04l-.03.02c.1-.04.06,0,.17-.06.07.02.18-.03.24-.02.05.04.11.01.18.11.02.11.02.11.04.07,0,.02,0,.02,0,.03,0-.08.02,0,.01-.08.03.03.06.02.09.04,0,0,0,.06.01.06v-.04s0,.02,0,.02c0,0,0-.04,0-.06.07.02.23.16.34.12.04,0,.07-.01.09-.03.1-.02.17-.1.18-.2,0,0,.02.01.02.06Z"/>
    <path class="cls-1" d="M1142.92,34.14s0-.02.01,0h-.01Z"/>
    <polygon class="cls-1" points="1142.87 33.82 1142.87 33.82 1142.88 33.83 1142.87 33.82"/>
    <path class="cls-1" d="M1142.83,33.75s.02.01.02.02l-.02-.02Z"/>
    <path class="cls-1" d="M1142.81,33.66s0-.01,0,0h0Z"/>
    <path class="cls-1" d="M1142.79,33.67s0-.01,0-.02c0,0,.01.01,0,.02Z"/>
    <path class="cls-1" d="M1142.69,33.5s-.02,0-.01-.02c0,.01.02,0,.01.02Z"/>
    <path class="cls-1" d="M1142.62,33.45h0s.01-.01.01-.01h0Z"/>
    <polygon class="cls-1" points="1141.12 33.75 1141.11 33.73 1141.14 33.74 1141.12 33.75"/>
    <path class="cls-1" d="M1141.2,34.58s-.02.03-.02.03c0,0,.04-.03.02-.03Z"/>
    <polygon class="cls-1" points="1141.61 34.7 1141.61 34.7 1141.65 34.63 1141.61 34.7"/>
  </g>
  <g>
    <path class="cls-2" d="M1140.93,35.46h0s0,0,0,0Z"/>
    <path class="cls-2" d="M1143.73,35.81s-.08.01-.11.03c0,0,0-.01-.01,0-.03.02-.09.03-.14,0h0s-.02.01-.03,0c0,0,0,0,0-.01,0,.01-.02,0-.02.02,0,0,0-.02-.01-.02v.02s-.04,0-.05.02h0s-.07.02-.1.03c0,0,0-.02,0-.03,0,.02-.01.03-.02.04,0-.02-.01.02-.03.01h0s-.01-.02-.02.01v-.02s-.02-.02-.02,0h0s-.01,0-.02,0h0s-.02-.01-.02.02c0-.02.01-.01,0-.05-.04.03-.09.03-.14.03,0-.01,0-.02-.01-.03,0,0-.02,0-.02.02v-.02s-.01.04-.02.02c0,0,0-.02,0-.03,0,.03-.02.02-.03.03,0,0,0,0,0-.02-.01.03-.02,0-.03.01v-.02s0,.04-.01.03c0,0,0-.02,0-.02-.01.04-.03.03-.04.04h0s-.03-.02-.04,0c0,0,0-.05-.01-.05,0,.04-.02.02-.02.07-.01,0-.03-.02-.04,0,0-.02,0-.06,0-.06v-.03s0,0,0-.02c0,0-.02.02-.02.01,0,.03-.02.08-.03.09,0-.02,0-.05,0-.06l-.02.09s0-.04,0-.02c0,.01,0,.02,0,.03,0,0-.02.01-.02-.04,0-.02,0,0,0-.03,0,0,0,.02-.02.02h0s-.02.01-.01.04c0,0,0-.03,0-.01,0,.03-.02.03-.03.03,0,0,0-.02,0-.03-.01.04-.03.05-.04.06,0,.02,0-.04,0-.03-.01-.03-.04.04-.05,0,0,0,0,.03,0,.03,0,0,0-.04-.01-.02,0-.02,0,0-.01.01,0,.01,0,0,0-.01,0,.02-.04.04-.06.01,0,.01-.02.04-.02.04v-.03s0,0,0-.02c-.01.04.04-.03.02,0,0-.03-.02.05-.01,0,0,0-.02.03-.02,0,0,0,.01-.04,0-.04-.01,0,0,.01-.02.02h0s0,0,0,.04c0-.02-.02.01-.01-.04v-.04s0,.04-.01.06c0,0,0-.01,0-.02,0,.06-.01,0-.02.04,0-.02-.03,0-.03-.04-.01.02-.02.04-.03.02,0,0,0,0,0-.02,0-.02,0,0-.01,0,0,0,0-.04-.01-.06-.01.02-.01.05-.02.07,0-.06-.03.03-.03-.02,0,0,.02-.03.01-.04,0-.06-.02.04-.03.01v.05s-.03.02-.02-.02c0,.02-.01-.02-.02.03-.01-.04-.05.02-.05-.07,0,0,0,0-.01.02,0,.03,0-.02,0,0,0,0,0,.01,0,.02,0-.01,0-.02,0-.05,0-.03-.03.07-.04.05,0-.02,0-.03,0-.02v.03s-.01-.04,0-.07c0,0-.01,0-.02.02v-.04s0,.02-.01.02h0s0-.01-.01-.01c0,.02,0,.03,0,.03,0,.01,0,0-.02.02,0-.03,0-.02,0-.03,0,0-.01.02-.01.02,0-.02,0,0,0-.03,0,0,0,.02,0,0,0-.01,0-.04,0-.02,0,.01,0,.06-.02.04,0,0,0-.02.01-.03v-.02s-.01.03-.01.03c0,0,0-.01,0-.01,0,.03-.02,0-.02.04,0,0,0-.02-.01-.03h0s-.01-.01-.02,0h0s-.01,0-.02,0c0-.02.02-.1,0-.07,0,0-.02.05-.02.06-.01-.02-.04.02-.04-.03,0,0,0,.02-.01.02-.02-.02-.05.02-.06-.04,0,0,0-.02,0-.04-.01.02,0-.02-.01.01,0,.02,0,.03,0,.04-.02,0-.03,0-.04-.02,0,.01,0,.02,0,.02,0-.04,0-.04,0-.03v.02s0-.02,0-.02c0,0-.01.04-.02.02v-.02s-.02.04-.03.02v-.03s-.01.02,0,.03c0-.02-.02-.03-.01-.06-.04.05-.07.04-.1.03h0s-.01,0-.01,0c0-.01,0-.03.01-.05,0-.02-.02.02-.03.02,0,.02,0,0,0,.01,0,0,0-.02-.02,0,0-.01,0-.03.01-.04h0s.03-.04.04-.08h0s.02-.03.01-.04c-.01.01-.03.05-.02.06-.01,0-.02.06-.04.05,0-.02.01,0,.02-.02,0-.02-.02,0-.02,0,0,.01,0,.04-.02.04,0-.02.01-.02,0-.03,0,.01-.02.02-.01.03-.01.03,0-.01-.02,0,0-.02.03-.05.02-.07,0,.02-.02.02-.03.06,0,0,0-.03.01-.04,0-.02-.03.03-.01-.01v.02s0-.01,0-.03c0,0-.03.02-.01-.01,0,0-.01,0-.02.02,0,.02.01-.01,0,.02,0-.03-.01,0-.02,0h0s0-.02-.01,0c0,0,0-.02,0-.02v.02s0-.03-.01-.03h.01s0-.03,0-.02c0,.01-.02.03-.02.04,0,0,0-.02,0,0v-.02s.02-.03.01-.03c0,0-.02.02-.02.03,0,0,0-.01,0-.02-.01,0,0,.02-.02.02,0-.01,0-.03,0-.05l.02-.02h0s0-.02.01-.04c0,0,0,0-.01,0,0,.04-.03.04-.03.07-.02,0,.02-.08-.01-.04,0,0-.01.03,0,.02,0,0-.02.02-.02,0,.01,0,0-.03.02-.04,0,0,0,0,0,0,0-.01.01-.03,0-.03,0,0-.01,0-.02.01,0,.02,0,0,0,.02-.01,0,0-.03-.02,0,0,0,0,.02,0,.03h0s0,0,0,0c0-.02-.01.02-.02,0v-.02s.02.02.02,0c0,0-.01,0-.02,0h0s0-.04-.01-.03c0,0,0,0,0,.02-.01,0-.02,0-.03,0,0-.02-.01-.01,0-.02,0,.01.02.02.03,0,0-.02,0,0,.02-.01,0,0,0-.03,0-.04h0s0,.02,0,.03c0,0-.02,0-.03,0,0,0,0-.02,0-.02-.01,0-.03-.01-.04-.02,0,.02-.02,0-.02.01,0,0,0,.02,0,.03,0,0,0-.01,0-.01,0,0,0-.02-.01,0,.01,0,0-.02.02-.03-.01,0,0,0,0-.01-.01,0-.02,0-.03,0,0-.02-.03-.02-.04-.02,0,0,0-.01,0-.02,0,0,0,.01,0,0h0s-.02-.02-.02,0h0s0,0,0,0h0s-.01-.01-.02-.01h0s-.02,0-.03-.01h0s0,0,0,0h0s.02,0,.02,0c0,0,0,0,0,0h.02s0,0,0,0h.01s0,0,0,0c0,0,.01,0,.02,0,0,0,0,0,0,0,0,0,.01,0,.02,0,0,0,.02,0,.03,0,0,0-.01,0-.02,0,0,0,0,0,.01,0,0,0,.01,0,.02,0h0s.01,0,.02,0c.04.01.04.02.05.02h0s.03,0,.04,0c.01.01.04,0,.04.02.03,0,.06,0,.09,0v.02s-.01.01,0,.01c0-.02.01-.02.02-.03,0,.02.03,0,.05,0h0s.03.02.04.02c0,0,0,.02,0,.02.02-.02.02-.02.04-.03,0,0,.02.01.03.02.05-.03.07,0,.12-.02v.02s.07,0,.11-.01v.04s.01,0,.02-.04c0,.01.03-.02.03.02,0,0,.02-.02.03-.02.01.02.02.02.04.01h0s0,.03,0,.03c0-.01.02.02.03-.04.01.03.05-.02.06.03,0-.02,0-.02.01-.03.02,0,.03.04.05.01,0,0,0,.03,0,.03,0,0,0-.02.01-.03.03-.03.05.04.07.03.05-.03.09,0,.13,0h0s.03.07.05,0c0,.01.01,0,0,.03.02-.03.03.04.05,0,0,0,0,0,0,0,.01.03.03,0,.05.02,0,0,0,0,0,.02,0,.03.02-.05.02.01v-.03s.08,0,.12-.02c.02.04,0,.1.02.06,0,.01,0-.02,0-.01.01-.02,0,.07.02.04,0-.04,0-.02,0-.04.01.03.02.06.03.03v.02c.02-.05.03-.02.05-.08.09,0,.17-.03.26-.02.08.02.17.01.25.05.02.04.02.04.05.03,0,0,0,0,0,.01,0-.03.02,0,.02-.03.03,0,.06,0,.09.01,0,0,0,.02,0,.02v-.02s0,0,0,0c0,0,0-.02,0-.03.08,0,.17.05.25.06.02,0,.05,0,.07,0,.07.03.13.03.19.03,0,0,0,0-.04,0Z"/>
    <path class="cls-2" d="M1140.94,35.47s0,0,0,0h0Z"/>
    <polygon class="cls-2" points="1141.11 35.59 1141.11 35.6 1141.1 35.6 1141.11 35.59"/>
    <path class="cls-2" d="M1141.15,35.62s-.01,0-.02,0h.02Z"/>
    <path class="cls-2" d="M1141.18,35.68s0,.01,0,0h0Z"/>
    <path class="cls-2" d="M1141.19,35.67s0,0,0,.01c0,0,0,0,0-.01Z"/>
    <path class="cls-2" d="M1141.27,35.75s.01,0,0,0c0,0-.02,0,0,0Z"/>
    <path class="cls-2" d="M1141.32,35.76h0s0,.01,0,.01h0Z"/>
    <polygon class="cls-2" points="1142.19 35.98 1142.18 35.99 1142.19 35.97 1142.19 35.98"/>
    <path class="cls-2" d="M1142.58,36.02s0,.02,0,.02c0,0,0-.02,0-.02Z"/>
    <polygon class="cls-2" points="1142.79 35.93 1142.79 35.93 1142.79 35.9 1142.79 35.93"/>
  </g>
  <path class="cls-3" d="M715.58,2.98c5.8-.2,287.41-.84,289.89-.9"/>
</svg>